<?xml version="1.0" encoding="UTF-8"?>
<svg id="_图层_1" data-name="图层_1" xmlns="http://www.w3.org/2000/svg" version="1.1" viewBox="0 0 800 800">
  <!-- Generator: Adobe Illustrator 29.1.0, SVG Export Plug-In . SVG Version: 2.1.0 Build 142)  -->
  <g>
    <path id="path3019" d="M400.0284,750c-94.5166-25.4753-172.7078-67.8075-222.6142-124.6237-47.6475-54.0258-71.9268-121.5105-71.8319-197.6895V50h588.8353v377.6868c.1139,76.179-24.1464,143.6637-71.8129,197.6895-49.9065,56.8163-128.0027,99.1485-222.5763,124.6237" style="fill: #fff;"/>
    <path id="path3023" d="M668.7335,427.6963c0,145.0495-93.7383,247.558-269.3125,296.1925-175.6502-48.6346-268.7051-151.143-268.7051-296.1925V78.8448h538.0176v348.8515Z" style="fill: #fff;"/>
    <path id="path3027" d="M663.8359,427.6508c0,142.1071-91.7831,242.5085-263.8075,290.1559-172.0813-47.6475-263.219-148.0488-263.219-290.1559V85.8799h527.0264v341.7708ZM122.1925,71.6426v356.0461c0,72.7431,22.8176,135.6529,67.7125,186.7363,47.059,53.6081,117.7139,93.3776,210.0664,118.2644,92.4095-24.8868,163.1024-64.6563,210.1803-118.2644,44.8949-51.0834,67.6556-113.9932,67.6556-186.7363V71.6426H122.1925Z" style="fill: #2b57ac;"/>
  </g>
  <g>
    <g>
      <path id="path3031" d="M391.8467,517.2071l-.1519-2.5627h-1.5566c-1.139.6264-2.4678,2.3349-3.398,4.8027l-.4366,1.1769c-1.082,3.36-1.0441,5.9227-1.0441,5.9227,0,0,2.5247-2.5627,4.0434-4.6129l.6454-.9681,1.8983-3.7586" style="fill: #1c5329;"/>
      <path id="path3035" d="M377.8942,500.7637c-1.8414,1.2908-6.4542,5.4481-3.7207,11.9214,3.1892,7.5742,10.3078,7.9729,12.1302,7.9159l.4176-1.158c.9492-2.4678,2.278-4.1573,3.4169-4.8027-.3607-2.24-.8732-5.1064-1.5566-6.9478-.9112-2.278-2.9614-5.2393-4.1573-6.8149-1.12.6264-3.1702.8542-6.5302-.1139" style="fill: #ea1f29;"/>
      <path id="path3039" d="M399.5348,490.4523c-.7593-1.0631-1.2908-3.4549-1.5566-6.9858v-.7024c-1.9742-1.5946-8.8841-6.3403-15.4712-.9492-6.8149,5.5051-4.3092,12.5858-3.1512,15.0346l5.581,1.7844c1.5376-1.2149,4.1193-3.1892,6.5492-4.7078,2.5058-1.5756,5.8468-2.8285,8.0488-3.4739" style="fill: #ea1f29;"/>
      <path id="path3043" d="M378.7617,496.7603c-4.3851-.6644-7.3654.4366-7.3654.4366,0,0,1.0061,2.0312,6.3593,3.5498l.1329.019c3.379.9681,5.4292.7214,6.5492.1139l1.0441-1.4617-.5315-.7783-5.6-1.8034-.5885-.0759" style="fill: #1c5329;"/>
      <path id="path3047" d="M411.1183,512.9415c-2.5247-.0569-6.3593,0-9.3776.6264-3.4929.7973-7.821,2.6576-9.8902,3.6447l-1.8983,3.7397-.6454.9871c1.139,1.4047,5.9037,6.6061,13.8956,5.5431,9.1498-1.139,11.4278-7.4414,11.8264-8.979l-.6075-.7214-3.3031-4.8407" style="fill: #ea1f29;"/>
      <path id="path3051" d="M421.8437,495.7674l-2.3729,1.1769c-2.3919.8922-4.461,1.7085-5.7898,1.7844-.4746,1.4427-1.0251,3.4169-1.1769,5.6949-.1519,2.24.2278,4.7458.5315,6.4163,1.12.8353,2.4678,2.24,3.9864,4.1953l.4176.5695.8922,1.4617c2.7146.1139,8.7132-.6454,9.9851-9.1878,1.4807-9.5485-5.1444-11.7695-6.4732-12.1112" style="fill: #ea1f29;"/>
      <path id="path3055" d="M420.794,493.4838c.2468-1.12,2.0122-10.4027-6.2644-14.6739-5.8278-2.9803-10.7064.1329-13.0983,2.259l.2468,1.5756c.3607,2.9234.2658,5.619-.2088,7.1566.6454.5125,3.1892,2.4108,5.9797,3.7397,2.4678,1.139,5.5431,2.0502,6.3593,2.24l4.461-1.6515,2.5247-.6454" style="fill: #ea1f29;"/>
      <path id="path3059" d="M401.6876,482.6445l-.2658-1.5756c-.6644-3.1322-2.1451-3.5688-2.1451-3.5688,0,0-1.4617.8732-1.2908,5.2773v.7024c.2468,3.5119.7783,5.9037,1.5376,6.9858l1.0251.5125.8732-1.139.038-.0569c.4746-1.5376.5695-4.2142.2278-7.1376" style="fill: #1c5329;"/>
      <path id="path3063" d="M421.8437,495.7674c2.0881-1.12,4.4041-2.5247,4.2902-2.7336-.0949-.1519-2.6386-.0569-5.3342.4366l-2.5437.6644-4.442,1.6515-1.6325,2.1641,1.4997.7783c1.3288-.0759,3.398-.8922,5.7898-1.7844l2.3729-1.1769" style="fill: #1c5329;"/>
      <path id="path3067" d="M417.0238,515.0448c-1.5186-1.9742-2.8664-3.36-3.9864-4.2142l-1.158-.7214-1.158.1139-.1329,1.4617.5315,1.2529,3.2841,4.8407.6075.7214.4936.4556c2.1451,1.9932,4.0814,2.0692,4.0814,2.0692,0,0,.038-1.5946-1.2529-3.9675l-.9112-1.4427-.3986-.5695" style="fill: #1c5329;"/>
      <path id="path3071" d="M405.8335,500.8037c.7593,2.8854-1.6136,5.9797-5.2583,6.9098-3.6447.9112-7.2325-.6264-7.9539-3.4929-.7593-2.8475,1.6325-5.9227,5.2583-6.8529,3.6447-.9681,7.1946.5695,7.9539,3.4359" style="fill: #f2bb0e;"/>
    </g>
    <g>
      <path id="path3075" d="M587.2755,517.2071l-.1519-2.5627h-1.5756c-1.101.6264-2.4678,2.3349-3.379,4.8027l-.3797,1.1769c-1.101,3.36-1.101,5.9227-1.101,5.9227,0,0,2.5627-2.5627,4.1003-4.6129l.6075-.9681,1.8793-3.7586" style="fill: #1c5329;"/>
      <path id="path3079" d="M573.2887,500.7637c-1.7844,1.2908-6.3973,5.4481-3.6637,11.9214,3.1512,7.5742,10.3078,7.9729,12.1681,7.9159l.3797-1.158c.8922-2.4678,2.278-4.1573,3.379-4.8027-.3227-2.24-.8353-5.1064-1.5186-6.9478-.9492-2.278-2.9993-5.2393-4.1573-6.8149-1.101.6264-3.1702.8542-6.5871-.1139" style="fill: #ea1f29;"/>
      <path id="path3083" d="M594.9807,490.4523c-.7403-1.0631-1.2719-3.4549-1.5566-6.9858l-.0569-.7024c-1.8793-1.5946-8.8271-6.3403-15.4142-.9492-6.7959,5.5051-4.3092,12.5858-3.2081,15.0346l5.619,1.7844c1.5376-1.2149,4.1383-3.1892,6.5492-4.7078,2.5437-1.5756,5.9037-2.8285,8.0678-3.4739" style="fill: #ea1f29;"/>
      <path id="path3087" d="M574.1563,496.7603c-4.3851-.6644-7.2705.4366-7.2705.4366,0,0,.9492,2.0312,6.3024,3.5498l.0949.019c3.4169.9681,5.4861.7214,6.6061.1139l1.0441-1.4617-.5695-.7783-5.619-1.8034-.5885-.0759" style="fill: #1c5329;"/>
      <path id="path3091" d="M606.5354,512.9415c-2.5058-.0569-6.3024,0-9.3207.6264-3.5308.7973-7.821,2.6576-9.9471,3.6447l-1.8603,3.7397-.6264.9871c1.101,1.4047,5.8468,6.6061,13.8386,5.5431,9.1498-1.139,11.4278-7.4414,11.8454-8.979l-.6075-.7214-3.322-4.8407" style="fill: #ea1f29;"/>
      <path id="path3095" d="M617.3235,495.7674l-2.4108,1.1769c-2.4298.8922-4.442,1.7085-5.7519,1.7844-.5505,1.4427-1.101,3.4169-1.2339,5.6949-.1519,2.24.2468,4.7458.5695,6.4163,1.101.8353,2.4298,2.24,3.9485,4.1953l.3986.5695.9302,1.4617c2.7525.1139,8.7132-.6454,10.0041-9.1878,1.4807-9.5485-5.1444-11.7695-6.4542-12.1112" style="fill: #ea1f29;"/>
      <path id="path3099" d="M616.2529,493.4838c.2847-1.12,2.0122-10.4027-6.2454-14.6739-5.8847-2.9803-10.7064.1329-13.1173,2.259l.2468,1.5756c.3607,2.9234.2658,5.619-.2468,7.1566.7214.5125,3.2271,2.4108,5.9797,3.7397,2.4678,1.139,5.562,2.0502,6.3783,2.24l4.461-1.6515,2.5437-.6454" style="fill: #ea1f29;"/>
      <path id="path3103" d="M597.1464,482.6445l-.2468-1.5756c-.7024-3.1322-2.1641-3.5688-2.1641-3.5688,0,0-1.4807.8732-1.3478,5.2773l.0569.7024c.2847,3.5119.7973,5.9037,1.5376,6.9858l1.0441.5125.8542-1.139.019-.0569c.5125-1.5376.6075-4.2142.2468-7.1376" style="fill: #1c5329;"/>
      <path id="path3107" d="M617.3235,495.7674c2.0692-1.12,4.3851-2.5247,4.2522-2.7336-.0759-.1519-2.6386-.0569-5.3153.4366l-2.5627.6644-4.461,1.6515-1.6515,2.1641,1.5756.7783c1.3098-.0759,3.322-.8922,5.7519-1.7844l2.4108-1.1769" style="fill: #1c5329;"/>
      <path id="path3111" d="M612.4526,515.0448c-1.5376-1.9742-2.8475-3.36-3.9485-4.2142l-1.1959-.7214-1.158.1139-.1139,1.4617.4936,1.2529,3.322,4.8407.6075.7214.4556.4556c2.1831,1.9932,4.1383,2.0692,4.1383,2.0692,0,0,0-1.5946-1.2908-3.9675l-.9112-1.4427-.3986-.5695" style="fill: #1c5329;"/>
      <path id="path3115" d="M601.279,500.8037c.7593,2.8854-1.6136,5.9797-5.2583,6.9098-3.6637.9112-7.2325-.6264-7.9729-3.4929-.7403-2.8475,1.6136-5.9227,5.2773-6.8529,3.6637-.9681,7.2136.5695,7.9539,3.4359" style="fill: #f2bb0e;"/>
    </g>
    <g>
      <path id="path3119" d="M194.8976,517.2071l-.1329-2.5627h-1.5376c-1.139.6264-2.4678,2.3349-3.398,4.8027l-.3797,1.1769c-1.12,3.36-1.101,5.9227-1.101,5.9227,0,0,2.5437-2.5627,4.0814-4.6129l.6264-.9681,1.8414-3.7586" style="fill: #1c5329;"/>
      <path id="path3123" d="M180.9337,500.7637c-1.7654,1.2908-6.3593,5.4481-3.6827,11.9214,3.1702,7.5742,10.3078,7.9729,12.2061,7.9159l.3797-1.158c.9302-2.4678,2.259-4.1573,3.379-4.8027-.3227-2.24-.8353-5.1064-1.5186-6.9478-.9302-2.278-2.9993-5.2393-4.1383-6.8149-1.139.6264-3.1892.8542-6.6251-.1139" style="fill: #ea1f29;"/>
      <path id="path3127" d="M202.5799,490.4523c-.7024-1.0631-1.2719-3.4549-1.4997-6.9858l-.038-.7024c-1.9363-1.5946-8.8271-6.3403-15.4522-.9492-6.7959,5.5051-4.3281,12.5858-3.1132,15.0346l5.562,1.7844c1.5376-1.2149,4.1193-3.1892,6.5492-4.7078,2.5247-1.5756,5.8658-2.8285,7.9919-3.4739" style="fill: #ea1f29;"/>
      <path id="path3131" d="M181.8125,496.7603c-4.3661-.6644-7.3085.4366-7.3085.4366,0,0,.9681,2.0312,6.3403,3.5498l.0949.019c3.4359.9681,5.4861.7214,6.6061.1139l1.0251-1.4617-.5505-.7783-5.562-1.8034-.6454-.0759" style="fill: #1c5329;"/>
      <path id="path3135" d="M214.19,512.9415c-2.5058-.0569-6.3214,0-9.3586.6264-3.5119.7973-7.7831,2.6576-9.9281,3.6447l-1.8414,3.7397-.6264.9871c1.101,1.4047,5.8658,6.6061,13.8766,5.5431,9.1308-1.139,11.3708-7.4414,11.8075-8.979l-.6264-.7214-3.3031-4.8407" style="fill: #ea1f29;"/>
      <path id="path3139" d="M224.9572,495.7674l-2.3729,1.1769c-2.4298.8922-4.48,1.7085-5.7898,1.7844-.5315,1.4427-1.0631,3.4169-1.2529,5.6949-.0949,2.24.2658,4.7458.6454,6.4163,1.0631.8353,2.3919,2.24,3.9295,4.1953l.3797.5695.9112,1.4617c2.7336.1139,8.7512-.6454,10.0231-9.1878,1.4617-9.5485-5.1444-11.7695-6.4732-12.1112" style="fill: #ea1f29;"/>
      <path id="path3143" d="M223.9037,493.4838c.2468-1.12,1.9932-10.4027-6.2834-14.6739-5.8468-2.9803-10.6875.1329-13.1173,2.259l.2847,1.5756c.3607,2.9234.2278,5.619-.2847,7.1566.7403.5125,3.2461,2.4108,5.9986,3.7397,2.5058,1.139,5.581,2.0502,6.3973,2.24l4.48-1.6515,2.5247-.6454" style="fill: #ea1f29;"/>
      <path id="path3147" d="M204.7859,482.6445l-.2847-1.5756c-.6644-3.1322-2.1261-3.5688-2.1261-3.5688,0,0-1.4997.8732-1.3288,5.2773l.019.7024c.2658,3.5119.7973,5.9037,1.5186,6.9858l1.0441.5125.8732-1.139v-.0569c.5315-1.5376.6454-4.2142.2847-7.1376" style="fill: #1c5329;"/>
      <path id="path3151" d="M224.9572,495.7674c2.0692-1.12,4.4041-2.5247,4.2522-2.7336-.0569-.1519-2.6576-.0569-5.3153.4366l-2.5247.6644-4.461,1.6515-1.6515,2.1641,1.5376.7783c1.3098-.0759,3.36-.8922,5.7898-1.7844l2.3729-1.1769" style="fill: #1c5329;"/>
      <path id="path3155" d="M220.1147,515.0448c-1.5376-1.9742-2.8664-3.36-3.9295-4.2142l-1.2149-.7214-1.1769.1139-.0569,1.4617.4556,1.2529,3.3031,4.8407.6264.7214.4556.4556c2.1831,1.9932,4.1383,2.0692,4.1383,2.0692,0,0,0-1.5946-1.2908-3.9675l-.9302-1.4427-.3797-.5695" style="fill: #1c5329;"/>
      <path id="path3159" d="M208.9072,500.8037c.7403,2.8854-1.5946,5.9797-5.2583,6.9098-3.6447.9112-7.2136-.6264-7.9349-3.4929-.7403-2.8475,1.6136-5.9227,5.2583-6.8529,3.6258-.9681,7.2325.5695,7.9349,3.4359" style="fill: #f2bb0e;"/>
    </g>
    <g>
      <path id="path3163" d="M391.8467,335.0531l-.1519-2.5627-1.5566-.038c-1.139.7024-2.4678,2.4108-3.398,4.8597l-.4366,1.12c-1.082,3.36-1.0441,5.9607-1.0441,5.9607,0,0,2.5247-2.5627,4.0434-4.5939l.6454-.9302,1.8983-3.8156" style="fill: #1c5329;"/>
      <path id="path3167" d="M377.8942,318.6122c-1.8414,1.2908-6.4542,5.4102-3.7207,11.9593,3.1892,7.5173,10.3078,7.9159,12.1302,7.878l.4176-1.158c.9492-2.4298,2.278-4.1383,3.4169-4.8217-.3607-2.221-.8732-5.1444-1.5566-6.9098-.9112-2.2969-2.9614-5.2583-4.1573-6.8339-1.12.5885-3.1702.8542-6.5302-.1139" style="fill: #ea1f29;"/>
      <path id="path3171" d="M399.5348,308.2549c-.7593-1.0061-1.2908-3.4169-1.5566-6.9668v-.6834c-1.9742-1.5756-8.8841-6.3403-15.4712-.9302-6.8149,5.5051-4.3092,12.6047-3.1512,15.0536l5.581,1.7654c1.5376-1.2529,4.1193-3.2271,6.5492-4.7458,2.5058-1.5566,5.8468-2.7905,8.0488-3.4929" style="fill: #ea1f29;"/>
      <path id="path3175" d="M378.7617,314.6048c-4.3851-.6454-7.3654.4556-7.3654.4556,0,0,1.0061,2.0122,6.3593,3.5308l.1329.019c3.379.9871,5.4292.7024,6.5492.1139l1.0441-1.4617-.5315-.7593-5.6-1.7844-.5885-.1139" style="fill: #1c5329;"/>
      <path id="path3179" d="M411.1183,330.8067c-2.5247-.0759-6.3593,0-9.3776.6264-3.4929.7783-7.821,2.6197-9.8902,3.6258l-1.8983,3.7966-.6454.9302c1.139,1.3858,5.9037,6.5492,13.8956,5.5431,9.1498-1.1769,11.4278-7.4414,11.8264-8.979l-.6075-.7403-3.3031-4.8027" style="fill: #ea1f29;"/>
      <path id="path3183" d="M421.8437,313.612l-2.3729,1.158c-2.3919.9112-4.461,1.7275-5.7898,1.8034-.4746,1.3858-1.0251,3.4359-1.1769,5.7329-.1519,2.202.2278,4.7268.5315,6.3973,1.12.7973,2.4678,2.24,3.9864,4.2142l.4176.5695.8922,1.4237c2.7146.1329,8.7132-.6264,9.9851-9.1498,1.4807-9.5675-5.1444-11.7885-6.4732-12.1492" style="fill: #ea1f29;"/>
      <path id="path3187" d="M420.794,311.3339c.2468-1.139,2.0122-10.4027-6.2644-14.6549-5.8278-2.9993-10.7064.0949-13.0983,2.24l.2468,1.5946c.3607,2.9044.2658,5.6-.2088,7.1186.6454.5125,3.1892,2.4298,5.9797,3.7397,2.4678,1.158,5.5431,2.0502,6.3593,2.278l4.461-1.6895,2.5247-.6264" style="fill: #ea1f29;"/>
      <path id="path3191" d="M401.6876,300.4929l-.2658-1.5946c-.6644-3.0942-2.1451-3.5498-2.1451-3.5498,0,0-1.4617.9112-1.2908,5.2583v.6834c.2468,3.5498.7783,5.9417,1.5376,6.9668l1.0251.5885.8732-1.139.038-.0759c.4746-1.5186.5695-4.2332.2278-7.1376" style="fill: #1c5329;"/>
      <path id="path3195" d="M421.8437,313.612c2.0881-1.101,4.4041-2.5247,4.2902-2.7146-.0949-.1329-2.6386-.0759-5.3342.4366l-2.5437.6264-4.442,1.6895-1.6325,2.1831,1.4997.7403c1.3288-.0759,3.398-.8922,5.7898-1.8034l2.3729-1.158" style="fill: #1c5329;"/>
      <path id="path3199" d="M417.0238,332.91c-1.5186-1.9742-2.8664-3.4169-3.9864-4.2142l-1.158-.7593-1.158.1329-.1329,1.4237.5315,1.3098,3.2841,4.8027.6075.7214.4936.4746c2.1451,1.9932,4.0814,2.0502,4.0814,2.0502,0,0,.038-1.5756-1.2529-3.9295l-.9112-1.4427-.3986-.5695" style="fill: #1c5329;"/>
      <path id="path3203" d="M405.8335,318.6463c.7593,2.8854-1.6136,5.9607-5.2583,6.9098-3.6447.9492-7.2325-.6075-7.9539-3.4359-.7593-2.8854,1.6325-5.9797,5.2583-6.9288,3.6447-.9492,7.1946.5885,7.9539,3.4549" style="fill: #f2bb0e;"/>
    </g>
    <g>
      <path id="path3207" d="M192.443,335.0531l-.1139-2.5627-1.6136-.038c-1.0631.7024-2.4488,2.4108-3.36,4.8597l-.4366,1.12c-1.0631,3.36-1.0631,5.9607-1.0631,5.9607,0,0,2.5627-2.5627,4.1383-4.5939l.6075-.9302,1.8414-3.8156" style="fill: #1c5329;"/>
      <path id="path3211" d="M178.4792,318.6122c-1.8034,1.2908-6.4163,5.4102-3.7017,11.9593,3.1512,7.5173,10.3458,7.9159,12.1492,7.878l.4366-1.158c.8922-2.4298,2.2969-4.1383,3.341-4.8217-.2658-2.221-.7973-5.1444-1.4807-6.9098-.9681-2.2969-2.9803-5.2583-4.1573-6.8339-1.12.5885-3.1702.8542-6.5871-.1139" style="fill: #ea1f29;"/>
      <path id="path3215" d="M200.1427,308.2549c-.7593-1.0061-1.2529-3.4169-1.5566-6.9668v-.6834c-1.9742-1.5756-8.8841-6.3403-15.4902-.9302-6.758,5.5051-4.2902,12.6047-3.1512,15.0536l5.638,1.7654c1.4997-1.2529,4.0814-3.2271,6.5302-4.7458,2.5247-1.5566,5.8847-2.7905,8.0298-3.4929" style="fill: #ea1f29;"/>
      <path id="path3219" d="M179.3467,314.6048c-4.3661-.6454-7.3275.4556-7.3275.4556,0,0,1.0251,2.0122,6.3403,3.5308l.1139.019c3.4169.9871,5.4671.7024,6.6061.1139l1.0251-1.4617-.5125-.7593-5.6569-1.7844-.5885-.1139" style="fill: #1c5329;"/>
      <path id="path3223" d="M211.7033,330.8067c-2.4868-.0759-6.3214,0-9.3207.6264-3.4929.7783-7.84,2.6197-9.9471,3.6258l-1.8414,3.7966-.6075.9302c1.082,1.3858,5.8088,6.5492,13.8007,5.5431,9.1498-1.1769,11.4468-7.4414,11.8454-8.979l-.6075-.7403-3.322-4.8027" style="fill: #ea1f29;"/>
      <path id="path3227" d="M222.48,313.612l-2.4108,1.158c-2.3919.9112-4.4231,1.7275-5.7329,1.8034-.5315,1.3858-1.082,3.4359-1.2529,5.7329-.0949,2.202.2847,4.7268.6075,6.3973,1.082.7973,2.3919,2.24,3.9485,4.2142l.3986.5695.9112,1.4237c2.6956.1329,8.7132-.6264,10.0231-9.1498,1.4427-9.5675-5.1634-11.7885-6.4922-12.1492" style="fill: #ea1f29;"/>
      <path id="path3231" d="M221.4187,311.3339c.2278-1.139,1.9932-10.4027-6.2644-14.6549-5.8658-2.9993-10.7064.0949-13.0983,2.24l.2468,1.5946c.3417,2.9044.2658,5.6-.2468,7.1186.7024.5125,3.2271,2.4298,5.9607,3.7397,2.5058,1.158,5.6,2.0502,6.4163,2.278l4.461-1.6895,2.5247-.6264" style="fill: #ea1f29;"/>
      <path id="path3235" d="M202.3085,300.4929l-.2658-1.5946c-.6644-3.0942-2.1451-3.5498-2.1451-3.5498,0,0-1.4617.9112-1.3098,5.2583v.6834c.3037,3.5498.7973,5.9417,1.5566,6.9668l1.0251.5885.8732-1.139.019-.0759c.5315-1.5186.5695-4.2332.2468-7.1376" style="fill: #1c5329;"/>
      <path id="path3239" d="M222.48,313.612c2.0881-1.101,4.4041-2.5247,4.2522-2.7146-.0759-.1329-2.6197-.0759-5.3153.4366l-2.5247.6264-4.461,1.6895-1.6705,2.1831,1.5756.7403c1.3098-.0759,3.341-.8922,5.7329-1.8034l2.4108-1.158" style="fill: #1c5329;"/>
      <path id="path3243" d="M217.643,332.91c-1.5376-1.9742-2.8664-3.4169-3.9485-4.2142l-1.2149-.7593-1.158.1329-.1329,1.4237.5125,1.3098,3.322,4.8027.6075.7214.4746.4746c2.1641,1.9932,4.1193,2.0502,4.1193,2.0502,0,0,.038-1.5756-1.2908-3.9295l-.8922-1.4427-.3986-.5695" style="fill: #1c5329;"/>
      <path id="path3247" d="M206.4468,318.6463c.7403,2.8854-1.6136,5.9607-5.2583,6.9098-3.6447.9492-7.2136-.6075-7.9349-3.4359-.7403-2.8854,1.5756-5.9797,5.2583-6.9288,3.6258-.9492,7.2136.5885,7.9349,3.4549" style="fill: #f2bb0e;"/>
    </g>
    <g>
      <path id="path3263" d="M578.5906,314.6048c-4.3471-.6454-7.3085.4556-7.3085.4556,0,0,.9681,2.0122,6.3403,3.5308l.0949.019c3.4359.9871,5.5051.7024,6.6061.1139l1.0441-1.4617-.5125-.7593-5.619-1.7844-.6454-.1139" style="fill: #1c5329;"/>
      <path id="path3251" d="M591.6757,335.0531l-.1139-2.5627-1.5756-.038c-1.101.7024-2.4678,2.4108-3.379,4.8597l-.3986,1.12c-1.101,3.36-1.082,5.9607-1.082,5.9607,0,0,2.5627-2.5627,4.0814-4.5939l.6454-.9302,1.8224-3.8156" style="fill: #1c5329;"/>
      <path id="path3255" d="M577.7173,318.6122c-1.7844,1.2908-6.3593,5.4102-3.6827,11.9593,3.1702,7.5173,10.3268,7.9159,12.1681,7.878l.4176-1.158c.8922-2.4298,2.259-4.1383,3.36-4.8217-.3227-2.221-.8353-5.1444-1.5186-6.9098-.9302-2.2969-2.9803-5.2583-4.1573-6.8339-1.082.5885-3.1512.8542-6.5871-.1139" style="fill: #ea1f29;"/>
      <path id="path3259" d="M599.3867,308.2549c-.7403-1.0061-1.2339-3.4169-1.5186-6.9668l-.038-.6834c-1.9173-1.5756-8.8461-6.3403-15.4712-.9302-6.7959,5.5051-4.3281,12.6047-3.1322,15.0536l5.619,1.7654c1.4997-1.2529,4.1003-3.2271,6.5302-4.7458,2.5247-1.5566,5.8658-2.7905,8.0108-3.4929" style="fill: #ea1f29;"/>
      <path id="path3267" d="M610.9909,330.8067c-2.5058-.0759-6.3783,0-9.3397.6264-3.5119.7783-7.84,2.6197-9.9661,3.6258l-1.8603,3.7966-.6264.9302c1.139,1.3858,5.9037,6.5492,13.8766,5.5431,9.1308-1.1769,11.3898-7.4414,11.8075-8.979l-.6075-.7403-3.2841-4.8027" style="fill: #ea1f29;"/>
      <path id="path3271" d="M621.7465,313.612l-2.3919,1.158c-2.3919.9112-4.48,1.7275-5.7898,1.8034-.5125,1.3858-1.082,3.4359-1.2149,5.7329-.1139,2.202.2468,4.7268.5885,6.3973,1.101.7973,2.3919,2.24,3.9675,4.2142l.4176.5695.8922,1.4237c2.6956.1329,8.7132-.6264,10.0231-9.1498,1.4237-9.5675-5.1824-11.7885-6.4922-12.1492" style="fill: #ea1f29;"/>
      <path id="path3275" d="M620.6855,311.3339c.2468-1.139,1.9553-10.4027-6.3024-14.6549-5.8088-2.9993-10.6685.0949-13.0793,2.24l.2847,1.5946c.3607,2.9044.2658,5.6-.2278,7.1186.6644.5125,3.1512,2.4298,5.9227,3.7397,2.5247,1.158,5.562,2.0502,6.3973,2.278l4.48-1.6895,2.5247-.6264" style="fill: #ea1f29;"/>
      <path id="path3279" d="M601.5849,300.4929l-.2847-1.5946c-.6454-3.0942-2.1261-3.5498-2.1261-3.5498,0,0-1.5186.9112-1.3288,5.2583l.019.6834c.2658,3.5498.7783,5.9417,1.5186,6.9668l1.0631.5885.8542-1.139.0569-.0759c.4936-1.5186.5885-4.2332.2278-7.1376" style="fill: #1c5329;"/>
      <path id="path3283" d="M621.7465,313.612c2.0692-1.101,4.3851-2.5247,4.2902-2.7146-.0949-.1329-2.6956-.0759-5.3532.4366l-2.5247.6264-4.48,1.6895-1.6325,2.1831,1.5186.7403c1.3098-.0759,3.398-.8922,5.7898-1.8034l2.3919-1.158" style="fill: #1c5329;"/>
      <path id="path3287" d="M616.9098,332.91c-1.5566-1.9742-2.8854-3.4169-3.9485-4.2142l-1.1959-.7593-1.1769.1329-.0949,1.4237.4936,1.3098,3.2841,4.8027.6264.7214.4556.4746c2.1831,1.9932,4.1383,2.0502,4.1383,2.0502,0,0,0-1.5756-1.2719-3.9295l-.9112-1.4427-.3986-.5695" style="fill: #1c5329;"/>
      <path id="path3291" d="M605.685,318.6463c.7593,2.8854-1.5946,5.9607-5.2393,6.9098-3.6637.9492-7.1946-.6075-7.9539-3.4359-.7403-2.8854,1.6325-5.9797,5.2773-6.9288,3.6637-.9492,7.1756.5885,7.9159,3.4549" style="fill: #f2bb0e;"/>
    </g>
    <g>
      <path id="path3295" d="M391.8467,152.924l-.1519-2.5627-1.5566-.019c-1.139.6454-2.4678,2.3539-3.398,4.8217l-.4366,1.139c-1.082,3.36-1.0441,5.9227-1.0441,5.9227,0,0,2.5247-2.5058,4.0434-4.5749l.6454-.9302,1.8983-3.7966" style="fill: #1c5329;"/>
      <path id="path3299" d="M377.8942,136.4772c-1.8414,1.2908-6.4542,5.4292-3.7207,11.9593,3.1892,7.5173,10.3078,7.9159,12.1302,7.878l.4176-1.158c.9492-2.4488,2.278-4.1763,3.4169-4.8027-.3607-2.24-.8732-5.1254-1.5566-6.9288-.9112-2.2969-2.9614-5.2583-4.1573-6.8339-1.12.5885-3.1702.8542-6.5302-.1139" style="fill: #ea1f29;"/>
      <path id="path3303" d="M399.5348,126.1486c-.7593-1.0441-1.2908-3.4549-1.5566-6.9858v-.7024c-1.9742-1.5566-8.8841-6.3403-15.4712-.9492-6.8149,5.5241-4.3092,12.6047-3.1512,15.0536l5.581,1.7654c1.5376-1.2149,4.1193-3.1892,6.5492-4.6888,2.5058-1.5756,5.8468-2.7905,8.0488-3.4929" style="fill: #ea1f29;"/>
      <path id="path3307" d="M378.7617,132.4813c-4.3851-.6454-7.3654.4176-7.3654.4176,0,0,1.0061,2.0312,6.3593,3.5498l.1329.038c3.379.9681,5.4292.7024,6.5492.1139l1.0441-1.4997-.5315-.7593-5.6-1.7654-.5885-.0949" style="fill: #1c5329;"/>
      <path id="path3311" d="M411.1183,148.6834c-2.5247-.0569-6.3593-.019-9.3776.6454-3.4929.7593-7.821,2.6197-9.8902,3.5878l-1.8983,3.7966-.6454.9492c1.139,1.3858,5.9037,6.5492,13.8956,5.5051,9.1498-1.139,11.4278-7.4224,11.8264-8.96l-.6075-.7024-3.3031-4.8217" style="fill: #ea1f29;"/>
      <path id="path3315" d="M421.8437,131.4943l-2.3729,1.139c-2.3919.9112-4.461,1.6895-5.7898,1.8034-.4746,1.4047-1.0251,3.4359-1.1769,5.7139-.1519,2.24.2278,4.7458.5315,6.3973,1.12.8353,2.4678,2.24,3.9864,4.2142l.4176.5695.8922,1.4807c2.7146.1139,8.7132-.6834,9.9851-9.1878,1.4807-9.5675-5.1444-11.7885-6.4732-12.1302" style="fill: #ea1f29;"/>
      <path id="path3319" d="M420.794,129.1935c.2468-1.12,2.0122-10.4027-6.2644-14.6549-5.8278-2.9614-10.7064.0949-13.0983,2.24l.2468,1.5946c.3607,2.8854.2658,5.6-.2088,7.1186.6454.5125,3.1892,2.4488,5.9797,3.7397,2.4678,1.158,5.5431,2.0692,6.3593,2.278l4.461-1.6895,2.5247-.6264" style="fill: #ea1f29;"/>
      <path id="path3323" d="M401.6876,118.3521l-.2658-1.5756c-.6644-3.1132-2.1451-3.5688-2.1451-3.5688,0,0-1.4617.8922-1.2908,5.2583v.6834c.2468,3.5498.7783,5.9607,1.5376,7.0047l1.0251.5315.8732-1.12.038-.0759c.4746-1.4997.5695-4.2332.2278-7.1376" style="fill: #1c5329;"/>
      <path id="path3327" d="M421.8437,131.4943c2.0881-1.12,4.4041-2.5247,4.2902-2.7336-.0949-.1519-2.6386-.0759-5.3342.4366l-2.5437.6264-4.442,1.6895-1.6325,2.1641,1.4997.7593c1.3288-.1139,3.398-.8922,5.7898-1.8034l2.3729-1.139" style="fill: #1c5329;"/>
      <path id="path3331" d="M417.0238,150.7583c-1.5186-1.9553-2.8664-3.379-3.9864-4.1953l-1.158-.7403-1.158.1139-.1329,1.4427.5315,1.2908,3.2841,4.8217.6075.7024.4936.4746c2.1451,1.9932,4.0814,2.0881,4.0814,2.0881,0,0,.038-1.6136-1.2529-3.9485l-.9112-1.4807-.3986-.5695" style="fill: #1c5329;"/>
      <path id="path3335" d="M405.8335,136.5344c.7593,2.8664-1.6136,5.9417-5.2583,6.8908-3.6447.9492-7.2325-.5885-7.9539-3.4739-.7593-2.8475,1.6325-5.9417,5.2583-6.8908,3.6447-.9492,7.1946.6264,7.9539,3.4739" style="fill: #f2bb0e;"/>
    </g>
    <g>
      <path id="path3339" d="M192.443,152.924l-.1139-2.5627-1.6136-.019c-1.0631.6454-2.4488,2.3539-3.36,4.8217l-.4366,1.139c-1.0631,3.36-1.0631,5.9227-1.0631,5.9227,0,0,2.5627-2.5058,4.1383-4.5749l.6075-.9302,1.8414-3.7966" style="fill: #1c5329;"/>
      <path id="path3343" d="M178.4792,136.4772c-1.8034,1.2908-6.4163,5.4292-3.7017,11.9593,3.1512,7.5173,10.3458,7.9159,12.1492,7.878l.4366-1.158c.8922-2.4488,2.2969-4.1763,3.341-4.8027-.2658-2.24-.7973-5.1254-1.4807-6.9288-.9681-2.2969-2.9803-5.2583-4.1573-6.8339-1.12.5885-3.1702.8542-6.5871-.1139" style="fill: #ea1f29;"/>
      <path id="path3347" d="M200.1427,126.1486c-.7593-1.0441-1.2529-3.4549-1.5566-6.9858v-.7024c-1.9742-1.5566-8.8841-6.3403-15.4902-.9492-6.758,5.5241-4.2902,12.6047-3.1512,15.0536l5.638,1.7654c1.4997-1.2149,4.0814-3.1892,6.5302-4.6888,2.5247-1.5756,5.8847-2.7905,8.0298-3.4929" style="fill: #ea1f29;"/>
      <path id="path3351" d="M179.3467,132.4813c-4.3661-.6454-7.3275.4176-7.3275.4176,0,0,1.0251,2.0312,6.3403,3.5498l.1139.038c3.4169.9681,5.4671.7024,6.6061.1139l1.0251-1.4997-.5125-.7593-5.6569-1.7654-.5885-.0949" style="fill: #1c5329;"/>
      <path id="path3355" d="M211.7033,148.6834c-2.4868-.0569-6.3214-.019-9.3207.6454-3.4929.7593-7.84,2.6197-9.9471,3.5878l-1.8414,3.7966-.6075.9492c1.082,1.3858,5.8088,6.5492,13.8007,5.5051,9.1498-1.139,11.4468-7.4224,11.8454-8.96l-.6075-.7024-3.322-4.8217" style="fill: #ea1f29;"/>
      <path id="path3359" d="M222.48,131.4943l-2.4108,1.139c-2.3919.9112-4.4231,1.6895-5.7329,1.8034-.5315,1.4047-1.082,3.4359-1.2529,5.7139-.0949,2.24.2847,4.7458.6075,6.3973,1.082.8353,2.3919,2.24,3.9485,4.2142l.3986.5695.9112,1.4807c2.6956.1139,8.7132-.6834,10.0231-9.1878,1.4427-9.5675-5.1634-11.7885-6.4922-12.1302" style="fill: #ea1f29;"/>
      <path id="path3363" d="M221.4187,129.1935c.2278-1.12,1.9932-10.4027-6.2644-14.6549-5.8658-2.9614-10.7064.0949-13.0983,2.24l.2468,1.5946c.3417,2.8854.2658,5.6-.2468,7.1186.7024.5125,3.2271,2.4488,5.9607,3.7397,2.5058,1.158,5.6,2.0692,6.4163,2.278l4.461-1.6895,2.5247-.6264" style="fill: #ea1f29;"/>
      <path id="path3367" d="M202.3085,118.3521l-.2658-1.5756c-.6644-3.1132-2.1451-3.5688-2.1451-3.5688,0,0-1.4617.8922-1.3098,5.2583v.6834c.3037,3.5498.7973,5.9607,1.5566,7.0047l1.0251.5315.8732-1.12.019-.0759c.5315-1.4997.5695-4.2332.2468-7.1376" style="fill: #1c5329;"/>
      <path id="path3371" d="M222.48,131.4943c2.0881-1.12,4.4041-2.5247,4.2522-2.7336-.0759-.1519-2.6197-.0759-5.3153.4366l-2.5247.6264-4.461,1.6895-1.6705,2.1641,1.5756.7593c1.3098-.1139,3.341-.8922,5.7329-1.8034l2.4108-1.139" style="fill: #1c5329;"/>
      <path id="path3375" d="M217.643,150.7583c-1.5376-1.9553-2.8664-3.379-3.9485-4.1953l-1.2149-.7403-1.158.1139-.1329,1.4427.5125,1.2908,3.322,4.8217.6075.7024.4746.4746c2.1641,1.9932,4.1193,2.0881,4.1193,2.0881,0,0,.038-1.6136-1.2908-3.9485l-.8922-1.4807-.3986-.5695" style="fill: #1c5329;"/>
      <path id="path3379" d="M206.4468,136.5344c.7403,2.8664-1.6136,5.9417-5.2583,6.8908-3.6447.9492-7.2136-.5885-7.9349-3.4739-.7403-2.8475,1.5756-5.9417,5.2583-6.8908,3.6258-.9492,7.2136.6264,7.9349,3.4739" style="fill: #f2bb0e;"/>
    </g>
    <g>
      <path id="path3383" d="M591.6757,152.924l-.1139-2.5627-1.5756-.019c-1.101.6454-2.4678,2.3539-3.379,4.8217l-.3986,1.139c-1.101,3.36-1.082,5.9227-1.082,5.9227,0,0,2.5627-2.5058,4.0814-4.5749l.6454-.9302,1.8224-3.7966" style="fill: #1c5329;"/>
      <path id="path3387" d="M577.7173,136.4772c-1.7844,1.2908-6.3593,5.4292-3.6827,11.9593,3.1702,7.5173,10.3268,7.9159,12.1681,7.878l.4176-1.158c.8922-2.4488,2.259-4.1763,3.36-4.8027-.3227-2.24-.8353-5.1254-1.5186-6.9288-.9302-2.2969-2.9803-5.2583-4.1573-6.8339-1.082.5885-3.1512.8542-6.5871-.1139" style="fill: #ea1f29;"/>
      <path id="path3391" d="M599.3867,126.1486c-.7403-1.0441-1.2339-3.4549-1.5186-6.9858l-.038-.7024c-1.9173-1.5566-8.8461-6.3403-15.4712-.9492-6.7959,5.5241-4.3281,12.6047-3.1322,15.0536l5.619,1.7654c1.4997-1.2149,4.1003-3.1892,6.5302-4.6888,2.5247-1.5756,5.8658-2.7905,8.0108-3.4929" style="fill: #ea1f29;"/>
      <path id="path3395" d="M578.5906,132.4813c-4.3471-.6454-7.3085.4176-7.3085.4176,0,0,.9681,2.0312,6.3403,3.5498l.0949.038c3.4359.9681,5.5051.7024,6.6061.1139l1.0441-1.4997-.5125-.7593-5.619-1.7654-.6454-.0949" style="fill: #1c5329;"/>
      <path id="path3399" d="M610.9909,148.6834c-2.5058-.0569-6.3783-.019-9.3397.6454-3.5119.7593-7.84,2.6197-9.9661,3.5878l-1.8603,3.7966-.6264.9492c1.139,1.3858,5.9037,6.5492,13.8766,5.5051,9.1308-1.139,11.3898-7.4224,11.8075-8.96l-.6075-.7024-3.2841-4.8217" style="fill: #ea1f29;"/>
      <path id="path3403" d="M621.7465,131.4943l-2.3919,1.139c-2.3919.9112-4.48,1.6895-5.7898,1.8034-.5125,1.4047-1.082,3.4359-1.2149,5.7139-.1139,2.24.2468,4.7458.5885,6.3973,1.101.8353,2.3919,2.24,3.9675,4.2142l.4176.5695.8922,1.4807c2.6956.1139,8.7132-.6834,10.0231-9.1878,1.4237-9.5675-5.1824-11.7885-6.4922-12.1302" style="fill: #ea1f29;"/>
      <path id="path3407" d="M620.6855,129.1935c.2468-1.12,1.9553-10.4027-6.3024-14.6549-5.8088-2.9614-10.6685.0949-13.0793,2.24l.2847,1.5946c.3607,2.8854.2658,5.6-.2278,7.1186.6644.5125,3.1512,2.4488,5.9227,3.7397,2.5247,1.158,5.562,2.0692,6.3973,2.278l4.48-1.6895,2.5247-.6264" style="fill: #ea1f29;"/>
      <path id="path3411" d="M601.5849,118.3521l-.2847-1.5756c-.6454-3.1132-2.1261-3.5688-2.1261-3.5688,0,0-1.5186.8922-1.3288,5.2583l.019.6834c.2658,3.5498.7783,5.9607,1.5186,7.0047l1.0631.5315.8542-1.12.0569-.0759c.4936-1.4997.5885-4.2332.2278-7.1376" style="fill: #1c5329;"/>
      <path id="path3415" d="M621.7465,131.4943c2.0692-1.12,4.3851-2.5247,4.2902-2.7336-.0949-.1519-2.6956-.0759-5.3532.4366l-2.5247.6264-4.48,1.6895-1.6325,2.1641,1.5186.7593c1.3098-.1139,3.398-.8922,5.7898-1.8034l2.3919-1.139" style="fill: #1c5329;"/>
      <path id="path3419" d="M616.9098,150.7583c-1.5566-1.9553-2.8854-3.379-3.9485-4.1953l-1.1959-.7403-1.1769.1139-.0949,1.4427.4936,1.2908,3.2841,4.8217.6264.7024.4556.4746c2.1831,1.9932,4.1383,2.0881,4.1383,2.0881,0,0,0-1.6136-1.2719-3.9485l-.9112-1.4807-.3986-.5695" style="fill: #1c5329;"/>
      <path id="path3423" d="M605.685,136.5344c.7593,2.8664-1.5946,5.9417-5.2393,6.8908-3.6637.9492-7.1946-.5885-7.9539-3.4739-.7403-2.8475,1.6325-5.9417,5.2773-6.8908,3.6637-.9492,7.1756.6264,7.9159,3.4739" style="fill: #f2bb0e;"/>
    </g>
    <g>
      <path id="path3427" d="M391.8467,672.2966l-.1519-2.5627h-1.5566c-1.139.6644-2.4678,2.3349-3.398,4.8407l-.4366,1.139c-1.082,3.341-1.0441,5.9037-1.0441,5.9037,0,0,2.5247-2.5058,4.0434-4.5939l.6454-.9492,1.8983-3.7776" style="fill: #1c5329;"/>
      <path id="path3431" d="M377.8942,655.8706c-1.8414,1.2908-6.4542,5.3912-3.7207,11.9403,3.1892,7.5363,10.3078,7.9159,12.1302,7.897l.4176-1.139c.9492-2.5058,2.278-4.1763,3.4169-4.8217-.3607-2.221-.8732-5.1444-1.5566-6.9098-.9112-2.3159-2.9614-5.2583-4.1573-6.8719-1.12.6075-3.1702.8542-6.5302-.0949" style="fill: #ea1f29;"/>
      <path id="path3435" d="M399.5348,645.542c-.7593-1.0631-1.2908-3.4549-1.5566-7.0047v-.6644c-1.9742-1.5946-8.8841-6.3403-15.4712-.9681-6.8149,5.5431-4.3092,12.5668-3.1512,15.0536l5.581,1.7654c1.5376-1.2529,4.1193-3.2081,6.5492-4.7078,2.5058-1.5376,5.8468-2.7905,8.0488-3.4739" style="fill: #ea1f29;"/>
      <path id="path3439" d="M378.7617,651.8519c-4.3851-.6454-7.3654.4176-7.3654.4176,0,0,1.0061,2.0312,6.3593,3.5878l.1329.019c3.379.9492,5.4292.6834,6.5492.0949l1.0441-1.4617-.5315-.7973-5.6-1.7654-.5885-.0949" style="fill: #1c5329;"/>
      <path id="path3443" d="M411.1183,668.0615c-2.5247-.0759-6.3593,0-9.3776.6454-3.4929.7214-7.821,2.6197-9.8902,3.5878l-1.8983,3.7966-.6454.9302c1.139,1.4047,5.9037,6.5681,13.8956,5.562,9.1498-1.1769,11.4278-7.4603,11.8264-8.979l-.6075-.7403-3.3031-4.8027" style="fill: #ea1f29;"/>
      <path id="path3447" d="M421.8437,650.8839l-2.3729,1.101c-2.3919.9492-4.461,1.7464-5.7898,1.8414-.4746,1.4237-1.0251,3.4169-1.1769,5.7139-.1519,2.24.2278,4.7268.5315,6.3973,1.12.8163,2.4678,2.24,3.9864,4.1953l.4176.5885.8922,1.4617c2.7146.0949,8.7132-.6644,9.9851-9.1878,1.4807-9.5485-5.1444-11.7695-6.4732-12.1112" style="fill: #ea1f29;"/>
      <path id="path3451" d="M420.794,648.5831c.2468-1.12,2.0122-10.4217-6.2644-14.6929-5.8278-2.9424-10.7064.1329-13.0983,2.2969l.2468,1.5756c.3607,2.9044.2658,5.6-.2088,7.1186.6454.5505,3.1892,2.4488,5.9797,3.7207,2.4678,1.1959,5.5431,2.0881,6.3593,2.2969l4.461-1.6895,2.5247-.6264" style="fill: #ea1f29;"/>
      <path id="path3455" d="M401.6876,637.7514l-.2658-1.5566c-.6644-3.1322-2.1451-3.5688-2.1451-3.5688,0,0-1.4617.8732-1.2908,5.2393v.6644c.2468,3.5498.7783,5.9607,1.5376,7.0047l1.0251.5505.8732-1.158.038-.038c.4746-1.5376.5695-4.2142.2278-7.1376" style="fill: #1c5329;"/>
      <path id="path3459" d="M421.8437,650.8839c2.0881-1.139,4.4041-2.5627,4.2902-2.7525-.0949-.1519-2.6386-.0569-5.3342.4556l-2.5437.6264-4.442,1.6895-1.6325,2.1641,1.4997.7593c1.3288-.0949,3.398-.8922,5.7898-1.8414l2.3729-1.101" style="fill: #1c5329;"/>
      <path id="path3463" d="M417.0238,670.1325c-1.5186-1.9553-2.8664-3.379-3.9864-4.1953l-1.158-.7214-1.158.0949-.1329,1.4427.5315,1.3098,3.2841,4.8027.6075.7403.4936.4366c2.1451,1.9742,4.0814,2.0692,4.0814,2.0692,0,0,.038-1.5946-1.2529-3.9295l-.9112-1.4617-.3986-.5885" style="fill: #1c5329;"/>
      <path id="path3467" d="M405.8335,655.9181c.7593,2.8475-1.6136,5.9417-5.2583,6.9288-3.6447.8922-7.2325-.6264-7.9539-3.4929-.7593-2.8664,1.6325-5.9607,5.2583-6.8908,3.6447-.9492,7.1946.5885,7.9539,3.4549" style="fill: #f2bb0e;"/>
    </g>
  </g>
  <g>
    <path id="path3471" d="M569.0725,540.7213s7.7831-10.9532-19.4766-21.9444c-20.179-8.1247-47.9702-6.4163-65.6624-8.8651-14.8068-2.0692-16.4583-5.4102-15.623-9.1119,1.7654-8.1817,15.6041-2.7905,24.2414,1.8414,9.3586,5.0305,26.0258,6.682,38.1749-4.5749,4.3281-4.0624,10.4217-5.4861,10.4217-5.4861,0,0-7.1946-4.5559-13.0793-.4936-2.4298,1.6515-4.3661,3.36-9.3017,3.7586-8.6753.6454-10.2888-2.1261-10.2888-2.1261,0,0,4.4231,2.9803,15.3003-2.5817,14.1234-7.2136,5.638-23.0264,5.638-23.0264,0,0,.9302,5.657-5.0305,9.5485-8.3146,5.4861-15.3003.4746-15.3003.4746,0,0,3.2271,1.6136,8.1627-.2468,6.1885-2.3919,8.2197-5.6,6.1315-9.7953-.9112-1.7844-3.8156-3.9295-3.8156-3.9295,0,0,6.7959,8.96-20.0271,7.0807-13.5539-.9492-18.2617,12.7186-18.2617,12.7186,0,0-6.2075-1.5566-10.5736-.0949.2847-2.0881-.019-5.657-1.101-7.802-1.4237,7.0807-6.8339,11.5986-9.3017,14.617-2.4868,3.0183-7.859,10.8963-1.101,20.16,6.682,7.802,18.8502,8.941,26.5383,9.5485,11.4278.8542,30.3349,1.8793,47.021,4.1763,22.5708,3.1132,18.6603,13.9336,15.8888,17.2746-2.8475,3.4739-8.2386,3.6447-23.9376-1.8224-15.661-5.5051-32.0434-15.2814-64.8081-13.9905-45.1797,1.7464-77.318,34.7959-93.8522,33.0115,0,0,.8732,3.9675.5126,6.663-1.4617,11.4468-11.8834,17.6353-11.8834,17.6353l-1.4617-2.24c-1.063.1519-.0759,2.5058-3.7776,5.2583-3.5498,2.6576-5.3722,5.6-6.663,10.9153,0,0-1.8414-3.6637-2.9424-.3986-1.4427,4.2332-3.6637,4.3851-4.8217,4.8786l-1.0251-2.1071c-1.4617.0759-2.0122,9.1688-17.8061,7.6692l-1.177.2847c-11.5797,1.9932-13.5919-9.3966-17.7112-13.3641-2.6766-2.5817-5.9417,2.0881-5.9417,2.0881,0,0-2.221-2.3919-1.9363-6.8149.3037-4.6508,1.158-6.2075-.7024-9.4156-1.4237-2.4108-7.4603-7.5363-5.2014-16.2495-2.7526-.0569-8.2576-2.0692-10.4976-18.2617l1.9363.2278c-.3986-2.4678-2.5627-3.379-2.9993-6.2264-.6074-4.1763-1.139-12.2631,1.139-15.1105,3.4929-4.3661,13.1363-5.8468,8.5424-14.3702l-1.4997,2.3729-2.259.9681-2.8854-3.1132,1.5946-2.7715.1329-.1898c-1.7275-.1519-3.2271.4556-4.1193.8542.2088-1.8603,3.322-11.6556-4.9736-13.8766l-.5695,3.8915-1.8224,1.6705-3.7776-1.8983.6074-3.1892.3417-1.2529c-8.0109.9871-6.3783,11.4088-6.2644,13.0224-.2088-2.3539-5.0685-8.96-9.7573-5.9797l-.4746.3797,1.5376,1.5946.4556,2.4108-3.5688,2.24-2.4298-2.1071-.2088-.2658c-1.6705,2.1831-1.4237,6.0936,3.0753,9.5105,6.663,5.0305,8.922,25.4942,7.897,28.1708-1.4047,3.6447-4.9735-1.5376-4.9735-1.5376,0,0-.6074,4.7078,2.7526,9.4915,5.9417,8.5044,7.7261,12.2441,3.2841,10.8203l-2.7715-1.7654s.2658,4.2332,5.6759,8.6563c2.1451,1.7464,1.8414,2.7336.2847,2.5627-1.7844-.2468-3.1322-1.3668-3.1322-1.3668,0,0,1.4807,3.8725,4.2142,7.5553,4.5939,6.1505,8.7512,8.7132,8.7512,8.7132,0,0-5.1634-.4746-12.6237-4.7647-11.1241-6.4732-6.4353-11.0102-9.7763-18.6983-3.1512-7.3464-5.2203-8.5424-8.5234-8.979h-.3037l.4366,1.6136-.6454,2.3919-4.1953.4176-1.1959-2.9993c-3.1322,1.5946-3.0373,4.9356-2.7526,6.4922-2.1451-2.3539-6.2075-5.619-9.017-6.0936-1.7085-.3227-3.7586.1519-5.657,1.12l-.2847.0759.5885.4176,1.158,2.1641-2.8095,3.1702-2.9234-1.3478-.3986-.2847c-1.9553,3.5119-1.3478,10.1369,10.137,13.8766,0,0-5.543.8353-7.2895,4.8786l3.8346.6075,1.6515,1.8603-1.9742,3.7207-3.1702-.5695-.5126-.2088c1.3098,5.7898,5.9986,6.6251,9.9471,6.6251,17.1417-.2278,30.4678,8.0298,30.4678,8.0298,0,0-3.7397.2088-5.7898,2.8664-2.1261,2.7715-1.6326,4.3661-1.6326,4.3661,0,0,1.4997-1.4047,5.8088-2.1451,4.537-.7783,5.4291.8542,5.4291.8542,0,0-6.6061,2.4298-4.0434,9.3207,0,0,2.6576-2.9234,6.777-4.3851,3.417-1.139,7.3654-.9112,8.941,1.3098,2.1451,3.1132-7.0237,6.1505-7.0237,6.1505,6.3973,3.8156,20.3688,1.9742,20.3688,1.9742,0,0-9.7763,1.7464-9.7003,8.1247,0,0,6.0746-4.6508,17.9959,0,18.0529,6.9858,40.1681,10.3458,69.0983-1.3858,36.4475-14.8068,37.4346-46.2807,88.1383-63.0427,1.6515,2.4488,13.0603,13.1363,27.3546,18.4136,11.4847,4.3092,27.6963,7.1756,32.6508,8.3336,7.1376,1.7464,19.7803,4.442,12.2061,18.2237-3.6068,6.4163-6.9098,8.3525-9.9851,10.6875-.5885-.1139-4.3471-1.1769-9.7573-3.1132-3.1702-1.1769-5.4861-.4746-6.4922,1.7085l2.4108.4176,1.5376,1.6136-1.6325,3.4549-2.8285-.4556-.2278-.0569c.3797,3.8725,3.6258,4.2902,3.6258,4.2902,0,0-3.7397,1.4047-3.7017,4.9166l1.9553-.5125,2.1261.6454.1708,3.8156-2.7525.9492.3227.2278c2.221,2.7905,8.6753.7024,8.6753.7024,0,0-1.4997,3.341.5315,5.7139l1.3668-2.5627,2.0312-.9112,2.7146,2.6576-1.3478,2.5817-.3417.4176,1.12.1139c3.1322-.4556,7.5932-3.322,9.6814-10.099,2.5627-7.7641,5.0875-9.4536,5.0875-9.4536,0,0,6.5681-6.1885,4.0624,4.8407,6.4922-1.7085,5.6949-8.8271,5.6949-8.8271l6.7959,1.139c2.1831-1.7275.0569-6.8719,2.5627-10.4976,2.7905-4.0054,4.3851.6454,3.36,3.8915,0,0,3.9864-1.2339,4.1763-6.3973.2088-3.322-1.139-7.2136,2.0122-10.08,2.3539-1.9932,2.9424.8922,2.259,3.6068,0,0,3.0942.1329,3.6258-5.2773.3037-3.2651-.4746-4.2712.4936-4.7078l2.0122,2.6576s2.7525-6.1885-2.9234-9.9092c-9.5295-6.2075-33.7519-1.9553-48.2169-24.7539-5.2583-8.3715-1.3668-12.2061-1.3668-12.2061,0,0,25.779,12.1492,39.6556,10.1559,16.819-2.4108,16.8949-11.4278,16.8949-11.4278,0,0,2.7525.5125.3607,5.9797,0,0,3.0563-.6644,4.3281-4.8786,2.4108-8.0868-2.6766-13.0983-2.6766-13.0983,4.0814-.2848,4.1763,4.5939,4.1763,4.5939" style="fill: #2b57ac;"/>
    <path id="path3475" d="M214.19,585.3182l1.9742-3.7207-1.6705-1.8603-3.8346-.6075-.4746.019c-5.2014.6834-6.6441,4.518-7.4414,6.5681,0,0,3.2271-2.7146,7.7451-1.1769l.5125.2088,3.1892.5695" style="fill: #ea1f29;"/>
    <path id="path3479" d="M211.1471,562.0089l2.8285-3.1892-1.1959-2.1451-.5695-.4176-3.4739-1.1769c-5.2014-.6264-7.4983,2.7525-8.7702,4.518,0,0,3.7966-1.8603,7.859.7783l.3797.2847,2.9424,1.3478" style="fill: #ea1f29;"/>
    <path id="path3483" d="M231.1191,557.6446l4.1953-.4176.6454-2.3919-.4366-1.5946-1.4427-2.3159c-3.36-4.0244-7.3275-3.1322-9.5295-2.6386,0,0,4.4041,1.2719,5.3722,6.3783l1.1959,2.9803" style="fill: #ea1f29;"/>
    <path id="path3487" d="M274.9777,510.339l2.8854,3.0942,2.278-.9492,1.4997-2.3729.4746-1.5376c1.101-5.1064-2.0312-7.7261-3.7586-9.1308,0,0,1.6325,4.0814-1.6515,7.9349l-.1139.1708-1.6136,2.7905" style="fill: #ea1f29;"/>
    <path id="path3491" d="M261.4504,498.0076l3.7776,1.8983,1.8224-1.6705.5885-3.8915-.0569-.3797c-.6644-5.2014-4.518-6.6441-6.5492-7.3844,0,0,2.4298,2.8475,1.3858,6.9858l-.3607,1.2529-.6075,3.1892" style="fill: #ea1f29;"/>
    <path id="path3495" d="M244.3295,507.2503l3.5878-2.259-.4936-2.3919-1.5186-1.6136-1.9173-1.12c-4.8027-2.0312-7.9729.5505-9.7193,1.8983,0,0,4.3092-.7783,7.4224,3.0942l.2088.2658,2.4298,2.1261" style="fill: #ea1f29;"/>
    <path id="path3499" d="M493.5559,622.9293l1.6515-3.4549-1.5376-1.5946-2.3919-.4366-1.5186.0949c-4.6319.7403-5.8088,4.2142-6.4353,6.0936,0,0,2.9234-2.6386,7.1946-1.1959l.2278.0569,2.8095.4366" style="fill: #ea1f29;"/>
    <path id="path3503" d="M494.5184,631.7774l-2.1261-.6644-1.9363.5315-1.6515.9681c-3.7397,2.8475-3.1512,6.4353-2.7905,8.4285,0,0,1.3288-3.8915,5.9227-4.499h.019l2.7336-.9681-.1708-3.7966" style="fill: #ea1f29;"/>
    <path id="path3507" d="M507.5768,642.3679l-2.6956-2.6576-2.0312.8922-1.3668,2.5817-.2658,1.0061c-.7973,4.5939,2.1071,6.8719,3.7017,8.1058,0,0-1.4997-3.4739.9681-6.9478l.3607-.4176,1.3288-2.5627" style="fill: #ea1f29;"/>
    <path id="path3511" d="M495.1201,592.6684c-29.3858-5.6-35.4793-9.3017-47.4197-20.8054-1.2149.5885-5.8658,8.8841,6.6441,20.8054,4.8976,4.6888,9.7003,6.0936,9.7003,6.0936,0,0-8.6183-1.5186-19.7044-.4556-5.1824-1.4427-8.96-8.0488-15.8888-10.7254-2.278-.8732-4.2142-.8732-5.7329-.1139l2.0312,1.3098.8353,2.0881-2.7525,2.5437-2.5058-1.4237-.6264-.5505c-.3986,1.8793.1898,4.1193,2.4868,6.4542-3.1512-.1139-6.2454,1.5566-7.0237,5.2014l2.9614-.6075,1.9742.9681-.3417,3.7966-2.8095.5315-1.4807.1708.1898.3986c2.183,6.5112,12.1302,1.7085,12.1302,1.7085,0,0-5.0685,3.7017-2.297,8.1627l1.139-1.7844,2.0122-.9302,2.7146,2.6766-1.3668,2.5437-.6264.9112c6.9478,2.6766,12.5478-7.859,12.5478-8.1817-.2468,7.6312,5.7708,9.3776,5.7708,9.3776,0,0-.8353-3.3031,2.278-5.4292,3.5308-2.3729,8.8271-1.7464,9.2827-1.7844-.9681,3.8536.4746,5.619,2.6007,6.2834.5315-8.1247,15.699-8.3905,15.699-8.3905.8732,3.1512,4.3092,4.2332,4.3092,4.2332,0,0-.1519-4.4041,3.0563-6.8339,3.2841-2.5437,8.7322-2.6576,14.4841-5.8658,6.7959-3.7586,5.3912-11.0671-4.2712-12.3769" style="fill: #2b57ac;"/>
    <path id="path3515" d="M431.3561,618.1721l-2.7336-2.6766-1.9932.9492-1.139,1.7654-.4936,1.7844c-.8163,4.6319,2.0881,6.8908,3.6447,8.1058,0,0-1.3478-3.1512.7214-6.4732l.6264-.8922,1.3668-2.5627" style="fill: #ea1f29;"/>
    <path id="path3519" d="M419.7576,607.2341l.3417-3.7966-1.9742-.9681-2.9614.6075-.8353.4176c-4.0814,2.3159-4.0054,5.9797-3.9675,7.9539,0,0,1.5186-2.8664,5.1064-3.4929l1.4807-.1708,2.8095-.5505" style="fill: #ea1f29;"/>
    <path id="path3523" d="M422.8251,593.4182l2.7715-2.5627-.8353-2.0692-2.0312-1.3098-1.4427-.4746c-4.5939-.9871-6.9668,1.8224-8.2766,3.322,0,0,3.379-1.3098,6.701,1.12l.6264.5505,2.4868,1.4237" style="fill: #ea1f29;"/>
    <path id="path3527" d="M348.9753,535.7004l-.1708.3986c-.2468.6644-2.6197,5.9037-7.8969,6.4542l-.3227.0569c-3.379.2847-6.6441-2.0122-6.6441-2.0122,0,0-.5315-.1898-.9871,3.8156-.3227,3.2461-2.3159,3.322-2.3159,3.322,0,0-.4936-4.7647.6264-8.2197,1.4427-4.3661,5.4861-4.2332,5.4861-4.2332h.0759l-.5885,2.1071c.1708,1.8414,1.8224,3.2271,3.7017,3.1322,1.8983-.1708,3.3031-1.8224,3.1322-3.7207l-.4936-1.4617h6.1315l.4176-.0569-.1519.4176ZM330.201,567.497c-4.1193,3.5119-3.398,8.8651-4.2712,12.5668-1.12,4.461-5.1634,6.6441-9.6434,5.7139-3.8725-.6264-7.5363-2.9424-7.84-7.0237-.3417-4.6888,7.3844-10.8203,2.4488-16.6481-4.0244-4.8217-3.7776-7.0617-3.7776-7.0617,0,0,1.0441,1.5186,3.6827,2.8854.9492.4556,8.8271,4.1383,10.3837-1.9173l-1.7654-3.1322-1.8414-1.3288-.2278-3.0373s2.1641,2.8475,5.9986,3.4929c3.9295.6264,7.2895-1.12,7.2895-1.12,0,0,.8732,2.7336-2.278,3.1512-1.6895.2278-4.1953.3417-4.518,2.4678-.9871,7.0427,9.1878,5.5051,12.2441,5.0495,2.4488-.4366,3.6258-.7593,3.6258-.7593-2.0692,2.9614-5.7708,3.4929-9.5105,6.701M306.1115,527.8604v-.8732l.3607.2278,5.638,2.3349-1.0441,1.158c-.8353,1.7085-.1898,3.7586,1.5186,4.6319l4.5939-1.4807.2658-2.1451h.038s3.8346,1.4427,3.4739,6.0366c-.2847,3.6068-2.5627,7.821-2.5627,7.821,0,0-1.8603-.8353-.8922-3.9485,1.139-3.8915.5505-3.9105.5505-3.9105,0,0-3.8725.8732-6.8719-.6834l-.3037-.1898c-4.461-2.9614-4.6319-8.6753-4.5939-9.3776M368.5088,535.1878c1.2719-10.5925-6.0746-9.8332-6.0746-9.8332,0,0,2.8854-2.0881,3.9105-5.8658,1.7085-6.5302-2.1261-15.1295-2.1261-15.1295,0,0-4.0244,7.1186-8.7702,2.0881,0,0,2.6766-2.8475,2.202-9.2068-.5125,1.8034-15.2814,13.0034-19.4766-7.0427-8.3525,1.8414-7.6122,9.9851-12.7756,9.3397-2.7525-.3037-5.5051-2.5058-3.4169-7.7451,0,0-7.5553.3797-8.6563,8.2386-1.3858,9.7193-6.1315-3.2651-12.5668-2.7905-.0759,0-4.7837,5.1254-4.499,15.9837-5.8278.2278-8.4475,4.8027-9.0169,12.0732-1.5946,20.6915-7.0617,13.8576-6.9858,14.2563,1.8034,12.7186,8.941,5.9986,8.941,5.9986-1.2339,8.8461-9.2258,4.0054-9.2258,4.0054,2.3349,13.5539,8.0108,9.0929,8.0108,9.0929-2.5817,11.3139,1.7085,14.2373,3.2651,16.4393,1.9553,2.7525,2.8664,3.8725,2.1451,8.7322-.6644,4.3661-.3797,5.9227-.3797,5.9227,0,0,3.398-3.4549,5.8658-.8732,3.7966,3.9864,6.0556,16.0217,14.6929,14.503,0,0-1.0441-5.2583.8353-5.2583l2.3729,4.6129c2.3349.2847,8.9031,1.2529,12.5098-3.379,2.1641-2.7905,2.7146-6.72,4.9736-6.5492,1.7085.1519,1.8983,3.398,1.8983,3.398,1.5376-.9302,1.8414-1.7844,2.5437-5.562.8542-4.6698,3.2081.2847,3.2081.2847.6075-3.341,2.3729-6.4732,5.619-8.5803,4.0814-2.5817,2.9044-9.7003,5.2963-11.4278,2.6197-1.9173,3.2461,5.6759,3.2461,5.6759,0,0,8.8651-6.8339,5.7708-18.6224-1.3858-5.2773-2.8854-9.7383-1.1959-10.1939,1.6136-.3797,1.2908,4.7078,4.8027,6.758,2.4488,1.4617,6.2644-.6264,6.2644-.6264-4.518-4.9925-3.8156-13.5349-3.2081-18.7173" style="fill: #2b57ac;"/>
    <path id="path3531" d="M315.4059,583.2605c8.7322,2.259,8.8651-6.8149,8.979-8.5424.5885-9.2447,6.9478-10.0041,8.0298-11.0102-2.9614.5695-8.96.3797-10.8773-3.1132-2.0502,1.139-5.5051,1.7275-9.4915-.019l2.24,3.7776c.8163,2.278.0949,4.9925-.8163,7.1376-.8542,2.0692-6.0176,9.7193,1.9363,11.7695" style="fill: #ea1f29;"/>
  </g>
  <g>
    <path id="path3535" d="M546.2187,428.7915c-70.5031-2.3539-88.3092-22.419-88.3092-22.419,0,0-8.0678,13.3831,24.2793,27.5254,0,0-10.9532-1.8034-17.0278-2.0502-7.2136-.3797-14.8637,1.0251-14.8637,1.0251,0,0-8.1437-7.4224-13.8576-9.5105-1.8603-.6454-4.8976-1.5186-7.5742.0949l2.221,1.3288,1.0251,2.202-2.9614,2.9424-2.7905-1.4997-.9302-.7024c-1.4427,3.8915,1.12,6.5302,2.8475,7.5932-8.1817,1.7654-10.5925,3.8346-10.6685,8.0108l2.6197-.6644,2.2969.8542-.038,4.1763-3.0373.8732-.6644.1139c1.7085,2.9424,5.3912,4.461,10.5546,2.7146,2.3729-.7973,2.9803-1.1959,2.9803-1.1959,0,0-4.48,5.0875-2.5817,9.9471l1.5756-1.7085,2.3349-.5885,2.3919,3.4549-1.9932,2.4488-.6454.5885,2.1071.7214c4.518,1.2908,8.2766-2.5247,11.3519-6.2834,6.1885-7.4983,12.282-5.2203,12.282-5.2203-4.1573,4.1193-.3037,9.0929-.3037,9.0929,0,0,3.398-7.9729,8.979-5.7329-1.101,4.8597,3.7397,7.5932,3.7397,7.5932,0,0,2.9044-7.802,6.6631-7.802,4.9736,0,2.4488,7.5173,2.4488,7.5173,0,0,2.6956-.3227,6.9668-4.5939,2.8095-2.7905,5.2014-5.8658,10.9722-5.4292-.1708.8922.7403,6.3214,5.7708,8.7322-.1139-18.6414,26.1966-21.1471,30.5437-22.0014,12.6047-2.4678,11.2949-12.1492,11.2949-12.1492" style="fill: #2b57ac;"/>
    <path id="path3539" d="M429.1504,429.9249l2.9424-2.9424-.9871-2.202-2.24-1.3288-1.6515-.5125c-5.0685-.9112-7.5742,2.278-8.96,4.0054,0,0,3.5688-1.4997,7.1756.7783l.9302.7024,2.7905,1.4997" style="fill: #ea1f29;"/>
    <path id="path3543" d="M422.4949,447.6911l.019-4.1763-2.278-.8542-2.6197.6644-1.3858.7783c-4.2712,2.9044-3.8346,6.8908-3.5878,9.0739,0,0,1.5566-3.7776,6.1315-4.48l.7024-.1139,3.0183-.8922" style="fill: #ea1f29;"/>
    <path id="path3547" d="M436.0393,461.3152l-2.3729-3.4739-2.3729.6264-1.5566,1.6895-.9302,1.7654c-1.8034,4.8217.8732,7.8969,2.2969,9.4725,0,0-.8732-3.8915,2.278-7.0617l.6644-.5695,1.9932-2.4488" style="fill: #ea1f29;"/>
    <path id="path3551" d="M300.956,404.6508c9.7193,3.379,10.7254-6.9288,11.0292-8.8841,1.4807-10.4597,8.8081-10.7254,10.1369-11.7885-3.4359.3986-10.2698-.3797-12.1302-4.5369-2.4108,1.082-6.3593,1.4807-10.7824-.8353l2.221,4.442c.7403,2.6956-.3607,5.6949-1.5566,8.0868-1.1959,2.202-7.7451,10.4407,1.082,13.5159" style="fill: #ea1f29;"/>
    <path id="path3555" d="M343.4874,353.6663l-.2278.3986c-.3417.7214-3.4929,6.4542-9.5485,6.6441l-.3986.019c-3.8346,0-7.3844-2.8664-7.3844-2.8664,0,0-.5695-.2847-1.4427,4.2332-.6644,3.6637-2.9614,3.5688-2.9614,3.5688,0,0-.1329-5.4481,1.4617-9.3017,2.0312-4.8407,6.682-4.3092,6.682-4.3092h.0759l-.8732,2.3159c0,2.1641,1.7844,3.8915,3.8915,3.8915,2.202,0,3.9485-1.7275,3.9485-3.8915l-.4746-1.7085,7.0047.5125h.4936l-.2468.4936ZM319.227,388.0826c-5.0115,3.6637-4.6698,9.7763-6.0176,13.8956-1.6705,4.9736-6.4353,7.0617-11.4468,5.638-4.3661-1.0631-8.3146-4.0434-8.2956-8.7132.038-5.3342,9.3966-11.6556,4.3281-18.7363-4.1763-5.8088-3.7017-8.3525-3.7017-8.3525,0,0,1.101,1.8034,3.9864,3.6258,1.0251.5885,9.6434,5.543,11.9214-1.2149.6075-1.7275-.6075-2.8285-1.7275-3.7586l-1.9173-1.6705.019-3.4549s2.221,3.4169,6.4732,4.48c4.442,1.101,8.4095-.5695,8.4095-.5695,0,0,.7783,3.1892-2.8475,3.379-1.9932.0759-4.8597,0-5.4102,2.3349-1.7464,7.9729,9.9471,7.1186,13.478,6.8719,2.8475-.2278,4.1763-.5125,4.1763-.5125-2.6386,3.2081-6.9098,3.4739-11.4278,6.758M295.4413,340.8148l.019-.4936.0759-.5125.3986.2468,6.2264,3.2081-1.2908,1.2529c-1.139,1.8224-.5695,4.2522,1.2908,5.4102,1.8034,1.101,4.2142.5505,5.3532-1.2719l.4936-2.4488.0569.019s4.2332,2.0312,3.341,7.2136c-.6075,4.0624-3.6258,8.6563-3.6258,8.6563,0,0-1.9742-1.12-.6075-4.5559,1.6325-4.2902.9681-4.4041.9681-4.4041,0,0-4.461.5885-7.7451-1.4427l-.3417-.2278c-5.0305-3.322-4.6888-9.8712-4.6129-10.6495M366.5898,340.9666c2.9614-7.1946-.6454-20.3119-.6454-20.3119,0,0-5.8847,9.3207-10.8773,4.3092-4.5939-4.6129.3037-11.9973.3037-11.9973-5.6759-1.8414-10.4217,5.9227-17.4644,2.0692-4.9166-2.6766.8542-11.5607.8542-11.5607,0,0-6.3973-.2088-11.4847,2.278-4.9546,2.4108-7.1756,4.4041-10.6115,4.3092-4.7078-.1708-3.0373-7.9159-3.0373-7.9159,0,0-5.6-.1519-8.922,5.619-3.3031,5.6949-6.9478,7.1946-6.9478,7.1946-1.5186-2.4678-4.8597-2.4868-7.4224-3.2081-2.8285-.8163-4.7837-2.1451-4.7837-2.1451,0,0-5.2014,10.042-2.8285,18.3566-3.9295,1.0631-5.0115,5.4481-5.638,7.6312-4.5559,16.5722-11.3898,9.1688-11.3329,9.7003,1.3098,14.6169,9.7573,14.1614,9.0169,17.5593-1.0251,4.5939-8.8461-1.6895-8.8461-1.6895.1898,10.2888,4.8027,10.9532,6.701,17.0847,1.6136,5.3153-1.7275,8.8841.9871,17.0468,2.7715,8.4475.7403,11.5417.7403,11.5417,5.7519.1329,9.4536-4.0244,9.4536-4.0244-1.12,10.8203,3.9485,15.9458,3.9485,15.9458,0,0,3.2081-6.6061,4.537-2.202,3.6258,11.7505,9.5295,15.9458,9.5295,15.9458,0,0,5.3153-.1898,14.7498-10.118,6.5681-6.9288,3.6258,2.0122,3.6258,2.0122,0,0,4.5939.4176,14.1234-17.0658,3.0753-5.6759,8.2007-8.941,10.0231.2278,10.9153-11.7695,7.1186-24.4692,7.1186-28.9302,0-3.9675,1.9363-4.4231,2.1071-2.6197,1.12,10.8393,12.4908,7.1566,12.4908,7.1566,0,0-4.6319-4.7078.1329-21.28,2.3539-8.2766-2.24-16.2875-2.24-16.2875l2.6386-4.6319" style="fill: #2b57ac;"/>
    <path id="path3559" d="M629.6606,421.058s.6454-10.042-6.6631-12.6617c-9.5295-3.4739-21.8685,1.0251-46.3566-1.2529-59.5119-5.581-52.1844-27.0508-52.1844-27.0508,0,0,37.4156,16.5912,53.2475,8.8461,8.7322-4.2902,8.1437-11.8454,8.1437-11.8454,2.4488,2.8664-.2088,8.5614-.2088,8.5614,0,0,15.3573-11.2759-2.8854-28.8732-6.6251-6.3403-18.7363-11.0481-27.8102-12.2251-26.1776-3.398-36.1817-1.9932-54.6332-4.5369-15.4332-2.1641-18.9261-7.6122-18.1288-11.9403,2.3539-12.7756,31.1512,5.3912,46.9451-1.6325,4.2142-1.9173,7.7071-4.8027,11.3708-5.7329,3.8346-.8732,7.6691.3227,7.6691.3227,0,0-3.7207-6.72-15.9268-4.1383-10.042,2.1261-10.8014-1.2529-10.8014-1.2529,0,0,4.7078.3986,10.8014-3.1702,3.9105-2.259,4.9925-7.2515,9.2637-9.1119,5.2583-2.259,10.5546-.1329,10.5546-.1329,0,0-6.8529-11.6746-20.0651-4.8407-8.998,5.8468-12.2441,1.5376-12.2441,1.5376l10.8014-7.6502c3.322-6.682,7.5932-7.7261,7.5932-7.7261,0,0-6.758-3.2271-12.4719,2.3729-3.7017,3.6068-9.0929,4.6698-18.3376,4.518-11.7125-.1519-16.4203,13.7817-16.4203,13.7817,0,0-4.6508.2847-8.6563,2.3349-3.5309,1.7654-7.5742,5.7139-7.5742,5.7139l1.4997-4.518s-8.7132,4.3091-8.941,17.6732c-.4177,22.5139,24.0325,24.3552,32.0434,24.9817,11.9024.9302,34.5871,1.5186,51.9756,3.9105,23.539,3.2461,24.1844,14.0854,21.0712,19.1349-3.417,5.638-13.1363,2.7525-29.4617-2.9803-16.3444-5.7139-30.1641-15.2244-63.2515-14.1614-52.2034,1.6705-107.4441,38.8773-123.4278,29.3668.7973,6.0556-.6264,18.5275-14.3512,29.6325-.5126-9.3017-3.36-8.0678-6.5112-2.4678-8.7322,15.7369-17.8441,17.3125-17.8441,17.3125,0,0,1.6705-5.3532-4.1953-.2088-5.9417,5.2583-12.7566,6.0936-12.7566,6.0936,0,0-8.3335-5.9797-10.2888-15.3383l-1.6895,2.9424c-6.9668-3.36-8.5803-14.4271-8.5803-14.4271,0,0-3.341,2.1641-10.9722.9112,0,0,4.2902-4.6888-.5505-16.9708-9.5675,0-47.4196-6.5871-52.1654-26.1397-1.7464-7.2895-3.9295-10.7824-8.5234-11.0861l.9681,1.3858.1709,2.6197-4.0814,1.8603-2.24-2.5817-.7214-1.0631c-3.7207,2.9234-2.5627,8.998-2.5627,8.998-4.2522-3.5498-13.0034-9.5105-18.1478-5.8468l2.4678,1.4997,1.177,2.5817c0,1.8793-1.5376,3.379-3.4359,3.341l-3.1891-1.7085-1.4807-1.0251c-4.518,7.3464,10.1749,15.3003,10.1749,15.3003-5.562-.3227-13.5159,4.0814-13.3451,9.1119l2.5247-.8163,2.4488.7593.3037,4.442-3.1512,1.2529-.5885.0759c1.4427,3.0563,4.0244,5.0305,11.238,3.0563,17.3695-4.9356,29.2149-1.7654,29.2149-1.7654,0,0-.5315,5.7898-8.4285,4.2522-.3797-.0569,3.0753,4.518,10.1559,4.518,9.3207,0,14.2563-3.7207,14.4461-3.7966,0,0,.4556,2.1831-2.202,3.5119-5.619,2.8664-1.9742,9.0169-1.9742,9.0169,3.0563-6.8529,8.6563-4.1953,8.6563-4.1953-.9871,1.3668-2.297,5.3722,1.0251,8.4095,0,0,.3607-3.9485,6.5681-5.5241,4.2712-1.082,7.9539.4556,7.9539.4556,0,0-3.6068,5.0685.7214,10.8203,0,0,1.8224-8.2766,7.5553-5.8278,2.3919,1.0061,2.0881,3.6447,1.4047,4.7268l-3.7017,2.1071c8.941,4.2712,11.2-2.7715,18.1098,3.6258-8.8651,4.0244-19.9512,4.8597-30.1831,4.3092-21.5078-1.8603-25.9878-6.0746-31.0373-10.7064-6.8909-6.6061-12.358-7.2895-15.642-6.2834l1.12.7973,1.158,2.5627c0,1.8983-1.4997,3.379-3.36,3.379l-3.2461-1.7464-.7783-.5505c-1.8983,3.2841,1.6135,6.2075,2.6576,7.6502l-3.9864-.7783c-4.5559-.9871-8.3905.6644-9.5105,4.0814l3.6258.2468,2.1451,1.8034-1.6135,4.499-3.6258-.1898-1.2719-.2088c1.3478,5.8278,8.0868,6.5492,13.2122,6.758-2.4678,1.4997-5.0685,3.7017-4.518,7.1756l2.4678-1.4997,2.4488.1708,1.2149,4.0814-2.7335,1.7464-.8542.3986c4.1573,4.461,14.3702-1.3668,17.1986-2.9993,8.1437-4.5939,15.1675-3.8156,19.1919-1.8034,7.6122,3.7586-2.6576,6.8908-2.6576,6.8908,2.5247,2.0312,6.5681,1.082,9.0549,0,2.297-1.0251,4.48-2.7525,5.581-1.1959.6074.9681.2847,2.6956-1.4427,4.2332l-3.2651,1.5376c9.4915,3.6447,18.2997-5.0875,18.2997-5.0875,0,0,.7214,1.1959-.1329,3.4549-1.4237,3.7017-4.9546,5.0305-4.9546,5.0305,10.2888,3.1132,15.5471-9.1308,15.5471-9.1308,0,0,4.8976,3.7586-1.158,9.1308,8.4475.2468,9.5295-6.6631,13.7058-4.0054,2.4298,1.5756,1.139,5.0305-2.3919,5.7329,9.7573,3.322,8.922-5.3722,20.2549-3.4739,16.5342,2.8664,35.5742,5.2963,64.6563-5.9607,44.6671-17.1227,49.242-56.4936,98.1613-61.9607,0,0,4.1193,8.5803,37.6244,17.6163,35.4793,9.5485,90.0366,2.202,87.5878,19.078-1.2529,8.5993-25.5322-3.7586-28.6075,4.8027l-.1139.4556,2.7336-.0569,2.0122,1.3478-.9871,4.0814-3.1702.1708-.3797-.0569c.9871,1.8603,2.9234,2.8664,4.9736,3.2461-2.9424,1.5376-4.6508,2.6956-4.8597,6.5492l.019,1.101,1.7464-.9681,2.4298.1519,1.2529,3.9675-2.6386,1.7844-.3607.1519c1.8224,1.7275,4.3661,2.5058,6.72,1.7275,2.6197-.8732,3.7966-1.7844,4.3092-2.3349-.8163,1.3668-2.4298,4.5749-1.6136,7.1376l1.3478,2.278,1.0441-2.7146,2.0881-1.3098,3.322,2.5247-1.101,2.9614-.2468.4176c6.2454.2278,11.7695-8.0868,12.8515-15.3193,1.3858-9.2258,4.2712-7.84,4.2712-7.84l1.7275,3.5308,3.7017,1.7654c-.2658-6.2644,4.3851-8.2007,6.3973-6.4542,1.9742,1.7464.3417,5.5431.3417,5.5431,0,0,3.1702,1.101,6.9288-5.2773,2.1071-3.379,1.9363-7.7451,4.4231-8.0108,3.379-.1139,2.0312,4.1003,2.0312,4.1003,7.84-4.2142,2.9424-16.7241,5.9986-18.1478,2.4108-.6264,1.4617,3.9295,1.4617,3.9295,0,0,4.9356-2.6576,3.5119-8.0488-2.1452-7.9539,1.7463-1.4237,1.7463-1.4237" style="fill: #2b57ac;"/>
    <path id="path3563" d="M178.796,395.7896l-.3037-4.4231-2.4678-.7783-2.5058.8163-1.7275,1.0441c-4.2902,3.4359-3.4929,7.6692-3.0753,9.9661,0,0,1.3858-4.2142,6.3214-5.2773l.6075-.1139,3.1512-1.2339" style="fill: #ea1f29;"/>
    <path id="path3567" d="M181.3702,369.7279c1.8983.019,3.4169-1.4617,3.4169-3.341l-1.158-2.5817-2.4678-1.4997-1.9932-.5885c-5.8468-1.0631-8.7132,2.5627-10.2698,4.5369,0,0,3.7586-1.5946,7.802.7403l1.4617,1.0251,3.2081,1.7085" style="fill: #ea1f29;"/>
    <path id="path3571" d="M204.8201,362.7894l4.0814-1.8603-.1708-2.6007-.9681-1.4047-2.259-1.8983c-4.7837-2.8475-8.4664-.5885-10.4786.6075,0,0,4.0814-.1519,6.8339,3.5308l.7214,1.0441,2.24,2.5817" style="fill: #ea1f29;"/>
    <path id="path3575" d="M197.0749,456.0663l-1.2339-4.0814-2.4298-.1708-2.4678,1.4997-1.0061,1.0631c-3.341,4.1003-1.7275,7.84-.8542,9.8522,0,0,.3986-3.9295,4.4041-6.0176l.8542-.3986,2.7336-1.7464" style="fill: #ea1f29;"/>
    <path id="path3579" d="M197.8457,424.5792c1.8603,0,3.36-1.4807,3.36-3.398l-1.139-2.5437-1.139-.8163-3.341-1.2719c-5.8278-1.0631-8.7132,2.5817-10.2508,4.5369,0,0,4.2522-1.7654,8.4854,1.1769l.7783.5695,3.2461,1.7464" style="fill: #ea1f29;"/>
    <path id="path3583" d="M187.1431,439.7771c1.6895-.8163,2.4298-2.8095,1.6136-4.518l-2.1451-1.8034-3.6258-.2278-1.3098.2278c-5.7329,1.5566-6.758,6.0556-7.2895,8.5424,0,0,2.9234-3.3031,7.859-2.6386l1.2529.2278,3.6447.1898" style="fill: #ea1f29;"/>
    <path id="path3587" d="M559.3929,445.9124l.9681-4.0434-2.0122-1.3668-2.7146.0569-1.5566.3986c-4.8217,1.8983-5.2773,5.9037-5.5051,8.0678,0,0,2.4678-3.4739,7.2515-2.9803l.3797.038,3.1892-.1708" style="fill: #ea1f29;"/>
    <path id="path3591" d="M561.3881,460.0966l-1.2339-3.9864-2.4298-.1519-1.7654.9681-1.6705,1.6325c-3.2081,4.0814-1.5376,7.7641-.6454,9.7383,0,0,.3607-4.2902,4.7647-6.2644l.3417-.1708,2.6386-1.7654" style="fill: #ea1f29;"/>
    <path id="path3595" d="M575.6141,469.3206l-3.322-2.5247-2.0692,1.3098-1.0631,2.7146-.1708,1.3858c-.2468,5.1444,3.2461,7.1946,5.0875,8.2766,0,0-2.1451-3.5878.2088-7.7641l.2278-.4366,1.101-2.9614" style="fill: #ea1f29;"/>
  </g>
  <g>
    <path id="path3599" d="M179.3696,188.5059c1.8034.4366,3.6637-.7024,4.1193-2.4868l-.5315-2.7525-.7593-.9492-3.1322-2.1261c-5.4102-2.4298-9.0739.4556-11.0292,1.9932,0,0,5.1064-.8353,8.6183,3.8915l.1139.1708,2.6007,2.259" style="fill: #ea1f29;"/>
    <path id="path3603" d="M542.0633,254.6676c-61.4481-1.8224-81.76-24.1085-81.76-24.1085,0,0-10.3647,15.7749,15.1295,26.1017,0,0-4.7458-1.3288-10.8014-1.8224-7.1756-.6075-10.3078-.6644-10.3078-.6644,0,0-5.4102-8.2197-14.9397-9.8332-2.6007-.4366-5.1824-.5695-7.4224-.2468l.4366.3986.8353,2.259-3.2081,2.6956-2.6386-1.6895-1.177-.9681-.3227.3227c-1.5376,1.8224-2.221,4.4041-.8732,7.4414-8.7512,1.1769-11.6176,3.9295-12.32,7.4983l4.2902-.3037,1.9553,1.4237-1.158,4.0624h-3.1702l-1.9173-.1519c.8542,4.6319,6.3973,7.9539,15.2054,4.2712,2.1641-.8922-5.4102,2.6576-2.4298,10.4027l.6644-1.4807,1.9932-1.4047,3.4549,2.4298-1.0061,2.9614-.8542,2.202.019.019c7.4793,3.2651,15.3383-5.7329,16.3064-9.9471,0,0,.7403,5.4102,4.0054,7.7071.0569.019.4746-2.297,2.24-4.1763,3.2461-3.5308,2.9044.6834,2.9044.6834-.019,6.4542,4.0814,7.5173,4.0814,7.5173,0,0-.6264-7.4224,5.1254-8.6183,2.3349,7.9729,11.1051-4.2142,10.2129-.5505-1.9932,8.0678,1.5756,10.5166,1.5756,10.5166,0,0,.7403-9.6814,20.122-10.7824-.2088.9302.4936,6.3593,5.4481,8.922,1.3668-18.6603,27.8292-18.8312,32.1953-19.5525,12.6617-2.0312,8.1057-13.5349,8.1057-13.5349" style="fill: #2b57ac;"/>
    <path id="path3607" d="M430.0234,249.4626l3.2081-2.7146-.8353-2.278-.4366-.3797-3.3031-1.7464c-4.9925-1.3288-7.7451,1.6325-9.2068,3.2461,0,0,3.4169-1.139,6.758,1.2149l1.1769.9492,2.6386,1.7085" style="fill: #ea1f29;"/>
    <path id="path3611" d="M414.6208,267.2305h3.1512l1.158-4.0624-1.9363-1.4237-4.3092.3037c-4.8786,1.6515-5.5241,5.619-5.8468,7.7831,0,0,2.0312-2.6576,5.8468-2.7525l1.9363.1519" style="fill: #ea1f29;"/>
    <path id="path3615" d="M431.5841,281.2914l-3.4549-2.4108-1.9932,1.4047-.6454,1.4617-.4746,2.6956c0,5.1444,3.5688,7.0617,5.4861,8.0488,0,0-1.6895-2.6007-.7973-6.0366l.8542-2.202,1.0251-2.9614" style="fill: #ea1f29;"/>
    <path id="path3619" d="M340.676,178.5608l-.2278.4366c-.3417.7214-3.4359,6.4922-9.4346,6.7769l-.4176.0569c-3.8346.0569-7.4414-2.7715-7.4414-2.7715,0,0-.5505-.2847-1.3668,4.2902-.5695,3.6258-2.8854,3.5688-2.8854,3.5688,0,0-.2468-5.4671,1.3288-9.2827,1.9173-4.8976,6.5681-4.4231,6.5681-4.4231h.038l-.7783,2.3159c.019,2.1641,1.8414,3.8915,3.9675,3.8536,2.1831-.038,3.8725-1.8414,3.8346-3.9864l-.4366-1.7085,7.0047.4176h.4556l-.2088.4556ZM316.9851,213.3757c-4.9925,3.7397-4.518,9.8712-5.8088,13.9715-1.5756,5.0305-6.3593,7.2515-11.3898,5.8658-4.3661-1.0251-8.3146-3.9295-8.4095-8.5614-.0569-5.3342,9.2068-11.8075,4.0054-18.8312-4.0054-6.1505-3.5878-8.7132-3.5878-8.7132,0,0,1.101,1.7844,4.0054,3.5308,1.101.6264,9.7763,5.3912,11.9593-1.3858.5695-1.7085-.6644-2.8285-1.7464-3.7207l-1.9932-1.6515-.0569-3.4549s2.297,3.398,6.5492,4.3851c4.461,1.0061,8.3715-.7403,8.3715-.7403,0,0,.8353,3.2081-2.7905,3.4739-1.9553.0949-4.8217.0569-5.3532,2.4298-1.6136,7.9729,10.099,6.9478,13.6298,6.6061,2.7905-.2658,4.1003-.5695,4.1003-.5695-2.5437,3.2461-6.7769,3.5878-11.2569,6.9288M292.6299,166.1079l.019-.5315.038-.4936.4176.2658,6.2834,3.0942-1.2908,1.2719c-1.082,1.8414-.4746,4.2332,1.3668,5.3532,1.8414,1.101,4.2522.4746,5.3532-1.3668l.4936-2.4108h.038s4.2522,1.9553,3.4929,7.1566c-.5885,4.0814-3.4929,8.7322-3.4929,8.7322,0,0-2.0502-1.101-.7024-4.5749,1.5566-4.3281.9112-4.3851.9112-4.3851,0,0-4.499.6454-7.802-1.3288l-.3037-.2278c-5.1254-3.2651-4.9166-9.8142-4.8217-10.5546M362.0319,177.5736c2.1451-10.042-5.7519-10.2508-5.7519-10.2508,0,0,3.379-2.259,4.6888-6.5112,2.24-7.4793-1.8414-17.4454-1.8414-17.4454,0,0-2.6766,7.4034-10.8963,3.8346,0,0,4.0624-4.8027.8542-13.6678-.6264,2.1071-2.3159,4.1573-4.7268,5.562-4.1953,2.4488-9.0169,1.9173-10.8203-1.139-1.5566-2.6956-.2658-6.4163,2.8664-8.96-1.1769-.3227-6.3593-1.6136-11.1051-.2468-5.0495,1.4807-12.7186,6.5681-12.7186,6.5681,0,0-5.2203-4.0814-2.6197-10.0231,0,0-7.878-.8163-10.5356,8.2956-1.158,3.9675-4.499,4.3471-4.499,4.3471,0,0-.6075-6.3403-6.3214-8.1058-.0949-.0569-10.6115,7.4603-10.5356,21.6407-3.8536,1.1769-5.4292,5.657-5.8088,7.9349-4.8407,28.9302-12.32,15.2054-12.2251,15.699,1.6136,14.579,11.5417,12.4908,11.5417,12.4908-1.7464,10.1369-12.2631,4.7458-12.2631,4.7458,3.8536,14.7688,12.7376,8.5993,12.7376,8.5993-6.3024,10.8393-1.5376,19.1729,1.8414,27.5064,3.5498,7.7071,3.4359,14.2183,3.4359,14.2183,0,0,4.2332-2.24,6.5302-2.221,3.2081.0569,2.1831,3.5119,2.259,7.897.1519,6.1695,2.6386,7.9919,2.6386,7.9919l1.4047-2.7336c1.6325-2.5247,2.5437-2.202,2.5437-2.202,0,0-.8542,7.7451,4.2142,11.5797,0,0,7.1186-10.3458,11.0481-9.6054,2.6007.4746,4.1953,6.7769,4.1953,6.7769,20.5397-13.0034,23.3112-41.421,27.1647-31.322,1.0441,2.4678,1.158,4.8597,1.158,4.8597,0,0,12.5288-7.4603,11.2-35.1186,0,0,2.24,2.24,6.1315,3.3031,3.8536,1.082,6.0556-.1329,6.0556-.1329,0,0-5.5051-7.4224-1.8414-24.1654" style="fill: #2b57ac;"/>
    <path id="path3623" d="M298.9608,230.2553c9.7953,3.2081,10.6305-7.1186,10.8583-9.0359,1.3288-10.4976,8.6563-10.8963,9.9661-11.9783-3.4359.4556-10.2508-.1898-12.2061-4.3281-2.3159,1.139-6.3214,1.5946-10.8203-.6834l2.3349,4.4041c.7783,2.7146-.2658,5.7329-1.4617,8.1247-1.139,2.24-7.5553,10.5546,1.3288,13.4969" style="fill: #ea1f29;"/>
    <path id="path3627" d="M178.4183,215.1279l-.2468-4.48-2.4868-.7593-3.6068,1.4237-.6454.4176c-4.2902,3.4169-3.4929,7.6881-3.0942,9.9471,0,0,1.2529-3.7397,5.562-5.0495l1.3668-.3417,3.1512-1.158" style="fill: #ea1f29;"/>
    <path id="path3631" d="M204.2924,180.6015l4.3661-1.139.2278-2.6197-.2847-.7593-2.2969-3.0373c-4.2712-3.5688-8.2576-1.9932-10.4597-1.158,0,0,4.4041.5885,6.3973,5.2203l.2658.5885,1.7844,2.9044" style="fill: #ea1f29;"/>
    <path id="path3635" d="M197.1091,242.4331l4.3092-1.158.2847-2.6007-1.12-2.1451-1.4997-1.6136c-4.2522-3.6447-8.2386-2.0312-10.4407-1.1769,0,0,4.7837.5695,6.682,5.7898l.1898.5695,1.5946,2.3349" style="fill: #ea1f29;"/>
    <path id="path3639" d="M183.4451,258.8458c1.7654-.6454,2.6766-2.5817,2.0312-4.3471l-1.9742-1.9932-4.1763-.5315-.7214.0949c-5.8278.9871-7.3275,5.3912-8.0868,7.7641,0,0,3.0373-2.7905,7.5932-1.9553l1.7275.4366,3.6068.5315" style="fill: #ea1f29;"/>
    <path id="path3643" d="M197.0179,273.3774l-2.7525-.6454-3.3031,1.4427-1.0631.8542c-4.3851,4.0054-3.2271,8.5044-2.6007,10.9153,0,0,1.2719-4.9925,7.0237-6.3214l.1329-.019,3.1892-1.4617-.6264-4.7647" style="fill: #ea1f29;"/>
    <path id="path3647" d="M619.9148,233.4351c-4.2712-2.0502-11.1431-1.1769-19.3627-.3037-6.4542.6644-13.7627,1.3668-21.1471.6075-49.6786-4.9736-53.6841-23.2353-51.6908-22.0014,0,0,10.6875,5.4292,26.937,8.5993,44.2685,8.6183,44.6292-15.642,44.6292-15.642,0,0,1.4807,1.082,1.9173,3.7586.4556,3.1132-1.6515,7.3464-1.6515,7.3464,0,0,5.5431-4.1193,5.5431-10.2698,0-9.2068-6.0176-12.4339-6.0176-12.4339,0,0,1.2339-.1329,3.4359,1.7844,2.221,1.8983,3.4929,6.5871,3.4929,6.5871,0,0,2.3349-7.6692-6.1885-14.7878-23.7668-19.8753-75.1539-15.9647-94.9342-18.7932-17.3505-2.4868-21.8875-9.6244-20.6156-16.9898,2.1071-12.0922,18.3186-12.3959,18.3186-12.3959-.8732,13.1742,15.5092,21.8115,31.0753,18.3566,8.6942-1.9363,13.9525-4.8976,20.122-9.8712,4.6508-3.7207,8.3336-5.4481,8.3336-5.4481-8.0108-1.5376-13.1173,1.6325-16.3254,2.9803-3.4549,1.4427-7.0237,2.5247-10.7634,2.8285-9.6814.8163-10.6115-5.638-10.6115-5.638,0,0,7.1946,3.4359,16.5532,1.2529,26.9559-6.2834,18.1668-31.4549,18.1668-31.4549,0,0-2.3729,9.5105-10.8203,13.0603-7.9729,3.303-14.579-1.9173-14.579-1.9173,0,0,13.0414,1.3288,15.8319-8.8841,1.5756-5.7898-3.9295-8.8081-3.9295-8.8081,0,0,1.1959,12.9844-29.9553,11.0671-13.6108-.8542-13.5729,10.7824-13.5729,10.7824,0,0-2.202.038-7.7451,1.6705-5.0495,1.4617-8.5234,3.8915-8.5234,3.8915,1.3858-3.7586,6.8719-5.562,6.8719-5.562-7.2136,0-13.2122,5.562-13.2122,5.562l1.0441-3.4169c-.2278.4176-8.0298,6.8908-9.7763,20.7105-.9112,6.9288,1.1769,14.0664,5.7139,19.3817,7.4793,8.7892,21.7736,9.9092,30.4298,10.5925,12.8325.9871,33.9797,2.1261,52.659,4.6888,25.3044,3.4739,26.8231,11.9214,23.482,17.3125-3.6827,6.0556-14.9586,6.1885-32.48,0-17.5783-6.1505-52.8109-18.8881-78.1532-18.7932-66.9342.2847-96.9464,28.6644-116.9356,23.3871.5695,25.6271-17.7871,35.859-17.7871,35.859-2.7715-14.1234-.8352,11.5797-28.057,24.9437,0,0-.2088-6.3783-3.0183-6.9288-3.6637-.7593-8.941,9.2258-8.941,9.2258-5.8278-3.8536-7.6502-9.8712-7.6502-9.8712l-1.4047,2.8664s-4.537-2.8475-5.5241-7.6881c-.9871-4.9356.4935-8.6373-1.6895-8.7322-2.5058-.1139-7.84,3.5119-7.84,3.5119,0,0,.9302-8.4664-2.9614-17.2556-2.1451-5.638-5.2773-10.7824-5.7709-16.8949-21.5647-4.0434-47.8373-12.6807-48.4068-20.9763-.5695-7.7831.8163-15.699-7.821-18.2237l.2658.7783-.2088,2.6197-4.3661,1.139-1.7844-2.9044-.2658-.6075c-4.9735,2.9234-2.9424,11.8644-2.9424,11.8644-3.9105-3.9864-12.1302-11.2949-17.1037-6.6441l.7593.9492.5315,2.7525c-.4556,1.7844-2.3159,2.9424-4.1383,2.4868l-2.5817-2.259c-5.2773,7.4224,5.581,16.2685,5.581,16.2685-1.6135.8163-10.2509,2.5437-10.2888,8.7892l3.6068-1.4047,2.4868.7403.2468,4.499-3.1322,1.1769-1.3668.3037c3.0563,4.3281,7.783,4.2902,10.7444,3.0183,13.8386-5.8847,17.3505-2.5627,23.3871-1.2339,4.2902.9112,8.1437-.1139,8.2197,2.4108.038,2.0692-1.9742,3.6068-8.4095,2.8095,0,0,1.5566,4.0814,8.5803,4.8597,10.5926,1.158,13.9146-1.4427,15.3193.3986,2.5627,3.379-7.6312,4.6698-7.6312,4.6698,8.3146,6.3403,19.3058,1.4617,19.3058,1.4617.5695,3.7017-7.3085,4.48-7.3085,4.48,0,0,3.1322,3.4929,9.3397,1.9553,2.3349-.5885,4.3851-1.6895,4.3851-1.6895,0,0-1.8603,6.1315,3.5688,9.2637,0,0,3.0942-10.4597,7.4224-7.7641,2.1451,1.2908,2.4298,3.4929,1.4617,4.7458-1.3668,1.7844-3.398,1.4997-3.398,1.4997,1.2529,3.1892,6.8339,3.1892,6.8339,3.1892,0,0-6.758,4.1763-25.5891,3.8915-24.9817-2.0502-23.539-4.8407-29.6135-12.2061-4.8786-6.4353-7.7071-6.8149-9.9281-5.8468l1.082,2.1451-.2468,2.6007-4.3281,1.158-1.5756-2.3349c-3.0753,3.0563-2.5058,5.8088-1.082,8.3525-1.2339-.2088-13.0224-1.8983-15.1105,3.5308l4.1763.5125,1.9742,2.0122c.6265,1.7654-.2658,3.7017-2.0502,4.3281l-3.6068-.5125-1.7275-.4556-.0759.5695c-.1329,8.0678,11.6366,8.2766,17.4454,8.5234-2.4678,1.4807-5.1254,3.6827-4.499,7.2136l3.2841-1.4427,2.7526.6264.6454,4.7837-3.2081,1.4617c7.7071,5.0875,13.459-1.9742,16.2495-3.5688,8.1247-4.6319,20.5966-4.1003,23.7668-.6834,2.3539,2.5437-2.8475,5.4671-2.8475,5.4671,5.7519.7403,9.9661-2.7905,9.9661-2.7905,0,0-1.12,1.2719-1.5566,3.9485-.6644,3.8536,1.9363,5.9037,1.9363,5.9037,4.7647-9.1688,8.4095-8.5614,10.2319-6.8339,2.202,2.0692-2.24,5.2014-2.24,5.2014,5.5241,2.7905,12.6617-2.8854,12.6617-2.8854,0,0-.5126,4.7078,2.1641,7.2705,3.6258-6.6061,11.5797-5.9986,16.8379-5.3532,0,0-7.5363,5.1444-4.6129,11.5986,4.7268-4.5749,10.6305-6.2454,18.6414-5.2583,16.6482,2.0122,48.16,11.4658,102.2427-38.7254,36.5613-33.9037,60.9736-29.5566,60.9736-29.5566,32.48,26.3675,94.8773,26.842,110.861,28.038,7.7071.5505,7.821,5.3532,4.442,9.4725-2.1261,2.5247-4.9166,3.1512-5.0875,3.1892,0,0-15.3573-6.3593-21.0332,2.1831l2.9803.038,1.9173,1.4047-1.12,3.9105-3.0942.038-1.3098-.1519c.6834,2.8285,2.8854,3.6827,4.4041,4.0624l.4556.4746c-3.2651,3.1132-3.2081,6.3403-3.0753,7.4034l2.297-1.101,2.297.3797.7973,3.9864-2.6956,1.4617-.8353.2658c1.6325,2.5627,4.537,4.1193,8.998,2.3919,3.4359-1.2719,4.3661-2.0122,4.5939-2.3539-.3607.7024-1.5186,3.2271-.2847,5.2203l.5315.7024,1.8414-3.36,2.1831-.8732,2.7525,2.9803-1.5946,2.6386-.7024.9112h3.9105c4.7837-.9492,8.5044-5.0305,9.5675-15.1485.3986-3.417,1.139-5.2963,1.9932-6.2454,1.5946-1.8224,5.2393-3.1512,5.2393-3.1512,0,0,1.5186,4.0054-1.101,6.9668,9.4536,1.5376,10.7254-13.3261,10.7254-13.3261,0,0,.9871,2.8664,3.1132,4.8027,2.0881,1.9363,5.0495,2.3539,5.0495,2.3539-1.7275-10.5925,2.4678-14.2183,4.461-14.7119,3.9864-.9871,3.8536,3.8346,3.8536,3.8346,0,0,3.4739-2.3159,2.7336-7.0427-.3986-2.6956-1.8224-5.2773-1.8224-5.2773,0,0,3.341-1.6515,5.1254,2.8475,0,0,3.5688-5.7519.3037-8.941l1.7654-.1898,1.5946,1.3288s1.6325-7.6312-5.9797-11.3139" style="fill: #2b57ac;"/>
    <path id="path3651" d="M551.8207,271.5681l1.12-3.8915-1.9173-1.4237-2.9803-.019-1.1769.3417c-4.7458,1.6325-5.3722,5.4861-5.7139,7.5932,0,0,2.221-2.8475,6.2644-2.7146l1.3098.1329,3.0942-.019" style="fill: #ea1f29;"/>
    <path id="path3655" d="M554.598,286.6598l-.7973-4.0054-2.3159-.3417-2.278,1.082-1.2908,1.082c-3.4929,3.6258-2.278,7.3085-1.5946,9.3586,0,0,.7024-3.8156,4.7458-5.4292l.8353-.2847,2.6956-1.4617" style="fill: #ea1f29;"/>
    <path id="path3659" d="M571.6808,293.1066l-2.7715-2.9803-2.1641.8732-1.8414,3.36-.0759.3417c-1.139,4.9166,1.8603,7.4414,3.4739,8.8081,0,0-1.3098-3.4359,1.082-6.8529l.7024-.9302,1.5946-2.6197" style="fill: #ea1f29;"/>
  </g>
</svg>