<?xml version="1.0" encoding="UTF-8"?>
<svg id="_图层_1" data-name="图层_1" xmlns="http://www.w3.org/2000/svg" version="1.1" viewBox="0 0 800 800">
  <!-- Generator: Adobe Illustrator 29.1.0, SVG Export Plug-In . SVG Version: 2.1.0 Build 142)  -->
  <g>
    <path d="M448.3876,85.1531h-36.9622l-6.5686-20.216-4.8522-14.937-4.8522,14.937-6.5686,20.216h-36.9622l12.7011,9.2313,17.2008,12.497-6.5686,20.2068-4.8522,14.937,12.7011-9.2313,17.2008-12.4877,17.1915,12.4877,12.7104,9.2313-4.8522-14.937-6.5686-20.2068,17.1915-12.497,12.7104-9.2313h0ZM400.0046,113.9973l-20.1975,14.668,7.7097-23.7415-20.1882-14.668h24.9569l7.719-23.7415,7.7097,23.7415h24.9662l-20.1975,14.668,7.719,23.7415-20.1975-14.668h0Z"/>
    <polygon points="412.4831 104.9238 420.2021 128.6653 400.0046 113.9973 379.8071 128.6653 387.5169 104.9238 367.3287 90.2558 392.2856 90.2558 400.0046 66.5142 407.7144 90.2558 432.6806 90.2558 412.4831 104.9238" style="fill: #ffcb05;"/>
  </g>
  <g>
    <g>
      <g>
        <path d="M330.0046,421.6912c-.7793,3.2936-4.0822,5.3254-7.3757,4.5461-12.7846-3.0245-16.4771-10.1961-16.4771-10.1961,0,0,6.5036-4.7502,19.2975-1.7256,3.2936.7793,5.3347,4.0729,4.5553,7.3758h0Z" style="fill: #ffcb05;"/>
        <path d="M334.4486,408.2757c-1.3638,3.0987-4.9728,4.4997-8.0716,3.1359-12.0239-5.2975-14.3526-13.0166-14.3526-13.0166,0,0,7.2644-3.4884,19.2883,1.8092,3.0987,1.3638,4.5089,4.9728,3.1359,8.0716h0Z" style="fill: #ffcb05;"/>
        <path d="M341.1564,396.224c-1.9483,2.774-5.7614,3.442-8.5355,1.503-10.7621-7.5335-11.5507-15.5586-11.5507-15.5586,0,0,7.8025-2.004,18.5739,5.5295,2.774,1.939,3.4513,5.7522,1.5123,8.5262h0Z" style="fill: #ffcb05;"/>
        <path d="M349.9887,385.9629c-2.4957,2.2916-6.3738,2.1153-8.6561-.3711-8.8787-9.6952-7.9046-17.7018-7.9046-17.7018,0,0,8.053-.2691,16.9317,9.4261,2.2823,2.4864,2.1246,6.3645-.3711,8.6468h0Z" style="fill: #ffcb05;"/>
        <path d="M360.6951,377.0285c-2.8668,1.7999-6.6428.9278-8.4334-1.9297-6.9954-11.1332-4.5924-18.8337-4.5924-18.8337,0,0,7.9695,1.1875,14.9649,12.3207,1.7906,2.8668.937,6.6428-1.939,8.4427h0Z" style="fill: #ffcb05;"/>
        <path d="M373.0066,370.7011c-3.1451,1.2525-6.7077-.2876-7.9602-3.4235-4.8615-12.2094-1.1133-19.3439-1.1133-19.3439,0,0,7.6262,2.5977,12.497,14.8071,1.2432,3.1451-.2783,6.7078-3.4235,7.9602h0Z" style="fill: #ffcb05;"/>
        <path d="M386.218,366.6096c-3.3214.6216-6.5222-1.5772-7.1438-4.8986-2.4122-12.9145,2.6441-19.1955,2.6441-19.1955,0,0,6.9768,4.0265,9.3983,16.9503.6216,3.3121-1.5679,6.5222-4.8986,7.1438h0Z" style="fill: #ffcb05;"/>
        <path d="M406.1279,359.2339c0,3.3771-2.7369,6.1233-6.1233,6.1233s-6.1233-2.7462-6.1233-6.1233c0-13.1465,6.1233-18.3883,6.1233-18.3883,0,0,6.1233,5.2419,6.1233,18.3883Z" style="fill: #ffcb05;"/>
        <path d="M420.935,361.711c-.6216,3.3214-3.8224,5.5202-7.1438,4.8986-3.3307-.6216-5.5202-3.8317-4.8986-7.1438,2.4215-12.9238,9.3983-16.9503,9.3983-16.9503,0,0,5.0563,6.281,2.6441,19.1955h0Z" style="fill: #ffcb05;"/>
        <path d="M434.9629,367.2776c-1.2525,3.1359-4.8151,4.676-7.9602,3.4235s-4.6667-4.8151-3.4235-7.9602c4.8708-12.2094,12.497-14.8071,12.497-14.8071,0,0,3.7482,7.1345-1.1133,19.3439h0Z" style="fill: #ffcb05;"/>
        <path d="M447.7475,375.0987c-1.7906,2.8575-5.5666,3.7296-8.4334,1.9297-2.8761-1.7999-3.7296-5.5759-1.939-8.4427,6.9954-11.1332,14.9649-12.3207,14.9649-12.3207,0,0,2.4029,7.7005-4.5925,18.8337h0Z" style="fill: #ffcb05;"/>
        <path d="M458.6766,385.5918c-2.2823,2.4864-6.1604,2.6627-8.6561.3711-2.4957-2.2823-2.6534-6.1604-.3711-8.6468,8.8787-9.6952,16.9317-9.4261,16.9317-9.4261,0,0,.9741,8.0066-7.9046,17.7018h0Z" style="fill: #ffcb05;"/>
        <path d="M478.939,382.1683s-.7886,8.0252-11.5507,15.5586c-2.774,1.939-6.5871,1.271-8.5355-1.503-1.939-2.774-1.2617-6.5871,1.5123-8.5262,10.7714-7.5335,18.5739-5.5295,18.5739-5.5295h0Z" style="fill: #ffcb05;"/>
        <path d="M487.9847,398.3949s-2.3287,7.719-14.3526,13.0166c-3.0987,1.3638-6.7078-.0371-8.0716-3.1359-1.3731-3.0987.0371-6.7078,3.1359-8.0716,12.0238-5.2975,19.2883-1.8092,19.2883-1.8092h0Z" style="fill: #ffcb05;"/>
        <path d="M493.8575,416.0411s-3.6925,7.1716-16.4771,10.1961c-3.2936.7793-6.5964-1.2525-7.3758-4.5461-.7793-3.3028,1.2617-6.5964,4.5553-7.3758,12.7939-3.0245,19.2975,1.7256,19.2975,1.7256h0Z" style="fill: #ffcb05;"/>
        <path d="M446.3744,401.9576c7.1252,9.5374,11.3744,21.3386,11.4672,34.1233,1.6421-.4546,3.2657-.9371,4.8801-1.4566-.4082-14.2969-5.6037-27.3969-14.0371-37.7508-11.5043-14.1299-29.0391-23.1478-48.6799-23.1478s-37.1756,9.0179-48.6799,23.1478c-8.4334,10.3539-13.6289,23.4539-14.0371,37.7508,1.6143.5195,3.2379,1.002,4.88,1.4566.0093-.8628.0278-1.7256.0742-2.5792.0186-.334.0371-.6587.065-.9927.0186-.3154.0371-.6309.065-.9463.0278-.2598.0464-.5195.0742-.7886.0464-.4824.1021-.9741.167-1.4566.0464-.3897.1021-.7793.1577-1.169s.1113-.77.1763-1.1597c.0464-.2691.0928-.5474.1484-.8257.1206-.6773.2505-1.3545.3989-2.0318.065-.2783.1299-.5567.1948-.835.0835-.3711.1763-.7422.269-1.1133.0928-.3711.1948-.7422.2969-1.1133.1021-.3618.2041-.7329.3154-1.0948.3247-1.0948.6866-2.1803,1.0762-3.2472.1299-.3526.2598-.7051.3989-1.0577s.2783-.7051.4175-1.0484c.7051-1.7164,1.4844-3.3956,2.3472-5.0192.1763-.334.3526-.668.5381-1.002,1.2803-2.3194,2.7091-4.5368,4.2863-6.6428l2.44,5.3903h0c-4.7873,8.7396-5.2697,20.8469-5.3161,23.4261l-5.7429,6.0954c6.2532,1.6607,12.6362,2.9874,19.0842,3.9523l-8.4334-9.5746s0-2.5421.4082-6.114c.3989-3.442,1.169-7.8396,2.6905-11.8569.5567-1.4844,1.2154-2.9132,1.9947-4.2213,6.2439-.9834,12.497-1.605,18.7502-1.8462l7.951,13.4062-6.2068,18.7316-7.5427,2.6627c5.6779.5381,11.393.8164,17.1173.8164h18.3512c5.7243,0,11.4394-.2783,17.1173-.8164l-7.5427-2.6627-6.2068-18.7316,7.951-13.4062c6.2532.2412,12.5063.8628,18.7502,1.8462.7793,1.3082,1.438,2.7369,1.9947,4.2213,1.5216,4.0172,2.2916,8.4149,2.6905,11.8569.4082,3.5719.4082,6.114.4082,6.114l-8.4334,9.5746c6.448-.9649,12.831-2.2916,19.0842-3.9523l-5.7429-6.0954c-.0464-2.5792-.5288-14.6865-5.3161-23.4168h0l2.44-5.3996h0ZM416.2684,404.6945l-7.2088,11.8105h-18.11l-7.2088-11.8105-.0557-.102c2.1339-7.2273,7.4407-11.5414,9.1385-12.7661.334-.2505.7329-.3804,1.1504-.4082l4.9079-.3062h.0093l1.1133-.0742,1.1133.0742h.0093l4.9079.3062c.4175.0278.8164.1577,1.1504.4082,1.6978,1.2247,7.0046,5.5388,9.1385,12.7661l-.0557.102h0ZM408.3174,386.9092c-.6216-.2134-1.2896-.3526-1.9761-.3989l-6.0305-.3804-.3062-.0185-.3062.0185-6.0305.3804c-.6866.0464-1.3545.1856-1.9761.3989l-9.4076-5.4831c5.5852-1.8092,11.5414-2.7833,17.7203-2.7833s12.1352.9741,17.7203,2.7833l-9.4076,5.4831Z" style="fill: #ffcb05;"/>
        <path d="M592.0802,446.7965l-3.8873-6.0305-11.5321-17.8873-27.1928-42.167-135.8158-210.6123-9.3612-14.5103-4.2863-6.6521-4.2863,6.6521-9.3612,14.5103-135.8158,210.6216-2.7369,4.2399-24.4559,37.9271-4.3791,6.8005-7.1438,11.0775-3.8966,6.0305-1.7906,2.7648,1.7906,2.7648,3.8966,6.0398,174.5407,270.4997,9.3519,14.4917,4.2863,6.6428,4.2863-6.6428,9.3519-14.4917,174.5408-270.4997,3.8966-6.0398,1.7813-2.7648-1.7813-2.7648h0ZM583.8972,455.601l-174.5408,270.4996-9.3519,14.4917-9.3519-14.4917-174.5407-270.4996-3.8966-6.0398,3.8966-6.0305,3.5348-5.4738,4.3791-6.8005,27.5268-42.6866,2.7276-4.2306,136.3632-211.4751,9.3612-14.5103,9.3612,14.5103,136.3632,211.4659,2.7276,4.2306,27.5269,42.6866,4.3791,6.7913,3.5441,5.4924,3.8873,6.0305-3.8966,6.0398h0Z"/>
        <path d="M583.9065,443.5308l-3.5441-5.4924-4.3791-6.7913-27.5269-42.6866-2.7276-4.2306-136.3631-211.4659-9.3612-14.5103-9.3612,14.5103-136.3631,211.4752-2.7276,4.2306-27.5268,42.6866-4.3791,6.8005-3.5348,5.4738-3.8966,6.0305,3.8966,6.0398,174.5408,270.4996,9.3519,14.4917,9.3519-14.4917,174.5408-270.4997,3.8966-6.0398-3.8873-6.0305h0ZM544.3373,402.7183l23.6952,36.7396-26.2651-8.2015,2.5699-28.5381ZM400.0046,178.8946l137.3466,212.9874c-.8906.7608-1.7906,1.5216-2.6998,2.2638-.4361.3711-.8721.7237-1.3082,1.0669-.6309.5288-1.271,1.0484-1.9112,1.5494-.5659.4639-1.1412.9092-1.7164,1.3638-.5938.4639-1.1968.9278-1.7999,1.3824-.7515.5845-1.5123,1.1597-2.2823,1.7349-.8906.6587-1.7906,1.3174-2.6905,1.9669-1.0669.77-2.1431,1.5308-3.2286,2.2823-.9185.6402-1.8462,1.2803-2.774,1.9019-1.0113.6865-2.0318,1.3545-3.0524,2.0133l-113.8834-176.5911-113.8834,176.5911c-.9556-.6216-1.9112-1.2525-2.8668-1.8834-.2041-.1392-.4082-.2783-.6123-.4175-.6773-.4546-1.3453-.9092-2.0133-1.3731-.7422-.5195-1.4844-1.0298-2.2174-1.5586-.5752-.4082-1.1504-.8164-1.7164-1.2339-1.6143-1.1597-3.2101-2.3565-4.7873-3.5719-.6494-.4917-1.2989-.9927-1.939-1.503-.6123-.4732-1.2154-.9556-1.8184-1.4473-.7886-.6216-1.5772-1.2617-2.3472-1.9019-1.0577-.8628-2.106-1.7442-3.1451-2.6349l137.3466-212.9874h0ZM449.2505,430.774l5.7429,6.0954c-6.2531,1.6607-12.6362,2.9874-19.0842,3.9523l8.4334-9.5746s0-2.5421-.4082-6.114c-.3989-3.442-1.169-7.8396-2.6905-11.8569-.5567-1.4844-1.2154-2.9132-1.9947-4.2213-6.2439-.9834-12.497-1.605-18.7502-1.8462l-7.951,13.4062,6.2068,18.7316,7.5427,2.6627c-5.6779.5381-11.393.8164-17.1173.8164h-18.3512c-5.7243,0-11.4394-.2783-17.1173-.8164l7.5427-2.6627,6.2068-18.7316-7.951-13.4062c-6.2532.2412-12.5063.8628-18.7502,1.8462-.7793,1.3082-1.438,2.7369-1.9947,4.2213-1.5215,4.0172-2.2916,8.4149-2.6905,11.8569-.4082,3.5719-.4082,6.114-.4082,6.114l8.4334,9.5746c-6.448-.9649-12.831-2.2916-19.0842-3.9523l5.7429-6.0954c.0464-2.5792.5288-14.6865,5.3161-23.4168h0l-2.44-5.3996c-1.5772,2.106-3.006,4.3234-4.2863,6.6428-.1856.334-.3618.668-.5381,1.002-.8628,1.6236-1.6422,3.3028-2.3472,5.0192-.1392.3433-.2783.6958-.4175,1.0484s-.269.7051-.3989,1.0577c-.3897,1.0669-.7515,2.1524-1.0762,3.2472-.1113.3618-.2134.7329-.3154,1.0948-.1021.3711-.2041.7422-.2969,1.1133-.0928.3711-.1856.7422-.269,1.1133-.065.2783-.1299.5567-.1948.835-.1484.6773-.2783,1.3545-.3989,2.0318-.0557.2783-.1021.5567-.1484.8257-.065.3897-.1206.77-.1763,1.1597s-.1113.7793-.1577,1.169c-.065.4824-.1206.9741-.167,1.4566-.0278.2691-.0464.5288-.0742.7886-.0278.3154-.0464.6309-.065.9463-.0278.334-.0464.6587-.065.9927-.0464.8536-.065,1.7164-.0742,2.5792-1.6422-.4546-3.2657-.9371-4.88-1.4566.4082-14.2969,5.6037-27.3969,14.0371-37.7508,11.5043-14.1299,29.0391-23.1478,48.6799-23.1478s37.1756,9.0179,48.6799,23.1478c8.4334,10.3539,13.6289,23.4539,14.0371,37.7508-1.6143.5195-3.2379,1.002-4.8801,1.4566-.0928-12.7846-4.3419-24.5858-11.4672-34.1233l-2.44,5.3903h0c4.7873,8.7396,5.2697,20.8469,5.3161,23.4261h0ZM326.3771,411.4115c-12.0239-5.2975-14.3526-13.0166-14.3526-13.0166,0,0,7.2644-3.4884,19.2883,1.8092,3.0987,1.3638,4.5089,4.9728,3.1359,8.0716-1.3638,3.0987-4.9728,4.4997-8.0716,3.1359h0ZM330.0046,421.6912c-.7793,3.2936-4.0822,5.3254-7.3757,4.5461-12.7846-3.0245-16.4771-10.1961-16.4771-10.1961,0,0,6.5036-4.7502,19.2975-1.7256,3.2936.7793,5.3347,4.0729,4.5553,7.3758h0ZM332.6209,397.7269c-10.7621-7.5335-11.5507-15.5586-11.5507-15.5586,0,0,7.8025-2.004,18.5739,5.5295,2.774,1.939,3.4513,5.7522,1.5123,8.5262-1.9483,2.774-5.7614,3.442-8.5355,1.503h0ZM362.6342,368.5858c1.7906,2.8668.937,6.6428-1.939,8.4427-2.8668,1.7999-6.6428.9278-8.4334-1.9297-6.9954-11.1332-4.5924-18.8337-4.5924-18.8337,0,0,7.9695,1.1875,14.9649,12.3207h0ZM363.933,347.9337s7.6262,2.5977,12.497,14.8071c1.2432,3.1451-.2783,6.7078-3.4235,7.9602-3.1451,1.2525-6.7077-.2876-7.9602-3.4235-4.8615-12.2094-1.1133-19.3439-1.1133-19.3439h0ZM350.3598,377.3161c2.2823,2.4864,2.1246,6.3645-.3711,8.6468-2.4957,2.2916-6.3738,2.1153-8.6561-.3711-8.8787-9.6952-7.9046-17.7018-7.9046-17.7018,0,0,8.053-.2691,16.9317,9.4261h0ZM381.7183,342.5156s6.9768,4.0265,9.3983,16.9503c.6216,3.3121-1.5679,6.5222-4.8986,7.1438-3.3214.6216-6.5222-1.5772-7.1438-4.8986-2.4122-12.9145,2.6441-19.1955,2.6441-19.1955h0ZM393.8814,359.2339c0-13.1465,6.1233-18.3883,6.1233-18.3883,0,0,6.1233,5.2419,6.1233,18.3883,0,3.3771-2.7369,6.1233-6.1233,6.1233s-6.1233-2.7462-6.1233-6.1233ZM408.8926,359.4659c2.4215-12.9238,9.3983-16.9503,9.3983-16.9503,0,0,5.0563,6.281,2.6441,19.1955-.6216,3.3214-3.8224,5.5202-7.1438,4.8986-3.3307-.6216-5.5202-3.8317-4.8986-7.1438h0ZM447.7475,375.0987c-1.7906,2.8575-5.5666,3.7296-8.4334,1.9297-2.8761-1.7999-3.7296-5.5759-1.939-8.4427,6.9954-11.1332,14.9649-12.3207,14.9649-12.3207,0,0,2.4029,7.7005-4.5925,18.8337h0ZM466.5812,367.89s.9741,8.0066-7.9046,17.7018c-2.2823,2.4864-6.1604,2.6627-8.6561.3711-2.4957-2.2823-2.6534-6.1604-.3711-8.6468,8.8787-9.6952,16.9317-9.4261,16.9317-9.4261h0ZM434.9629,367.2776c-1.2525,3.1359-4.8151,4.676-7.9602,3.4235s-4.6667-4.8151-3.4235-7.9602c4.8708-12.2094,12.497-14.8071,12.497-14.8071,0,0,3.7482,7.1345-1.1133,19.3439h0ZM458.8529,396.224c-1.939-2.774-1.2617-6.5871,1.5123-8.5262,10.7714-7.5335,18.5739-5.5295,18.5739-5.5295,0,0-.7886,8.0252-11.5507,15.5586-2.774,1.939-6.5871,1.271-8.5355-1.503h0ZM468.6965,400.2041c12.0238-5.2975,19.2883-1.8092,19.2883-1.8092,0,0-2.3287,7.719-14.3526,13.0166-3.0987,1.3638-6.7078-.0371-8.0716-3.1359-1.3731-3.0987.0371-6.7078,3.1359-8.0716h0ZM474.56,414.3154c12.7939-3.0245,19.2975,1.7256,19.2975,1.7256,0,0-3.6925,7.1716-16.4771,10.1961-3.2936.7793-6.5964-1.2525-7.3758-4.5461-.7793-3.3028,1.2617-6.5964,4.5553-7.3758h0ZM255.672,402.7183l2.5699,28.5381-26.2651,8.2015s23.6952-36.7396,23.6952-36.7396ZM263.493,434.7634l-3.4791-38.6415c1.5215,1.2896,3.0524,2.5606,4.611,3.7946.5381.4453,1.0762.8721,1.6236,1.2989.4639.3804.937.7422,1.4009,1.0948.4824.3804.9649.7608,1.4473,1.1133,1.5494,1.1875,3.108,2.3472,4.6852,3.4884.5567.4082,1.1133.8072,1.6793,1.2061.4082.2969.8164.5845,1.2247.8628.603.4175,1.1968.835,1.8091,1.2525.0557.0464.1113.0835.167.1113.7793.5381,1.5586,1.0669,2.3472,1.5865.8072.5474,1.6329,1.0855,2.4493,1.6143,10.2425,6.6243,20.3552,12.4414,30.7369,17.3307,1.0391.4917,2.0875.9649,3.1451,1.438.0278.0093.0557.0278.0835.0371.0371.0185.0649.0278.1021.0464.6587.2969,1.3267.5938,1.9947.8721.2319.102.4732.2041.7144.3062.2783.1206.5567.2412.835.3526s.5567.2227.835.3433c.0186,0,.0371.0185.0557.0278.4268.1763.8443.3526,1.271.5195,1.5494.6216,3.0987,1.2247,4.6667,1.7999.668.2505,1.336.4917,2.004.7329.1948.065.3804.1392.5752.2041.5474.1948,1.0855.3804,1.6329.5567.0928.0371.1763.065.269.0928.1113.0371.2227.0835.334.1206.5567.1856,1.1226.3711,1.6793.5567.9463.3154,1.9019.6123,2.8575.9092.0278.0093.065.0185.0928.0278,1.4751.4546,2.9596.8814,4.444,1.2989,1.4937.4082,2.9874.8072,4.4811,1.1783.7515.1856,1.503.3711,2.2452.5474.4732.1206.9649.2319,1.4473.334.0928.0278.1763.0464.269.065.1577.0371.3247.0742.4917.1113.0278,0,.0557.0093.0835.0185.7422.1577,1.4844.3247,2.2266.4732.5103.1113,1.0113.2041,1.5123.3154.1113.0185.2134.0464.3154.065.1299.0185.2505.0464.3804.0742h.065c5.4182,1.0669,10.8827,1.8834,16.3844,2.4493.6123.065,1.2154.1206,1.8277.1763,1.2525.1206,2.5143.2227,3.7667.3154.77.0557,1.5308.1113,2.3009.1484.167.0185.334.0278.501.0371.4732.0278.9463.0464,1.4102.0742.1577.0093.3062.0185.4639.0185.7793.0371,1.5494.0742,2.3287.0928.334.0185.6587.0278.9927.0371,1.0205.0278,2.0504.0557,3.0709.065.8257,0,1.6514.0185,2.4771.0185h18.3512c.8257,0,1.6514-.0093,2.4771-.0185,1.0205-.0093,2.0504-.0371,3.0709-.065.334-.0093.6587-.0185.9927-.0371.7793-.0185,1.5494-.0557,2.3287-.0928.1577,0,.3062-.0093.4639-.0185.4639-.0278.937-.0464,1.4102-.0742.167-.0093.334-.0185.501-.0371.77-.0371,1.5308-.0928,2.3009-.1484,1.2525-.0928,2.5143-.1948,3.7667-.3154.6123-.0557,1.2154-.1113,1.8277-.1763,5.5016-.5659,10.9662-1.3824,16.3843-2.4493h.065c.1299-.0278.2505-.0557.3804-.0742.102-.0185.2041-.0464.3154-.065.501-.1113,1.002-.2041,1.5123-.3154.7422-.1484,1.4844-.3154,2.2266-.4732.0278-.0093.0557-.0185.0835-.0185.167-.0371.334-.0742.4917-.1113.0928-.0185.1763-.0371.2691-.065.4824-.102.9741-.2134,1.4473-.334.7422-.1763,1.4937-.3618,2.2452-.5474,1.4937-.3711,2.9874-.77,4.4811-1.1783,1.4844-.4175,2.9689-.8443,4.444-1.2989.0278-.0093.065-.0185.0928-.0278.9556-.2969,1.9112-.5938,2.8575-.9092.5567-.1856,1.1226-.3711,1.6793-.5567.1113-.0371.2227-.0835.334-.1206.0928-.0278.1763-.0557.2691-.0928.5474-.1763,1.0855-.3618,1.6329-.5567.1948-.065.3804-.1392.5752-.2041.668-.2412,1.336-.4824,2.004-.7329,1.5679-.5752,3.1173-1.1783,4.6667-1.7999.4268-.167.8443-.3433,1.271-.5195.0185-.0093.0371-.0185.0557-.0278.2783-.1206.5567-.2319.835-.3433s.5567-.2319.835-.3526c.2412-.102.4824-.2041.7144-.3062.668-.2783,1.336-.5752,1.9947-.8721.0371-.0185.065-.0278.102-.0464.0278-.0093.0557-.0278.0835-.0371,1.0577-.4732,2.106-.9463,3.1451-1.438,10.3817-4.8893,20.4944-10.7064,30.7369-17.3307.8164-.5288,1.6421-1.0669,2.4493-1.6143.7886-.5195,1.5679-1.0484,2.3472-1.5865.0557-.0278.1113-.065.167-.1113.6123-.4175,1.2061-.835,1.8092-1.2525.4082-.2783.8164-.5659,1.2247-.8628.5659-.3989,1.1226-.7979,1.6793-1.2061,1.5772-1.1412,3.1359-2.3009,4.6852-3.4884.4824-.3526.9649-.7329,1.4473-1.1133.4639-.3526.9371-.7144,1.4009-1.0948.5474-.4268,1.0855-.8536,1.6236-1.2989.1113-.0742.2319-.167.3433-.2691.6958-.5659,1.3917-1.1319,2.0875-1.7071.7329-.5938,1.4566-1.2061,2.1803-1.8184l-3.4791,38.6415,35.6541,11.1425c-56.2598,63.8118-151.5507,66.1869-169.4195,66.1869-1.438,0-2.3751-.0185-2.7462-.0185s-1.3082.0185-2.7462.0185c-17.8595,0-113.1597-2.3751-169.4195-66.1869l35.6541-11.1425h0ZM400.0046,720.061l-172.2492-266.9463c19.2512,20.448,44.0968,36.2571,74.1564,47.1955.2134,2.5792.9463,6.6799,3.2008,12.0795,4.0822,9.7694,18.0822,12.7661,18.0822,12.7661l-3.1915,8.22c-5.2975,15.5772,2.6349,28.6031,13.7959,33.548l9.3055,3.5812c6.2253-34.8191,32.713-33.01,35.9046-31.6368,3.8131,2.6441,8.9808,14.6773-1.837,31.878-12.5805,17.8966-32.6388,16.1803-32.6388,16.1803,0,0,.3247,7.9695,5.3718,18.7409,1.3082,2.7926,3.108,5.3625,5.4274,7.3943,13.6011,11.9125,31.5905-1.4102,36.7303-4.2956-7.5335,40.3208,7.9417,65.2498,7.9417,65.2498,0,0,15.4752-24.9291,7.9417-65.2498,5.1398,2.8853,23.1292,16.2081,36.7303,4.2956,2.3194-2.0318,4.1193-4.6017,5.4274-7.3943,5.0471-10.7714,5.3718-18.7409,5.3718-18.7409,0,0-20.0583,1.7163-32.6388-16.1803-10.8178-17.2008-5.6501-29.2339-1.837-31.878,3.1915-1.3731,29.6793-3.1822,35.9046,31.6368l9.3055-3.5812c11.161-4.945,19.0934-17.9708,13.7959-33.548l-3.1915-8.22s14-2.9967,18.0822-12.7661c2.2545-5.3996,2.9874-9.5003,3.2008-12.0795,30.0596-10.9384,54.9052-26.7475,74.1564-47.1955l-172.2492,266.9463Z" style="fill: #ffcb05;"/>
      </g>
      <path d="M498.0974,500.3101c-.2134,2.5792-.9463,6.6799-3.2008,12.0795-4.0822,9.7694-18.0822,12.7661-18.0822,12.7661l3.1915,8.22c5.2975,15.5772-2.6349,28.6031-13.7959,33.548l-9.3055,3.5812c-6.2253-34.8191-32.713-33.01-35.9046-31.6368-3.8131,2.6441-8.9808,14.6773,1.837,31.878,12.5805,17.8966,32.6388,16.1803,32.6388,16.1803,0,0-.3247,7.9695-5.3718,18.7409-1.3082,2.7926-3.108,5.3625-5.4274,7.3943-13.6011,11.9125-31.5905-1.4102-36.7303-4.2956,7.5335,40.3208-7.9417,65.2498-7.9417,65.2498,0,0-15.4751-24.9291-7.9417-65.2498-5.1398,2.8853-23.1292,16.2081-36.7303,4.2956-2.3194-2.0318-4.1193-4.6017-5.4274-7.3943-5.0471-10.7714-5.3718-18.7409-5.3718-18.7409,0,0,20.0583,1.7163,32.6388-16.1803,10.8178-17.2008,5.6501-29.2339,1.837-31.878-3.1915-1.3731-29.6793-3.1822-35.9046,31.6368l-9.3055-3.5812c-11.161-4.945-19.0934-17.9708-13.7959-33.548l3.1915-8.22s-14-2.9967-18.0822-12.7661c-2.2545-5.3996-2.9874-9.5003-3.2008-12.0795-30.0596-10.9384-54.9052-26.7475-74.1564-47.1955l172.2492,266.9463,172.2492-266.9463c-19.2512,20.448-44.0967,36.2571-74.1564,47.1955h0ZM526.2273,406.9118c1.5772-1.1319,3.1359-2.2916,4.6852-3.4884-1.5494,1.1875-3.108,2.3472-4.6852,3.4884ZM400.0046,178.8946l-137.3466,212.9874c1.0391.8906,2.0875,1.772,3.1451,2.6349.77.6402,1.5586,1.2803,2.3472,1.9019.603.4917,1.2061.9741,1.8184,1.4473.6402.5103,1.2896,1.0113,1.939,1.503,1.5772,1.2154,3.173,2.4122,4.7873,3.5719.5659.4175,1.1412.8257,1.7164,1.2339.7329.5288,1.4751,1.0391,2.2174,1.5586.668.4639,1.336.9185,2.0133,1.3731.2041.1392.4082.2783.6123.4175.9556.6309,1.9112,1.2617,2.8668,1.8834l113.8834-176.5911,113.8834,176.5911c1.0205-.6587,2.0411-1.336,3.0524-2.0133.9278-.6216,1.8555-1.2617,2.774-1.9019,1.0855-.7515,2.1617-1.5123,3.2286-2.2823.8999-.6494,1.7999-1.3082,2.6905-1.9669.77-.5752,1.5308-1.1504,2.2823-1.7349.603-.4546,1.2061-.9185,1.7999-1.3824.5752-.4546,1.1504-.8999,1.7164-1.3638.6402-.501,1.2803-1.0205,1.9112-1.5494.4361-.3433.8721-.7051,1.3082-1.0669.9092-.7422,1.8092-1.503,2.6998-2.2638l-137.3466-212.9874h0ZM269.0967,403.4234c1.5494,1.1968,3.108,2.3565,4.6852,3.4884-1.5772-1.1412-3.1358-2.3009-4.6852-3.4884Z"/>
      <polygon points="258.2419 431.2565 231.9768 439.4579 255.672 402.7183 258.2419 431.2565"/>
      <polygon points="568.0325 439.4579 541.7674 431.2565 544.3373 402.7183 568.0325 439.4579"/>
      <path d="M572.1703,445.9059c-56.2598,63.8118-151.5507,66.1869-169.4195,66.1869-1.438,0-2.3751-.0185-2.7462-.0185s-1.3082.0185-2.7462.0185c-17.8595,0-113.1597-2.3751-169.4195-66.1869l35.6541-11.1425-3.4791-38.6415c1.5215,1.2896,3.0524,2.5606,4.611,3.7946.5381.4453,1.0762.8721,1.6236,1.2989.4639.3804.937.7422,1.4009,1.0948.4824.3804.9649.7608,1.4473,1.1133,1.5494,1.1968,3.108,2.3565,4.6852,3.4884.5567.4082,1.1133.8072,1.6793,1.2061.4082.2969.8164.5845,1.2247.8628.603.4175,1.1968.835,1.8091,1.2525.0557.0464.1113.0835.167.1113.7793.5381,1.5586,1.0669,2.3472,1.5865.8072.5474,1.6329,1.0855,2.4493,1.6143,10.2425,6.6243,20.3552,12.4414,30.7369,17.3307,1.0391.4917,2.0875.9649,3.1451,1.438.0278.0093.0557.0278.0835.0371.0371.0185.0649.0278.1021.0464.6587.2969,1.3267.5938,1.9947.8721.2319.102.4732.2041.7144.3062.2783.1206.5567.2412.835.3526s.5567.2227.835.3433c.0186,0,.0371.0185.0557.0278.4268.1763.8443.3526,1.271.5195,1.5494.6216,3.0987,1.2247,4.6667,1.7999.668.2505,1.336.4917,2.004.7329.1948.065.3804.1392.5752.2041.5474.1948,1.0855.3804,1.6329.5567.0928.0371.1763.065.269.0928.1113.0371.2227.0835.334.1206.5567.1856,1.1226.3711,1.6793.5567.9463.3154,1.9019.6123,2.8575.9092.0278.0093.065.0185.0928.0278,1.4751.4546,2.9596.8814,4.444,1.2989,1.4937.4082,2.9874.8072,4.4811,1.1783.7515.1856,1.503.3711,2.2452.5474.4732.1206.9649.2319,1.4473.334.0928.0278.1763.0464.269.065.1577.0371.3247.0742.4917.1113.0278,0,.0557.0093.0835.0185.7422.1577,1.4844.3247,2.2266.4732.5103.1113,1.0113.2041,1.5123.3154.1113.0185.2134.0464.3154.065.1299.0185.2505.0464.3804.0742h.065c5.4182,1.0669,10.8827,1.8834,16.3844,2.4493.6123.065,1.2154.1206,1.8277.1763,1.2525.1206,2.5143.2227,3.7667.3154.77.0557,1.5308.1113,2.3009.1484.167.0185.334.0278.501.0371.4732.0278.9463.0464,1.4102.0742.1577.0093.3062.0185.4639.0185.7793.0371,1.5494.0742,2.3287.0928.334.0185.6587.0278.9927.0371,1.0205.0278,2.0504.0557,3.0709.065.8257,0,1.6514.0185,2.4771.0185h18.3512c.8257,0,1.6514-.0093,2.4771-.0185,1.0205-.0093,2.0504-.0371,3.0709-.065.334-.0093.6587-.0185.9927-.0371.7793-.0185,1.5494-.0557,2.3287-.0928.1577,0,.3062-.0093.4639-.0185.4639-.0278.937-.0464,1.4102-.0742.167-.0093.334-.0185.501-.0371.77-.0371,1.5308-.0928,2.3009-.1484,1.2525-.0928,2.5143-.1948,3.7667-.3154.6123-.0557,1.2154-.1113,1.8277-.1763,5.5016-.5659,10.9662-1.3824,16.3843-2.4493h.065c.1299-.0278.2505-.0557.3804-.0742.102-.0185.2041-.0464.3154-.065.501-.1113,1.002-.2041,1.5123-.3154.7422-.1484,1.4844-.3154,2.2266-.4732.0278-.0093.0557-.0185.0835-.0185.167-.0371.334-.0742.4917-.1113.0928-.0185.1763-.0371.2691-.065.4824-.102.9741-.2134,1.4473-.334.7422-.1763,1.4937-.3618,2.2452-.5474,1.4937-.3711,2.9874-.77,4.4811-1.1783,1.4844-.4175,2.9689-.8443,4.444-1.2989.0278-.0093.065-.0185.0928-.0278.9556-.2969,1.9112-.5938,2.8575-.9092.5567-.1856,1.1226-.3711,1.6793-.5567.1113-.0371.2227-.0835.334-.1206.0928-.0278.1763-.0557.2691-.0928.5474-.1763,1.0855-.3618,1.6329-.5567.1948-.065.3804-.1392.5752-.2041.668-.2412,1.336-.4824,2.004-.7329,1.5679-.5752,3.1173-1.1783,4.6667-1.7999.4268-.167.8443-.3433,1.271-.5195.0185-.0093.0371-.0185.0557-.0278.2783-.1206.5567-.2319.835-.3433s.5567-.2319.835-.3526c.2412-.102.4824-.2041.7144-.3062.668-.2783,1.336-.5752,1.9947-.8721.0371-.0185.065-.0278.102-.0464.0278-.0093.0557-.0278.0835-.0371,1.0577-.4732,2.106-.9463,3.1451-1.438,10.3817-4.8893,20.4944-10.7064,30.7369-17.3307.8164-.5288,1.6421-1.0669,2.4493-1.6143.7886-.5195,1.5679-1.0484,2.3472-1.5865.0557-.0278.1113-.065.167-.1113.6123-.4175,1.2061-.835,1.8092-1.2525.4082-.2783.8164-.5659,1.2247-.8628.5659-.3989,1.1226-.7979,1.6793-1.2061,1.5772-1.1319,3.1359-2.2916,4.6852-3.4884.4824-.3526.9649-.7329,1.4473-1.1133.4639-.3526.9371-.7144,1.4009-1.0948.5474-.4268,1.0855-.8536,1.6236-1.2989.1113-.0742.2319-.167.3433-.2691.6958-.5659,1.3917-1.1319,2.0875-1.7071.7329-.5938,1.4566-1.2061,2.1803-1.8184l-3.4791,38.6415,35.6541,11.1425h0Z"/>
      <path d="M330.0046,421.6912c-.7793,3.2936-4.0822,5.3254-7.3757,4.5461-12.7846-3.0245-16.4771-10.1961-16.4771-10.1961,0,0,6.5036-4.7502,19.2975-1.7256,3.2936.7793,5.3347,4.0729,4.5553,7.3758h0Z"/>
      <path d="M334.4486,408.2757c-1.3638,3.0987-4.9728,4.4997-8.0716,3.1359-12.0239-5.2975-14.3526-13.0166-14.3526-13.0166,0,0,7.2644-3.4884,19.2883,1.8092,3.0987,1.3638,4.5089,4.9728,3.1359,8.0716h0Z"/>
      <path d="M341.1564,396.224c-1.9483,2.774-5.7614,3.442-8.5355,1.503-10.7621-7.5335-11.5507-15.5586-11.5507-15.5586,0,0,7.8025-2.004,18.5739,5.5295,2.774,1.939,3.4513,5.7522,1.5123,8.5262h0Z"/>
      <path d="M349.9887,385.9629c-2.4957,2.2916-6.3738,2.1153-8.6561-.3711-8.8787-9.6952-7.9046-17.7018-7.9046-17.7018,0,0,8.053-.2691,16.9317,9.4261,2.2823,2.4864,2.1246,6.3645-.3711,8.6468h0Z"/>
      <path d="M360.6951,377.0285c-2.8668,1.7999-6.6428.9278-8.4334-1.9297-6.9954-11.1332-4.5924-18.8337-4.5924-18.8337,0,0,7.9695,1.1875,14.9649,12.3207,1.7906,2.8668.937,6.6428-1.939,8.4427h0Z"/>
      <path d="M373.0066,370.7011c-3.1451,1.2525-6.7077-.2876-7.9602-3.4235-4.8615-12.2094-1.1133-19.3439-1.1133-19.3439,0,0,7.6262,2.5977,12.497,14.8071,1.2432,3.1451-.2783,6.7078-3.4235,7.9602h0Z"/>
      <path d="M386.218,366.6096c-3.3214.6216-6.5222-1.5772-7.1438-4.8986-2.4122-12.9145,2.6441-19.1955,2.6441-19.1955,0,0,6.9768,4.0265,9.3983,16.9503.6216,3.3121-1.5679,6.5222-4.8986,7.1438h0Z"/>
      <path d="M406.1279,359.2339c0,3.3771-2.7369,6.1233-6.1233,6.1233s-6.1233-2.7462-6.1233-6.1233c0-13.1465,6.1233-18.3883,6.1233-18.3883,0,0,6.1233,5.2419,6.1233,18.3883Z"/>
      <path d="M420.935,361.711c-.6216,3.3214-3.8224,5.5202-7.1438,4.8986-3.3307-.6216-5.5202-3.8317-4.8986-7.1438,2.4215-12.9238,9.3983-16.9503,9.3983-16.9503,0,0,5.0563,6.281,2.6441,19.1955h0Z"/>
      <path d="M434.9629,367.2776c-1.2525,3.1359-4.8151,4.676-7.9602,3.4235s-4.6667-4.8151-3.4235-7.9602c4.8708-12.2094,12.497-14.8071,12.497-14.8071,0,0,3.7482,7.1345-1.1133,19.3439h0Z"/>
      <path d="M447.7475,375.0987c-1.7906,2.8575-5.5666,3.7296-8.4334,1.9297-2.8761-1.7999-3.7296-5.5759-1.939-8.4427,6.9954-11.1332,14.9649-12.3207,14.9649-12.3207,0,0,2.4029,7.7005-4.5925,18.8337h0Z"/>
      <path d="M458.6766,385.5918c-2.2823,2.4864-6.1604,2.6627-8.6561.3711-2.4957-2.2823-2.6534-6.1604-.3711-8.6468,8.8787-9.6952,16.9317-9.4261,16.9317-9.4261,0,0,.9741,8.0066-7.9046,17.7018h0Z"/>
      <path d="M478.939,382.1683s-.7886,8.0252-11.5507,15.5586c-2.774,1.939-6.5871,1.271-8.5355-1.503-1.939-2.774-1.2617-6.5871,1.5123-8.5262,10.7714-7.5335,18.5739-5.5295,18.5739-5.5295h0Z"/>
      <path d="M487.9847,398.3949s-2.3287,7.719-14.3526,13.0166c-3.0987,1.3638-6.7078-.0371-8.0716-3.1359-1.3731-3.0987.0371-6.7078,3.1359-8.0716,12.0238-5.2975,19.2883-1.8092,19.2883-1.8092h0Z"/>
      <path d="M493.8575,416.0411s-3.6925,7.1716-16.4771,10.1961c-3.2936.7793-6.5964-1.2525-7.3758-4.5461-.7793-3.3028,1.2617-6.5964,4.5553-7.3758,12.7939-3.0245,19.2975,1.7256,19.2975,1.7256h0Z"/>
      <path d="M446.3744,401.9576c7.1252,9.5374,11.3744,21.3386,11.4672,34.1233,1.6421-.4546,3.2657-.9371,4.8801-1.4566-.4082-14.2969-5.6037-27.3969-14.0371-37.7508-11.5043-14.1299-29.0391-23.1478-48.6799-23.1478s-37.1756,9.0179-48.6799,23.1478c-8.4334,10.3539-13.6289,23.4539-14.0371,37.7508,1.6143.5195,3.2379,1.002,4.88,1.4566.0093-.8628.0278-1.7256.0742-2.5792.0186-.334.0371-.6587.065-.9927.0186-.3154.0371-.6309.065-.9463.0278-.2598.0464-.5195.0742-.7886.0464-.4824.1021-.9741.167-1.4566.0464-.3897.1021-.7793.1577-1.169s.1113-.77.1763-1.1597c.0464-.2691.0928-.5474.1484-.8257.1206-.6773.2505-1.3545.3989-2.0318.065-.2783.1299-.5567.1948-.835.0835-.3711.1763-.7422.269-1.1133.0928-.3711.1948-.7422.2969-1.1133.1021-.3618.2041-.7329.3154-1.0948.3247-1.0948.6866-2.1803,1.0762-3.2472.1299-.3526.2598-.7051.3989-1.0577s.2783-.7051.4175-1.0484c.7051-1.7164,1.4844-3.3956,2.3472-5.0192.1763-.334.3526-.668.5381-1.002,1.2803-2.3194,2.7091-4.5368,4.2863-6.6428l2.44,5.3903h0c-4.7873,8.7396-5.2697,20.8469-5.3161,23.4261l-5.7429,6.0954c6.2532,1.6607,12.6362,2.9874,19.0842,3.9523l-8.4334-9.5746s0-2.5421.4082-6.114c.3989-3.442,1.169-7.8396,2.6905-11.8569.5567-1.4844,1.2154-2.9132,1.9947-4.2213,6.2439-.9834,12.497-1.605,18.7502-1.8462l7.951,13.4062-6.2068,18.7316-7.5427,2.6627c5.6779.5381,11.393.8164,17.1173.8164h18.3512c5.7243,0,11.4394-.2783,17.1173-.8164l-7.5427-2.6627-6.2068-18.7316,7.951-13.4062c6.2532.2412,12.5063.8628,18.7502,1.8462.7793,1.3082,1.438,2.7369,1.9947,4.2213,1.5216,4.0172,2.2916,8.4149,2.6905,11.8569.4082,3.5719.4082,6.114.4082,6.114l-8.4334,9.5746c6.448-.9649,12.831-2.2916,19.0842-3.9523l-5.7429-6.0954c-.0464-2.5792-.5288-14.6865-5.3161-23.4168h0l2.44-5.3996h0ZM416.2684,404.6945l-7.2088,11.8105h-18.11l-7.2088-11.8105-.0557-.102c2.1339-7.2273,7.4407-11.5414,9.1385-12.7661.334-.2505.7329-.3804,1.1504-.4082l4.9079-.3062h.0093l1.1133-.0742,1.1133.0742h.0093l4.9079.3062c.4175.0278.8164.1577,1.1504.4082,1.6978,1.2247,7.0046,5.5388,9.1385,12.7661l-.0557.102h0ZM408.3174,386.9092c-.6216-.2134-1.2896-.3526-1.9761-.3989l-6.0305-.3804-.3062-.0185-.3062.0185-6.0305.3804c-.6866.0464-1.3545.1856-1.9761.3989l-9.4076-5.4831c5.5852-1.8092,11.5414-2.7833,17.7203-2.7833s12.1352.9741,17.7203,2.7833l-9.4076,5.4831Z"/>
      <path d="M330.0046,421.6912c-.7793,3.2936-4.0822,5.3254-7.3757,4.5461-12.7846-3.0245-16.4771-10.1961-16.4771-10.1961,0,0,6.5036-4.7502,19.2975-1.7256,3.2936.7793,5.3347,4.0729,4.5553,7.3758h0Z" style="fill: #ffcb05;"/>
      <path d="M334.4486,408.2757c-1.3638,3.0987-4.9728,4.4997-8.0716,3.1359-12.0239-5.2975-14.3526-13.0166-14.3526-13.0166,0,0,7.2644-3.4884,19.2883,1.8092,3.0987,1.3638,4.5089,4.9728,3.1359,8.0716h0Z" style="fill: #ffcb05;"/>
      <path d="M341.1564,396.224c-1.9483,2.774-5.7614,3.442-8.5355,1.503-10.7621-7.5335-11.5507-15.5586-11.5507-15.5586,0,0,7.8025-2.004,18.5739,5.5295,2.774,1.939,3.4513,5.7522,1.5123,8.5262h0Z" style="fill: #ffcb05;"/>
      <path d="M349.9887,385.9629c-2.4957,2.2916-6.3738,2.1153-8.6561-.3711-8.8787-9.6952-7.9046-17.7018-7.9046-17.7018,0,0,8.053-.2691,16.9317,9.4261,2.2823,2.4864,2.1246,6.3645-.3711,8.6468h0Z" style="fill: #ffcb05;"/>
      <path d="M360.6951,377.0285c-2.8668,1.7999-6.6428.9278-8.4334-1.9297-6.9954-11.1332-4.5924-18.8337-4.5924-18.8337,0,0,7.9695,1.1875,14.9649,12.3207,1.7906,2.8668.937,6.6428-1.939,8.4427h0Z" style="fill: #ffcb05;"/>
      <path d="M373.0066,370.7011c-3.1451,1.2525-6.7077-.2876-7.9602-3.4235-4.8615-12.2094-1.1133-19.3439-1.1133-19.3439,0,0,7.6262,2.5977,12.497,14.8071,1.2432,3.1451-.2783,6.7078-3.4235,7.9602h0Z" style="fill: #ffcb05;"/>
      <path d="M386.218,366.6096c-3.3214.6216-6.5222-1.5772-7.1438-4.8986-2.4122-12.9145,2.6441-19.1955,2.6441-19.1955,0,0,6.9768,4.0265,9.3983,16.9503.6216,3.3121-1.5679,6.5222-4.8986,7.1438h0Z" style="fill: #ffcb05;"/>
      <path d="M406.1279,359.2339c0,3.3771-2.7369,6.1233-6.1233,6.1233s-6.1233-2.7462-6.1233-6.1233c0-13.1465,6.1233-18.3883,6.1233-18.3883,0,0,6.1233,5.2419,6.1233,18.3883Z" style="fill: #ffcb05;"/>
      <path d="M420.935,361.711c-.6216,3.3214-3.8224,5.5202-7.1438,4.8986-3.3307-.6216-5.5202-3.8317-4.8986-7.1438,2.4215-12.9238,9.3983-16.9503,9.3983-16.9503,0,0,5.0563,6.281,2.6441,19.1955h0Z" style="fill: #ffcb05;"/>
      <path d="M434.9629,367.2776c-1.2525,3.1359-4.8151,4.676-7.9602,3.4235s-4.6667-4.8151-3.4235-7.9602c4.8708-12.2094,12.497-14.8071,12.497-14.8071,0,0,3.7482,7.1345-1.1133,19.3439h0Z" style="fill: #ffcb05;"/>
      <path d="M447.7475,375.0987c-1.7906,2.8575-5.5666,3.7296-8.4334,1.9297-2.8761-1.7999-3.7296-5.5759-1.939-8.4427,6.9954-11.1332,14.9649-12.3207,14.9649-12.3207,0,0,2.4029,7.7005-4.5925,18.8337h0Z" style="fill: #ffcb05;"/>
      <path d="M458.6766,385.5918c-2.2823,2.4864-6.1604,2.6627-8.6561.3711-2.4957-2.2823-2.6534-6.1604-.3711-8.6468,8.8787-9.6952,16.9317-9.4261,16.9317-9.4261,0,0,.9741,8.0066-7.9046,17.7018h0Z" style="fill: #ffcb05;"/>
      <path d="M478.939,382.1683s-.7886,8.0252-11.5507,15.5586c-2.774,1.939-6.5871,1.271-8.5355-1.503-1.939-2.774-1.2617-6.5871,1.5123-8.5262,10.7714-7.5335,18.5739-5.5295,18.5739-5.5295h0Z" style="fill: #ffcb05;"/>
      <path d="M487.9847,398.3949s-2.3287,7.719-14.3526,13.0166c-3.0987,1.3638-6.7078-.0371-8.0716-3.1359-1.3731-3.0987.0371-6.7078,3.1359-8.0716,12.0238-5.2975,19.2883-1.8092,19.2883-1.8092h0Z" style="fill: #ffcb05;"/>
      <path d="M493.8575,416.0411s-3.6925,7.1716-16.4771,10.1961c-3.2936.7793-6.5964-1.2525-7.3758-4.5461-.7793-3.3028,1.2617-6.5964,4.5553-7.3758,12.7939-3.0245,19.2975,1.7256,19.2975,1.7256h0Z" style="fill: #ffcb05;"/>
      <path d="M446.3744,401.9576c7.1252,9.5374,11.3744,21.3386,11.4672,34.1233,1.6421-.4546,3.2657-.9371,4.8801-1.4566-.4082-14.2969-5.6037-27.3969-14.0371-37.7508-11.5043-14.1299-29.0391-23.1478-48.6799-23.1478s-37.1756,9.0179-48.6799,23.1478c-8.4334,10.3539-13.6289,23.4539-14.0371,37.7508,1.6143.5195,3.2379,1.002,4.88,1.4566.0093-.8628.0278-1.7256.0742-2.5792.0186-.334.0371-.6587.065-.9927.0186-.3154.0371-.6309.065-.9463.0278-.2598.0464-.5195.0742-.7886.0464-.4824.1021-.9741.167-1.4566.0464-.3897.1021-.7793.1577-1.169s.1113-.77.1763-1.1597c.0464-.2691.0928-.5474.1484-.8257.1206-.6773.2505-1.3545.3989-2.0318.065-.2783.1299-.5567.1948-.835.0835-.3711.1763-.7422.269-1.1133.0928-.3711.1948-.7422.2969-1.1133.1021-.3618.2041-.7329.3154-1.0948.3247-1.0948.6866-2.1803,1.0762-3.2472.1299-.3526.2598-.7051.3989-1.0577s.2783-.7051.4175-1.0484c.7051-1.7164,1.4844-3.3956,2.3472-5.0192.1763-.334.3526-.668.5381-1.002,1.2803-2.3194,2.7091-4.5368,4.2863-6.6428l2.44,5.3903h0c-4.7873,8.7396-5.2697,20.8469-5.3161,23.4261l-5.7429,6.0954c6.2532,1.6607,12.6362,2.9874,19.0842,3.9523l-8.4334-9.5746s0-2.5421.4082-6.114c.3989-3.442,1.169-7.8396,2.6905-11.8569.5567-1.4844,1.2154-2.9132,1.9947-4.2213,6.2439-.9834,12.497-1.605,18.7502-1.8462l7.951,13.4062-6.2068,18.7316-7.5427,2.6627c5.6779.5381,11.393.8164,17.1173.8164h18.3512c5.7243,0,11.4394-.2783,17.1173-.8164l-7.5427-2.6627-6.2068-18.7316,7.951-13.4062c6.2532.2412,12.5063.8628,18.7502,1.8462.7793,1.3082,1.438,2.7369,1.9947,4.2213,1.5216,4.0172,2.2916,8.4149,2.6905,11.8569.4082,3.5719.4082,6.114.4082,6.114l-8.4334,9.5746c6.448-.9649,12.831-2.2916,19.0842-3.9523l-5.7429-6.0954c-.0464-2.5792-.5288-14.6865-5.3161-23.4168h0l2.44-5.3996h0ZM416.2684,404.6945l-7.2088,11.8105h-18.11l-7.2088-11.8105-.0557-.102c2.1339-7.2273,7.4407-11.5414,9.1385-12.7661.334-.2505.7329-.3804,1.1504-.4082l4.9079-.3062h.0093l1.1133-.0742,1.1133.0742h.0093l4.9079.3062c.4175.0278.8164.1577,1.1504.4082,1.6978,1.2247,7.0046,5.5388,9.1385,12.7661l-.0557.102h0ZM408.3174,386.9092c-.6216-.2134-1.2896-.3526-1.9761-.3989l-6.0305-.3804-.3062-.0185-.3062.0185-6.0305.3804c-.6866.0464-1.3545.1856-1.9761.3989l-9.4076-5.4831c5.5852-1.8092,11.5414-2.7833,17.7203-2.7833s12.1352.9741,17.7203,2.7833l-9.4076,5.4831Z" style="fill: #ffcb05;"/>
    </g>
    <path d="M446.3744,401.9576c7.1252,9.5374,11.3744,21.3386,11.4672,34.1233,1.6421-.4546,3.2657-.9371,4.8801-1.4566-.4082-14.2969-5.6037-27.3969-14.0371-37.7508-11.5043-14.1299-29.0391-23.1478-48.6799-23.1478s-37.1756,9.0179-48.6799,23.1478c-8.4334,10.3539-13.6289,23.4539-14.0371,37.7508,1.6143.5195,3.2379,1.002,4.88,1.4566.0093-.8628.0278-1.7256.0742-2.5792.0186-.334.0371-.6587.065-.9927.0186-.3154.0371-.6309.065-.9463.0278-.2598.0464-.5195.0742-.7886.0464-.4824.1021-.9741.167-1.4566.0464-.3897.1021-.7793.1577-1.169s.1113-.77.1763-1.1597c.0464-.2691.0928-.5474.1484-.8257.1206-.6773.2505-1.3545.3989-2.0318.065-.2783.1299-.5567.1948-.835.0835-.3711.1763-.7422.269-1.1133.0928-.3711.1948-.7422.2969-1.1133.1021-.3618.2041-.7329.3154-1.0948.3247-1.0948.6866-2.1803,1.0762-3.2472.1299-.3526.2598-.7051.3989-1.0577s.2783-.7051.4175-1.0484c.7051-1.7164,1.4844-3.3956,2.3472-5.0192.1763-.334.3526-.668.5381-1.002,1.2803-2.3194,2.7091-4.5368,4.2863-6.6428l2.44,5.3903h0c-4.7873,8.7396-5.2697,20.8469-5.3161,23.4261l-5.7429,6.0954c6.2532,1.6607,12.6362,2.9874,19.0842,3.9523l-8.4334-9.5746s0-2.5421.4082-6.114c.3989-3.442,1.169-7.8396,2.6905-11.8569.5567-1.4844,1.2154-2.9132,1.9947-4.2213,6.2439-.9834,12.497-1.605,18.7502-1.8462l7.951,13.4062-6.2068,18.7316-7.5427,2.6627c5.6779.5381,11.393.8164,17.1173.8164h18.3512c5.7243,0,11.4394-.2783,17.1173-.8164l-7.5427-2.6627-6.2068-18.7316,7.951-13.4062c6.2532.2412,12.5063.8628,18.7502,1.8462.7793,1.3082,1.438,2.7369,1.9947,4.2213,1.5216,4.0172,2.2916,8.4149,2.6905,11.8569.4082,3.5719.4082,6.114.4082,6.114l-8.4334,9.5746c6.448-.9649,12.831-2.2916,19.0842-3.9523l-5.7429-6.0954c-.0464-2.5792-.5288-14.6865-5.3161-23.4168h0l2.44-5.3996h0ZM416.2684,404.6945l-7.2088,11.8105h-18.11l-7.2088-11.8105-.0557-.102c2.1339-7.2273,7.4407-11.5414,9.1385-12.7661.334-.2505.7329-.3804,1.1504-.4082l4.9079-.3062h.0093l1.1133-.0742,1.1133.0742h.0093l4.9079.3062c.4175.0278.8164.1577,1.1504.4082,1.6978,1.2247,7.0046,5.5388,9.1385,12.7661l-.0557.102h0ZM408.3174,386.9092c-.6216-.2134-1.2896-.3526-1.9761-.3989l-6.0305-.3804-.3062-.0185-.3062.0185-6.0305.3804c-.6866.0464-1.3545.1856-1.9761.3989l-9.4076-5.4831c5.5852-1.8092,11.5414-2.7833,17.7203-2.7833s12.1352.9741,17.7203,2.7833l-9.4076,5.4831Z"/>
    <path d="M417.725,381.4261l-9.4076,5.4831c-.6216-.2134-1.2896-.3526-1.9761-.3989l-6.0305-.3804-.3062-.0185-.3062.0185-6.0305.3804c-.6866.0464-1.3545.1856-1.9761.3989l-9.4076-5.4831c5.5852-1.8092,11.5414-2.7833,17.7203-2.7833s12.1352.9741,17.7203,2.7833Z" style="fill: #ffcb05;"/>
    <path d="M416.324,404.5924l-.0557.102-7.2088,11.8105h-18.11l-7.2088-11.8105-.0557-.102c2.1339-7.2273,7.4407-11.5414,9.1385-12.7661.334-.2505.7329-.3804,1.1504-.4082l4.9079-.3062h.0093l1.1133-.0742,1.1133.0742h.0093l4.9079.3062c.4175.0278.8164.1577,1.1504.4082,1.6978,1.2247,7.0046,5.5388,9.1385,12.7661h0Z" style="fill: #ffcb05;"/>
    <g>
      <g>
        <path d="M330.0046,421.6912c-.7793,3.2936-4.0822,5.3254-7.3757,4.5461-12.7846-3.0245-16.4771-10.1961-16.4771-10.1961,0,0,6.5036-4.7502,19.2975-1.7256,3.2936.7793,5.3347,4.0729,4.5553,7.3758h0Z"/>
        <path d="M334.4486,408.2757c-1.3638,3.0987-4.9728,4.4997-8.0716,3.1359-12.0239-5.2975-14.3526-13.0166-14.3526-13.0166,0,0,7.2644-3.4884,19.2883,1.8092,3.0987,1.3638,4.5089,4.9728,3.1359,8.0716h0Z"/>
        <path d="M341.1564,396.224c-1.9483,2.774-5.7614,3.442-8.5355,1.503-10.7621-7.5335-11.5507-15.5586-11.5507-15.5586,0,0,7.8025-2.004,18.5739,5.5295,2.774,1.939,3.4513,5.7522,1.5123,8.5262h0Z"/>
        <path d="M349.9887,385.9629c-2.4957,2.2916-6.3738,2.1153-8.6561-.3711-8.8787-9.6952-7.9046-17.7018-7.9046-17.7018,0,0,8.053-.2691,16.9317,9.4261,2.2823,2.4864,2.1246,6.3645-.3711,8.6468h0Z"/>
        <path d="M360.6951,377.0285c-2.8668,1.7999-6.6428.9278-8.4334-1.9297-6.9954-11.1332-4.5924-18.8337-4.5924-18.8337,0,0,7.9695,1.1875,14.9649,12.3207,1.7906,2.8668.937,6.6428-1.939,8.4427h0Z"/>
        <path d="M373.0066,370.7011c-3.1451,1.2525-6.7077-.2876-7.9602-3.4235-4.8615-12.2094-1.1133-19.3439-1.1133-19.3439,0,0,7.6262,2.5977,12.497,14.8071,1.2432,3.1451-.2783,6.7078-3.4235,7.9602h0Z"/>
        <path d="M386.218,366.6096c-3.3214.6216-6.5222-1.5772-7.1438-4.8986-2.4122-12.9145,2.6441-19.1955,2.6441-19.1955,0,0,6.9768,4.0265,9.3983,16.9503.6216,3.3121-1.5679,6.5222-4.8986,7.1438h0Z"/>
        <path d="M406.1279,359.2339c0,3.3771-2.7369,6.1233-6.1233,6.1233s-6.1233-2.7462-6.1233-6.1233c0-13.1465,6.1233-18.3883,6.1233-18.3883,0,0,6.1233,5.2419,6.1233,18.3883Z"/>
      </g>
      <g>
        <path d="M493.8575,416.0411s-3.6925,7.1716-16.4771,10.1961c-3.2936.7793-6.5964-1.2525-7.3758-4.5461-.7793-3.3028,1.2617-6.5964,4.5553-7.3758,12.7939-3.0245,19.2975,1.7256,19.2975,1.7256h0Z"/>
        <path d="M487.9847,398.3949s-2.3287,7.719-14.3526,13.0166c-3.0987,1.3638-6.7078-.0371-8.0716-3.1359-1.3731-3.0987.0371-6.7078,3.1359-8.0716,12.0238-5.2975,19.2883-1.8092,19.2883-1.8092h0Z"/>
        <path d="M478.939,382.1683s-.7886,8.0252-11.5507,15.5586c-2.774,1.939-6.5871,1.271-8.5355-1.503-1.939-2.774-1.2617-6.5871,1.5123-8.5262,10.7714-7.5335,18.5739-5.5295,18.5739-5.5295h0Z"/>
        <path d="M458.6766,385.5918c-2.2823,2.4864-6.1604,2.6627-8.6561.3711-2.4957-2.2823-2.6534-6.1604-.3711-8.6468,8.8787-9.6952,16.9317-9.4261,16.9317-9.4261,0,0,.9741,8.0066-7.9046,17.7018h0Z"/>
        <path d="M447.7475,375.0987c-1.7906,2.8575-5.5666,3.7296-8.4334,1.9297-2.8761-1.7999-3.7296-5.5759-1.939-8.4427,6.9954-11.1332,14.9649-12.3207,14.9649-12.3207,0,0,2.4029,7.7005-4.5925,18.8337h0Z"/>
        <path d="M434.9629,367.2776c-1.2525,3.1359-4.8151,4.676-7.9602,3.4235s-4.6667-4.8151-3.4235-7.9602c4.8708-12.2094,12.497-14.8071,12.497-14.8071,0,0,3.7482,7.1345-1.1133,19.3439h0Z"/>
        <path d="M420.935,361.711c-.6216,3.3214-3.8224,5.5202-7.1438,4.8986-3.3307-.6216-5.5202-3.8317-4.8986-7.1438,2.4215-12.9238,9.3983-16.9503,9.3983-16.9503,0,0,5.0563,6.281,2.6441,19.1955h0Z"/>
      </g>
    </g>
    <path d="M526.2273,406.9118c1.5772-1.1319,3.1359-2.2916,4.6852-3.4884-1.5494,1.1875-3.108,2.3472-4.6852,3.4884ZM269.0967,403.4234c1.5494,1.1968,3.108,2.3565,4.6852,3.4884-1.5772-1.1412-3.1358-2.3009-4.6852-3.4884ZM526.2273,406.9118c1.5772-1.1319,3.1359-2.2916,4.6852-3.4884-1.5494,1.1875-3.108,2.3472-4.6852,3.4884ZM269.0967,403.4234c1.5494,1.1968,3.108,2.3565,4.6852,3.4884-1.5772-1.1412-3.1358-2.3009-4.6852-3.4884Z" style="fill: #ffcb05;"/>
  </g>
  <path d="M296.605,440.2094c-2.4771-.7237-4.3976-.3989-5.5388,1.8927l-5.5944,10.725s20.5964-4.045,20.9026-4.7687c.6216-1.4288-.0835-2.839-1.7349-3.6183l-1.3453-.6309.5381-.9834,13.4897,6.6706-.5381.9834c-5.279-2.0133-22.4983,3.4235-22.4983,3.4235l4.0265,22.0623c.4175,2.5977,1.6329,4.1378,3.4791,5.3254l1.5958.7515-4.8151,9.7601-1.8648-.2598c.3433-6.4387.2969-10.7157-5.3254-13.499l-6.615-3.2379s-.5103-.8999.4175-.9185c1.2618-.0278,3.275.0464,3.5441-.5659.1948-.3433.1484-1.104,0-2.7833l-3.2008-15.1783-1.3453.1856-5.2048,9.6302c-1.6421,2.6905-1.2525,4.4254,1.9112,6.1047l.0464,1.605-17.5348-8.8602.8907-1.2247c3.3307,1.3824,4.8986,1.4751,6.2995-1.3267l12.228-23.4447c2.3751-4.3698-2.5328-6.1696-2.5328-6.1696l.3433-1.1319,15.9205,7.9881.0742,1.4751-.0186.0185Z" style="fill: #ffcb05;"/>
  <path d="M392.0351,468.1537c0-5.4553-5.0749-4.6945-5.0749-4.6945l.0464-1.0855,18.8151.1856-.0464,1.5216-1.0205-.0278c-3.0152.0278-3.8966,1.0762-3.8781,4.3419l-.7515,26.0146c-.2041,3.1451.6216,4.1286,3.6276,4.3791l1.0205.0278-.0371,1.1226-18.7409-.4917.0278-1.1226,1.0762.0278c3.0152-.0835,4.0636-1.2525,4.0451-4.4069l.6123-20.7727-13.4248,19.8635c0,3.1173.7051,4.8801,3.6554,5.1305l1.0762.0278-.0278,1.1226-18.6481-.4917.0278-1.1226,1.0762.0278c3.0152-.0835,3.8966-1.0205,3.8781-4.175l.7515-26.2651c.2041-3.2565-.6123-4.2956-3.6276-4.5461l-1.0762-.0278.0278-1.1226,18.8151.668-.0371,1.1875s-5.1305-.6309-5.1305,5.3903l-.6773,18.8708,13.6011-19.5573h.0185ZM382.9801,454.9702c-.0186.3247-.0835.5381-.3989,1.3917-.065.1577-.0742.3804-.0835.5381-.0371.8721,1.5401,1.6978,3.3121,1.772,1.8277.0742,3.4791-.6123,3.5162-1.4844,0-.167-.0371-.3247-.0835-.5474-.1299-.77-.167-1.1504-.1577-1.4195.065-1.3545,1.3824-2.3287,2.9967-2.2638,1.8277.0742,3.0523,1.3731,2.9689,3.1637-.1392,3.0338-3.7111,4.7316-9.3704,4.4997-5.4924-.2319-8.8509-2.273-8.721-5.2512.0835-1.7906,1.4102-2.9874,3.1915-2.9132,1.6607.0742,2.8946,1.1504,2.839,2.505l-.0093.0093Z" style="fill: #ffcb05;"/>
  <path d="M433.7753,492.554c.2319,3.1915,1.2247,4.0636,4.3698,3.9152l1.8834-.1948.1299,1.1319-19.3903,1.9854-.1299-1.1319,1.0577-.1113c3.108-.4917,3.8873-1.5494,3.4699-4.713l-2.9503-26.664c-.2319-3.1915-1.2247-4.0636-4.3048-3.9152l-1.1783.1206-.1299-1.1319,17.0152-1.7349c3.8873-.3989,5.9377-.2041,8.4241.6865,3.6739,1.4009,5.9563,4.2677,6.3738,8.0716.3989,3.6276-1.0948,6.8283-4.0265,8.8509-2.6163,1.6978-5.6779,2.5885-10.7992,3.1173-.9463.0928.3154-.0464-1.104.0464l1.2896,11.6899v-.0186ZM432.2352,478.5911c.9463-.0371.334-.0278.9834-.0928,5.2419-.5381,7.218-3.1451,6.5964-8.7674-.3804-3.4049-1.605-5.9192-3.3121-6.7727-1.0205-.5845-2.5885-.77-4.4718-.5752-.9463.0928-.3804.0835-1.5586.2598l1.7628,15.939v.0093Z" style="fill: #ffcb05;"/>
  <path d="M497.6335,484.7607l-17.8317,4.5089-.3618-1.2989c.7608-.3062,1.4195-.5288,1.6978-.603,1.8648-.6494,2.4679-1.3174,2.1617-2.3936-.3247-1.1875-1.5401-2.9596-4.5275-6.5964l-12.3764,3.1266-.2598,2.3194c-.3897,2.9317-.4361,4.4997-.2412,5.2048.3897,1.4009,1.7906,1.6885,5.112,1.0762l.3618,1.2989-11.1889,2.8297-.3618-1.2989c2.505-1.1504,2.9781-2.0782,3.6832-7.5799l4.1842-32.0822,1.5772-.3989,19.947,24.7064c4.8151,5.8913,5.6501,6.4851,8.0623,5.8728l.3618,1.2989v.0093ZM477.3711,476.5407l-9.1199-11.4394-1.6236,14.1577,10.7435-2.7183h0Z" style="fill: #ffcb05;"/>
  <path d="M351.4546,497.1186l-17.9616-3.9337.2598-1.3174c.8164.065,1.503.1577,1.7906.2227,1.9576.2598,2.7926-.0742,3.006-1.1783.2412-1.2061-.0557-3.34-1.104-7.9231l-12.4692-2.7276-1.271,1.9576c-1.6607,2.4493-2.4029,3.8317-2.5421,4.5461-.2783,1.4288.8443,2.3101,4.0914,3.2472l-.2598,1.3174-11.2724-2.4679.2598-1.3174c2.7555.0928,3.5905-.5288,6.6799-5.1305l18.0822-26.831,1.5865.3433,6.8005,31.0152c1.6793,7.4221,2.1524,8.3221,4.5832,8.8602l-.2598,1.3174h0ZM337,480.7064l-3.0431-14.3154-7.7747,11.9404,10.827,2.3751h-.0093Z" style="fill: #ffcb05;"/>
  <path d="M522.1915,465.1014c1.5586,2.7369,3.4513,2.3101,6.3366.9927l.6309.9092-16.6163,8.9158-.6958-.8814.5938-.3433c2.7091-1.605,3.943-2.7648,2.171-5.3996l-15.1504-26.2836-2.2638,1.1875c-4.3605,2.0875-5.4089,5.8078-2.941,10.3632l-1.5308.7979-5.1955-8.3963,29.4195-15.3824,5.1955,8.3963-1.5308.7979c-2.9967-4.277-7.0046-5.3532-11.1889-2.9689l-2.2638,1.1875,15.0298,26.1073h0Z" style="fill: #ffcb05;"/>
  <line x1="296.605" y1="440.2094" x2="296.5308" y2="438.7342" style="fill: none;"/>
</svg>