<?xml version="1.0" encoding="UTF-8"?>
<svg id="_图层_1" data-name="图层_1" xmlns="http://www.w3.org/2000/svg" version="1.1" viewBox="0 0 800 800">
  <!-- Generator: Adobe Illustrator 29.1.0, SVG Export Plug-In . SVG Version: 2.1.0 Build 142)  -->
  <g>
    <path d="M424.7215,127.3157l-9.2763-29.0911,23.6454-17.8731v-1.2604h-29.5444l-9.2772-29.0911h-1.0336l-9.0499,29.0911h-29.5444v1.2604l23.3939,17.8731-9.0508,29.0911h1.6895l23.0664-17.2429,23.2928,17.2429h1.6886Z" style="fill: #00a032; fill-rule: evenodd;"/>
    <path d="M312.075,158.147l-9.2513-29.1165,23.6203-17.8731v-1.2353h-29.5444l-9.2772-29.0911h-1.0336l-9.0499,29.0911h-29.5444v1.2604l23.3939,17.8479-9.0499,29.1165h1.6886l23.0915-17.2685,23.2677,17.2685h1.6886Z" style="fill: #00a032; fill-rule: evenodd;"/>
    <path d="M487.8578,158.147l9.2772-29.1165-23.6212-17.8731v-1.2353h29.5453l9.2513-29.0911h1.0595l9.0499,29.0911h29.5444v1.2604l-23.3939,17.8479,9.0499,29.1165h-1.6887l-23.0914-17.2685-23.2678,17.2685h-1.7146Z" style="fill: #00a032; fill-rule: evenodd;"/>
    <path d="M218.016,227.1188l-9.2516-29.0907,23.6207-17.8985v-1.2349h-29.5448l-9.2769-29.0916h-1.0336l-9.05,29.0916h-29.57v1.26l23.4191,17.8734-9.05,29.0907h1.689l23.0914-17.2676,23.2678,17.2676h1.689Z" style="fill: #00a032; fill-rule: evenodd;"/>
    <path d="M631.4429,227.1188l-9.2772-29.0907,23.6463-17.8985v-1.2349h-29.5704l-9.2512-29.0916h-1.0336l-9.0499,29.0916h-29.5704v1.26l23.419,17.8734-9.0499,29.0907h1.6895l23.0655-17.2676,23.2677,17.2676h1.7146Z" style="fill: #00a032; fill-rule: evenodd;"/>
  </g>
  <g>
    <path d="M400.0094,707.4959c-30.9565-27.6795-61.2321-39.9304-86.5169-50.14-29.2169-11.7981-50.3423-20.3442-67.4586-48.8049-11.4956-19.0833-17.5709-41.5188-17.5709-64.8876v-167.9669c0-23.1415-5.067-45.3757-15.0749-66.1226-1.5629-3.2019-3.2267-6.3527-5.0165-9.4535,35.5192-12.5793,60.5767-33.6286,83.5169-52.8882,32.0662-26.9484,57.4011-48.225,108.121-48.225s77.1144,22.2601,105.2225,45.8044l2.8484,2.3956c22.9152,19.2596,47.9977,40.334,83.5172,52.8882-13.008,22.7129-20.0668,48.6528-20.0668,75.5761v167.9669c0,23.3178-6.0753,45.7793-17.5701,64.9127-16.3109,27.0996-34.7884,35.5696-66.0474,48.225l-1.4873.605c-25.2597,10.2097-55.5102,22.4615-86.4417,50.115h.0251Z" style="fill: #005fe6;"/>
    <path d="M525.1805,352.5817v164.2111h-1.4622l-32.8725-32.9986c-4.6131-4.6131-10.8647-7.2091-17.3687-7.2091h-31.4863v31.5104c0,6.504,2.5969,12.7305,7.185,17.3446l32.9986,32.9727v1.4623h-164.2111v-1.4623l32.9986-32.9727c4.588-4.614,7.1841-10.8656,7.1841-17.3446v-31.4854h-31.6366c-6.529,0-12.7816,2.596-17.3696,7.21l-32.8716,32.9978h-1.4622v-164.2612h1.4622l32.8716,32.9986c4.614,4.6131,10.8656,7.2101,17.3696,7.2101h31.6366v-31.5114c0-6.504-2.596-12.7305-7.1841-17.3436l-32.9986-32.9736v-1.4622h164.186v1.4622l-32.9986,32.9736c-4.588,4.6131-7.185,10.8647-7.185,17.3436v31.5114h31.4863c6.529,0,12.7807-2.597,17.3687-7.2101l32.8725-32.9986h1.4622l.0251.0251Z" style="fill: #fff;"/>
    <g>
      <path d="M336.2967,438.5939c0,2.597.1772,4.7393.5298,6.4029.3526,1.6644.9835,2.9746,1.8909,3.933.9325.9575,2.1933,1.6134,3.8059,1.9911,1.6135.3785,3.6806.5548,6.2275.5548h7.5367c1.2358,0,2.6721,0,4.3106-.0501,1.6394-.051,3.6055-.0761,5.9241-.1262l-2.596,14.1677c-1.966.0501-3.6046.1002-4.9666.1253-1.3611.0259-2.571.051-3.6296.051h-7.7139c-5.244,0-9.6808-.4537-13.3104-1.3871-3.6305-.9325-6.5792-2.4448-8.8736-4.537-2.2685-2.0922-3.9321-4.8905-4.9657-8.3447-1.0336-3.4534-1.5634-7.764-1.5634-12.8818v-7.6879c0-4.8905.5298-9.0758,1.5634-12.5292,1.0336-3.4534,2.6972-6.2516,5.0158-8.3949,2.2945-2.1423,5.269-3.6806,8.8736-4.6632,3.6055-.9835,7.9913-1.4622,13.1842-1.4622h7.7899c1.2859,0,2.7983,0,4.5379.0501,1.7387.0251,3.7809.0761,6.1505.1262l-2.596,14.1677c-2.7732-.1262-5.0927-.1763-7.0087-.1763h-7.764c-2.5459,0-4.6131.1763-6.2266.5539-1.6135.3785-2.8994,1.0336-3.8068,1.992-.9325.9575-1.5374,2.2685-1.8649,3.9321-.3284,1.6645-.4796,3.8068-.4796,6.4037v7.789h.0251Z" style="fill: #001e73;"/>
      <path d="M375.0772,403.9057h31.4612c6.5792,0,11.3435,1.2859,14.3181,3.8569,2.9755,2.5719,4.4628,6.3778,4.4628,11.4446v1.1347c0,6.0001-2.3956,10.1596-7.185,12.4531,2.8743,1.0846,5.0919,2.7732,6.6552,5.0668,1.5634,2.2694,2.3446,5.269,2.3446,8.9497v1.5625c0,6.0503-1.8148,10.4119-5.4453,13.1091-3.6296,2.6721-9.075,4.0082-16.3351,4.0082h-30.2505v-61.5605l-.0259-.0251ZM409.2857,421.6279c0-1.8408-.4537-3.1509-1.3862-3.933-.9325-.7812-2.4958-1.1597-4.7643-1.1597h-12.6044v11.3193h12.352c2.3696,0,4.0082-.4286,4.9666-1.2609.9575-.8313,1.4363-2.1933,1.4363-4.1084v-.8573ZM390.5559,452.8359h13.2093c2.647,0,4.5129-.4278,5.6216-1.26,1.0837-.8323,1.6385-2.3947,1.6385-4.7142v-1.1347c0-2.4197-.5548-4.0583-1.6886-4.8905-1.1347-.8313-3.0757-1.26-5.8489-1.26h-12.9319v13.2594Z" style="fill: #001e73;"/>
      <path d="M481.0836,403.9057l-2.5209,13.4867h-27.7296v11.9493h26.2674l-2.4198,13.033h-23.8476v23.0915h-16.26v-61.5605h46.5104Z" style="fill: #001e73;"/>
    </g>
    <path d="M274.7881,434.6859v-41.9224h-38.7208v41.9224h38.7208Z" style="fill: #00a032;"/>
    <path d="M525.1967,434.6868v41.9224h38.7214v-41.9224h-38.7214Z" style="fill: #00a032;"/>
    <path d="M601.3079,392.7644h-29.8227v-17.0662c0-26.8983,7.0588-52.8632,20.0417-75.5761-35.4945-12.5542-60.552-33.6286-83.4671-52.8632-32.0653-26.9484-57.4002-48.225-108.096-48.225v-29.8218c-15.7051,0-29.4943,1.8148-41.9224,4.9406v30.9315c-25.6624,8.1676-44.3672,23.8476-66.1476,42.1497-22.9152,19.2345-47.9977,40.3089-83.492,52.8632,13.0078,22.738,20.0411,48.6778,20.0411,75.5761v58.9886h-29.7717v41.9224h29.7717v67.056c0,23.3429,6.1006,45.7793,17.5705,64.8876,17.1423,28.4607,38.2167,36.9818,67.4595,48.7789,25.2839,10.2347,55.5603,22.4615,86.5169,50.166v42.5274c14.1167-16.3602,28.1332-28.1833,41.9224-37.3844v-34.8645c15.8564-8.7976,30.9565-14.923,44.5945-20.4444,29.2169-11.7721,50.3423-20.3182,67.4587-48.7789,11.4956-19.1083,17.5709-41.5447,17.5709-64.8876v-108.9783h29.8218v-41.9224l-.0501.0251ZM563.8975,543.6652c0,21.9568-5.6968,43.0571-16.4864,60.9555-15.8062,26.2674-34.8895,33.9562-63.7789,45.6531-12.6044,5.0919-26.7712,10.8397-41.7461,18.8309v-109.2307h-41.9224v137.4901c-30.1744-25.4862-59.6687-37.4104-83.6175-47.0904-28.9144-11.6969-47.9977-19.3857-63.8039-45.6531-10.7892-17.8985-16.4864-38.9988-16.4864-60.9555v-67.056h38.7206v-41.9224h-38.7206v-58.9886c0-24.9063-5.8232-49.46-16.8647-71.5429,32.4938-13.2344,56.3415-33.2501,77.593-51.0985,21.0493-17.6962,38.3178-32.1163,61.2321-39.9814v96.374h41.9224v-102.7768c47.8975,0,71.0892,19.486,103.1804,46.4093,21.2507,17.8483,45.0983,37.8892,77.5931,51.0985-11.067,22.0829-16.8649,46.6366-16.8649,71.5429v17.0662h-38.7214v41.9224h38.7214v108.9783l.0501-.0251Z" style="fill: #ffcd00;"/>
    <path d="M441.8888,213.0997c-11.9744-4.1093-25.4611-6.4539-41.9224-6.4539v102.8278h41.9224v-96.399.0251Z" style="fill: #00a032;"/>
    <path d="M358.0539,669.103c13.4867,7.1841,27.6294,16.209,41.9224,28.2844v-137.4891h-41.9224v109.2047Z" style="fill: #00a032;"/>
    <path d="M400.0013,199.0581c50.6949,0,76.0298,21.2766,108.096,48.225,22.9143,19.2345,47.9727,40.3089,83.4662,52.8632-12.982,22.738-20.0408,48.6778-20.0408,75.5761v17.0662h29.8218v-17.0662c0-38.0905,17.4447-72.1478,44.7457-94.6092-58.0302-4.2346-89.6677-32.1915-121.733-59.0897-32.0913-26.8974-64.6111-52.7621-124.3559-52.7621v29.8227-.026Z" style="fill: #001e73;"/>
    <path d="M228.4525,375.6991c0-26.8983-7.0081-52.8632-20.0411-75.577,35.4945-12.5534,60.577-33.6286,83.4922-52.8623,21.8055-18.3021,40.5103-33.9821,66.1476-42.1497v-30.9315c-82.1302,20.6466-103.4068,99.5749-204.1415,106.9362,13.6632,11.2182,24.8307,25.36,32.6203,41.4436,7.7644,16.0837,12.1255,34.1074,12.1255,53.1656v58.9886h29.7717v-58.9886l.0252-.0251Z" style="fill: #001e73;"/>
    <path d="M313.4549,657.3317c-29.2169-11.7721-50.3172-20.3182-67.4586-48.7789-11.4704-19.1083-17.5709-41.5438-17.5709-64.8876v-67.056h-29.7717v67.056c0,28.2093,7.2601,56.065,21.8309,80.2653,43.8129,72.8288,110.6925,46.4343,179.4121,125.9944v-42.5023c-30.9315-27.6544-61.182-39.8552-86.4417-50.0908Z" style="fill: #001e73;"/>
    <path d="M571.5084,543.6634c0,23.3429-6.0494,45.7793-17.5701,64.8876-17.0922,28.4607-38.2167,36.9808-67.4595,48.7789-13.663,5.5205-28.7632,11.6719-44.6696,20.4694v34.8895c19.8144-13.2093,39.074-20.9231,57.249-28.2594,30.8053-12.4531,58.4848-24.049,80.4165-60.5009,14.5454-24.1761,21.8315-52.0569,21.8315-80.2653v-108.9783h-29.8227v108.9783h.0251Z" style="fill: #001e73;"/>
  </g>
</svg>