<?xml version="1.0" encoding="UTF-8"?>
<svg id="_图层_1" data-name="图层_1" xmlns="http://www.w3.org/2000/svg" version="1.1" viewBox="0 0 800 800">
  <!-- Generator: Adobe Illustrator 29.1.0, SVG Export Plug-In . SVG Version: 2.1.0 Build 142)  -->
  <path d="M316.4338,595.8471c-8.9789-9.779-16.9799-20.5359-25.1588-31.1151-14.0462-18.0467-31.9152-29.0704-51.8288-39.4717,4.0005-33.6932,5.7785-67.2085,3.7338-100.9906h-32.8931l-72.2758,92.0117V165.1257l55.5626,70.6756,49.6063-53.6957c13.0683,8.1788,22.8473,13.7795,38.6716,12.8905,12.0904-.7112,23.6474-4.1783,34.5822-9.0678v-63.6525l-92.0117-72.2758h351.1557l-92.0117,72.2758v63.6525c10.9347,4.8895,22.4918,8.3566,34.5822,9.0678,15.8242.889,25.6032-4.7117,38.6716-12.8905l49.6063,53.6957,55.5626-70.6757v351.1557l-72.2759-92.0117h-32.982c-1.9558,33.7821-.1778,67.2974,3.8227,100.9906-19.9136,10.4013-37.7826,21.4249-51.8288,39.4717-8.1788,10.5791-16.1798,21.336-25.1588,31.1151v81.877l92.0117,72.2759H224.4221l92.0117-72.2759v-81.877h0ZM406.0452,623.4951c-2.3114-1.778-4.445-3.8227-6.0452-6.3119-1.6002,2.4892-3.7338,4.5339-6.0452,6.3119l.2667,51.0287h11.557l.2667-51.0287h0ZM393.9548,167.0815c2.667,2.5781,4.8006,5.6896,6.0452,9.0678,1.2446-3.3782,3.3782-6.4897,6.0452-9.0678l-.2667-41.6053h-11.557l-.2667,41.6053h0ZM570.7772,336.4364c-1.0668,4.0005-2.0447,7.9121-3.0226,11.8237l19.1136-.0889v-11.557l-16.0909-.1778h0ZM232.2454,348.2601c-.9779-3.9116-1.9558-7.8232-3.0226-11.8237l-16.0909.1778v11.557l19.1135.0889Z"/>
  <path d="M426.3144,629.7181c-3.7338,0-7.6454-.5334-11.3792-1.778l-.3556,55.5627h-29.1593l-.3556-55.5626c-3.7338,1.2446-7.6454,1.778-11.3792,1.778v64.1859h52.6289v-64.186Z" style="fill: #d3c084;"/>
  <path d="M576.8225,315.9893c-1.2446,3.8227-2.4003,7.7343-3.556,11.557l22.4918.1778v29.2482l-29.9594.2667c-.8001,3.8227-1.6002,7.6454-2.3114,11.4681h42.761v-52.7178h-29.4259Z" style="fill: #d3c084;"/>
  <path d="M587.7572,286.5634c-2.8448,6.7564-5.5118,13.6017-7.9121,20.5359h35.2934v70.5867h-53.2512c-.889,5.7785-1.6891,11.557-2.4003,17.3355h44.4501l28.6258,36.3602v-181.3564l-28.6258,36.538h-16.1799Z" style="fill: #e42518;"/>
  <path d="M601.27,257.1374c-3.3782,6.6675-6.5786,13.5128-9.6012,20.3581h7.9121l42.0498-53.6068v233.6297l-42.0498-53.5179h-41.1608c-.1778,1.8669-.3556,3.8227-.5334,5.7785-.1778,1.778-.3556,3.6449-.5334,5.5118h36.7158l58.8519,74.1428V192.0625l-51.651,65.0749Z" style="fill: #d3c084;"/>
  <path d="M373.6855,160.6807c4.0005-.4445,7.9121-.2667,11.3792.889l.3556-45.0724h29.1593l.3556,45.0724c3.4671-1.1557,7.3787-1.3335,11.3792-.889v-54.5847h-52.6289v54.5847h0Z" style="fill: #d3c084;"/>
  <path d="M345.7709,170.6375c4.0005-2.0447,8.2677-4.0894,12.5349-5.8674,2.1336-.8001,4.2672-1.6002,6.4008-2.2225v-65.3416h70.5867v65.3416c2.1336.6223,4.2672,1.4224,6.4008,2.2225,4.2672,1.778,8.5344,3.8227,12.5349,5.8674v-62.5857l36.4491-28.6259h-181.3564l36.4491,28.6259v62.5857h0Z" style="fill: #e42518;"/>
  <path d="M325.5016,181.6612c3.2893-1.6891,6.4897-3.4671,9.6901-5.2451.5334-.2667,1.0668-.5334,1.6002-.889v-63.1191l-53.6068-42.0498h233.6297l-53.6068,42.0498v63.1191c.5334.3556,1.0668.6223,1.6002.889,3.2004,1.778,6.4008,3.556,9.6901,5.2451v-63.7414l74.2316-58.8519H251.27l74.2316,58.8519v63.7414h0Z" style="fill: #d3c084;"/>
  <path d="M236.5126,368.7071c-.7112-3.8227-1.5113-7.6454-2.3114-11.4681l-29.9594-.2667v-29.2482l22.4918-.1778c-1.1557-3.8227-2.3114-7.7343-3.556-11.557h-29.426v52.7178h42.761Z" style="fill: #d3c084;"/>
  <path d="M240.5131,395.0216c-.7112-5.7785-1.5113-11.557-2.4892-17.3355h-53.1623v-70.5867h35.2934c-2.4003-6.9342-5.0673-13.7795-7.9121-20.5359h-16.1798l-28.6259-36.538v181.3564l28.6259-36.3602h44.4501Z" style="fill: #e42518;"/>
  <path d="M242.6467,415.2908c-.1778-1.8669-.3556-3.7338-.5334-5.5118-.1778-1.9558-.3556-3.9116-.5334-5.7785h-41.1608l-42.0498,53.5179v-233.6297l42.0498,53.6068h7.9121c-3.0226-6.8453-6.223-13.6906-9.6012-20.447l-51.651-64.986v297.3711l58.8519-74.1428h36.7158Z" style="fill: #d3c084;"/>
  <path d="M400,191.7958c-2.7559,6.3119-8.8011,9.8679-15.5575,10.5791-7.8232.889-16.0909-3.0226-21.2471-8.8011-4.1783,2.3114-8.1788,4.9784-12.3571,7.4676-20.2692,12.446-43.5611,22.0472-67.4752,23.2919-11.6459.7112-23.5586-.7112-34.4044-5.1562l-23.5586,25.3366c9.1567,18.2245,17.0688,37.0714,23.6474,56.3627,11.3792,33.4265,18.5801,68.1865,22.0472,103.2131,3.4671,34.8489,3.2004,70.0533-.2667,104.7244,16.7132,9.9568,31.6485,22.5806,43.5611,38.0493,13.7795,17.6911,27.0257,36.9825,46.7615,48.7173,6.3119,3.7338,12.0015,7.8232,17.2466,2.0447,3.4671-3.8227,7.6454-5.6007,11.557-5.7785,3.7338-.1778,7.4676,1.3335,10.0457,3.9116,2.5781-2.5781,6.3119-4.0894,9.9568-3.9116,3.9116.1778,8.1788,1.9558,11.6459,5.7785,5.2451,5.7785,10.9347,1.6891,17.2466-2.0447,19.7359-11.7348,32.893-30.9373,46.7615-48.7173,11.9126-15.4687,26.759-28.0925,43.5611-38.0493-3.4671-34.6711-3.7338-69.8756-.2667-104.7244,3.4671-35.0267,10.668-69.7866,22.0472-103.2131,6.5786-19.2913,14.4907-38.1382,23.6475-56.3627l-23.5585-25.3366c-10.9347,4.445-22.7585,5.8674-34.4044,5.1562-23.9142-1.2446-47.206-10.8458-67.4752-23.2918-4.1783-2.4892-8.1788-5.1562-12.3571-7.4676-5.1562,5.7785-13.4239,9.6901-21.2471,8.8011-6.7565-.7112-12.8017-4.2672-15.5576-10.5791h0ZM400,255.8928c5.0673-2.7559,10.4902-4.9784,16.1798-5.8674,14.5796-2.1336,23.8253,4.2672,36.6269,8.001,19.7358,5.8674,38.6716,6.4897,58.9408,4.1783l20.9804,25.0699c-11.2903,33.9599-19.4691,68.0975-23.8252,103.5687-4.5339,36.1824-5.1562,72.3647-4.0894,108.8138-11.1125,7.112-21.1582,14.224-30.0483,24.0031-11.6459,12.8905-19.2024,28.8926-33.6043,39.2939-23.8253,17.1577-58.4963,17.1577-82.3216,0-14.4018-10.4013-21.9583-26.4034-33.6043-39.2939-8.89-9.779-18.9357-16.891-30.0483-24.0031,1.0668-36.4491.4445-72.6315-4.0894-108.8138-4.3561-35.4712-12.5349-69.6089-23.8252-103.5687l20.9804-25.0699c20.2692,2.3114,39.205,1.6891,58.9408-4.1783,12.8016-3.7338,22.0472-10.1346,36.6269-8.001,5.6896.889,11.1125,3.1115,16.1798,5.8674Z" style="fill: #e42518;"/>
  <path d="M336.792,614.5162c-.0889,0-.1778-.0889-.1778-.0889-.2667-.1778-.4445-.3556-.6223-.4445-.1778-.1778-.3556-.2667-.5334-.4445-.1778-.0889-.3556-.2667-.6223-.4445-.0889-.0889-.1778-.1778-.2667-.1778-.1778-.1778-.4445-.3556-.6223-.5334-.1778-.0889-.2667-.1778-.4445-.3556-.1778-.0889-.3556-.2667-.5334-.3556-.0889-.1778-.2667-.2667-.4445-.4445-.1778-.0889-.3556-.2667-.5334-.3556-.1778-.1778-.2667-.3556-.4445-.4445h0c-.0889-.0889-.1778-.0889-.1778-.1778-.0889,0-.1778-.0889-.1778-.1778h-.0889c-.1778-.1778-.4445-.3556-.6223-.5334-.0889-.0889-.1778-.0889-.1778-.1778-.2667-.1778-.5334-.3556-.7112-.6223-.0889,0-.1778-.0889-.1778-.0889-.0889-.0889-.0889-.1778-.1778-.1778-1.2446-1.1557-2.5781-2.2225-3.7338-3.3782v76.9875l-74.2316,58.8519h297.46l-74.2316-58.8519v-76.9875c-1.5113,1.4224-3.1115,2.8448-4.8006,4.2672,0,.0889-.0889.0889-.1778.1778-.5334.4445-.9779.889-1.5113,1.3335-.0889,0-.1778.0889-.2667.0889,0,.0889-.0889.0889-.1778.1778-.1778.1778-.4445.3556-.7112.6223,0,0-.0889.0889-.1778.0889,0,.0889-.0889.0889-.1778.1778-.1778.0889-.3556.2667-.5334.4445,0,0-.0889.0889-.1778.0889,0,.0889-.0889.0889-.1778.1778-.1778.1778-.3556.2667-.5334.4445-.0889,0-.0889.0889-.1778.0889l-.1778.1778h-.0889c-.1778.1778-.4445.3556-.6223.5334h0c-.0889.0889-.1778.0889-.2667.1778l-.1778.1778c-.1778.0889-.2667.1778-.3556.1778v73.076l53.6068,42.0497h-233.6296l53.6068-42.0498v-73.076Z" style="fill: #d3c084;"/>
  <path d="M364.7066,628.5624c-5.9563-1.3335-11.8237-3.9116-17.3355-7.112-.5334-.2667-1.0668-.5334-1.6002-.889v71.3869l-36.4491,28.6259h181.3564l-36.4491-28.6259v-71.3869c-.5334.3556-1.0668.6223-1.6002.889-5.5118,3.2004-11.3792,5.7785-17.3355,7.112v74.2316h-70.5868v-74.2316Z" style="fill: #e42518;"/>
  <path d="M400,266.2052c5.4229-3.2004,11.2903-6.3119,17.6022-7.2009,12.8905-1.9558,21.2472,4.2672,32.7153,7.7343,19.0246,5.6007,37.8715,7.2898,57.6073,4.9784l14.5796,17.5133c-10.8458,32.8042-18.3134,66.1417-22.5806,100.4572-4.3561,34.9378-5.334,69.9644-4.2672,105.1689-10.3124,6.4897-19.2913,13.6906-27.5591,22.7585-10.9347,12.0015-19.1135,28.537-32.1819,38.0493-20.6248,14.8463-51.2065,14.8463-71.8313,0-13.0683-9.5123-21.2472-26.0478-32.1819-38.0493-8.2677-9.0678-17.2466-16.2687-27.5591-22.7585,1.0668-35.2045.0889-70.2311-4.2672-105.1689-4.2672-34.3155-11.7348-67.653-22.5806-100.4572l14.5796-17.5133c19.7358,2.3114,38.5827.6223,57.6073-4.9784,11.4681-3.4671,19.8247-9.6901,32.7153-7.7343,6.3119.889,12.2682,4.0005,17.6022,7.2009Z" style="fill: #d3c084;"/>
  <path d="M400,276.7844c-5.7785-3.556-12.0015-7.8232-18.9357-8.89-10.5791-1.6002-19.1135,4.6228-28.8037,7.4676-18.2245,5.4229-37.427,7.7343-56.3627,5.8674l-8.2677,9.9568c10.4013,31.8263,17.3355,64.2748,21.4249,97.4346,4.1783,33.0709,5.4229,66.853,4.5339,101.3462,9.8679,6.5786,17.78,13.6906,24.9809,21.6027,10.3124,11.3792,18.4912,27.8258,30.8484,36.7158,17.3355,12.6238,43.8278,12.6238,61.1633,0,12.3571-8.89,20.5359-25.3365,30.8484-36.7158,7.2009-7.9121,15.113-15.0241,24.9809-21.6027-.889-34.4933.3556-68.2753,4.5339-101.3462,4.0894-33.1598,11.0236-65.6083,21.4249-97.4346l-8.2677-9.9568c-18.9357,1.8669-38.1382-.4445-56.3627-5.8674-9.6901-2.8448-18.2245-9.0678-28.8037-7.4676-6.9342,1.0668-13.1572,5.334-18.9357,8.89Z"/>
  <path d="M371.5519,620.5614c-15.2019-1.4224-31.3818-13.8684-42.0498-24.0031-11.9126-11.2903-21.1582-24.4475-31.1151-37.3381-13.4239-17.3355-29.9594-29.0704-49.2507-39.1161,8.4455-71.5646,4.0894-144.0183-19.2913-212.7381-7.8232-22.9363-17.6911-44.7168-29.0704-66.0528l43.9167-47.6505c12.2682,7.7343,23.0252,11.1125,37.6048,10.4013,20.7137-1.1557,39.4717-9.8679,57.2517-19.7358,11.2903-6.3119,32.8931-18.7579,43.8278-13.6906,10.668,4.9784,13.6906,21.2471.0889,22.7584-6.9342.8001-15.3797-5.1562-16.6243-11.8237-7.0231,3.1115-13.6906,7.5565-20.7137,11.8237-18.7579,11.4681-40.983,20.7137-63.208,21.9583-12.7127.6223-24.8921-1.1557-36.0935-7.2009l-32.3597,34.8489c10.3124,19.7358,18.9357,40.0051,26.0478,60.8077,22.9362,67.2085,28.537,139.5733,20.7137,209.8933,17.8689,9.779,33.6043,22.4918,46.0503,38.6716,9.6012,12.3571,18.5801,25.1588,29.9594,36.0046,8.6233,8.0899,23.0251,19.8247,35.3823,20.9804,6.0452.6223,8.6233-1.5113,12.446-5.6896,5.1562-5.6896,12.0015-2.0447,9.3345,5.0673-3.3782,8.89-14.1351,12.7127-22.8473,11.8237h0ZM428.448,620.5614c15.2019-1.4224,31.3818-13.8684,42.0498-24.0031,11.9126-11.2903,21.1582-24.4475,31.1151-37.3381,13.4239-17.3355,29.9594-29.0704,49.2507-39.1161-8.4455-71.5646-4.0894-144.0183,19.2913-212.7381,7.8232-22.9363,17.6023-44.7168,29.0704-66.0528l-43.9167-47.6505c-12.2682,7.7343-23.0252,11.1125-37.6048,10.4013-20.7137-1.1557-39.4717-9.8679-57.2517-19.7358-11.2903-6.3119-32.8931-18.758-43.8278-13.6906-10.668,4.9784-13.6906,21.2471-.0889,22.7584,6.9342.8001,15.3797-5.1562,16.6243-11.8237,7.0231,3.1115,13.6906,7.5565,20.7137,11.8237,18.7579,11.4681,40.983,20.7137,63.208,21.9583,12.7127.6223,24.8921-1.1557,36.0935-7.2009l32.3597,34.8489c-10.3124,19.7358-18.9357,40.0051-26.0478,60.8077-22.9362,67.2085-28.537,139.5733-20.7137,209.8933-17.8689,9.779-33.6043,22.4918-46.0503,38.6716-9.6012,12.3571-18.5801,25.1588-29.9594,36.0046-8.6233,8.0899-23.0251,19.8247-35.3823,20.9804-6.0452.6223-8.6233-1.5113-12.446-5.6896-5.1562-5.6896-12.0015-2.0447-9.3345,5.0673,3.2893,8.89,14.1351,12.7127,22.8474,11.8237Z" style="fill: #d3c084;"/>
  <path d="M400,234.8235h-2.8448v14.1351h-12.7127v-45.5169h15.9131c9.2456,0,12.9794,7.4676,12.9794,15.7353,0,8.89-3.6449,15.6464-13.335,15.6464h0ZM400.7112,219.1771c0-1.1557.1778-2.4892-1.1557-2.4892h-2.4003v5.0673h2.4003c1.2446,0,1.1557-1.6002,1.1557-2.5781Z"/>
  <path d="M400,287.3635c-5.7785-3.556-12.9794-9.4234-20.2692-10.4902-7.8232-1.2446-17.2466,4.8895-24.8921,7.112-17.78,5.2451-36.4491,7.8232-54.9403,6.5786l-2.1336,2.5781c9.6901,30.7595,16.2687,62.4079,20.2692,94.412,4.0894,32.3597,5.4229,65.0749,4.7117,97.7902,8.1788,5.8674,15.7353,12.6238,22.4918,20.0914,10.0457,11.1125,17.3355,26.8478,29.426,35.5601,14.224,10.3124,36.4491,10.3124,50.6731,0,12.0904-8.7122,19.3802-24.4475,29.426-35.5601,6.7564-7.4676,14.3129-14.224,22.4918-20.0914-.7112-32.7153.6223-65.4305,4.7117-97.7902,4.0005-32.0041,10.5791-63.6525,20.2692-94.412l-2.1336-2.5781c-18.4913,1.2446-37.1603-1.3335-54.9403-6.5786-7.6454-2.2225-17.0688-8.3566-24.8921-7.112-7.2898,1.0668-14.4907,6.9342-20.2692,10.4902Z" style="fill: #fff;"/>
  <path d="M420.5359,383.0201h-41.0719v49.4285c0,8.5344,9.2456,15.5575,20.5359,15.5575s20.5359-7.0231,20.5359-15.5575v-49.4285h0Z" style="fill: #004595;"/>
  <path d="M400,416.7132c2.1336,0,3.8227-1.778,3.8227-3.9116s-1.6891-3.8227-3.8227-3.8227c-2.0447,0-3.8227,1.6891-3.8227,3.8227s1.778,3.9116,3.8227,3.9116Z" style="fill: #fff;"/>
  <path d="M388.2652,397.5108c2.0447,0,3.8227-1.6891,3.8227-3.8227s-1.778-3.9116-3.8227-3.9116c-2.1336,0-3.9116,1.778-3.9116,3.9116s1.778,3.8227,3.9116,3.8227Z" style="fill: #fff;"/>
  <path d="M388.2652,435.7379c2.0447,0,3.8227-1.6891,3.8227-3.8227s-1.778-3.9116-3.8227-3.9116c-2.1336,0-3.9116,1.778-3.9116,3.9116s1.778,3.8227,3.9116,3.8227Z" style="fill: #fff;"/>
  <path d="M411.8237,397.5108c2.1336,0,3.8227-1.6891,3.8227-3.8227s-1.6891-3.9116-3.8227-3.9116-3.9116,1.778-3.9116,3.9116,1.778,3.8227,3.9116,3.8227Z" style="fill: #fff;"/>
  <path d="M411.8237,435.7379c2.1336,0,3.8227-1.6891,3.8227-3.8227s-1.6891-3.9116-3.8227-3.9116-3.9116,1.778-3.9116,3.9116,1.778,3.8227,3.9116,3.8227Z" style="fill: #fff;"/>
  <path d="M420.5359,462.5858h-41.0719v49.5174c0,8.5344,9.2456,15.4686,20.5359,15.4686s20.5359-6.9342,20.5359-15.4687v-49.5174h0Z" style="fill: #004595;"/>
  <path d="M400,496.3678c2.1336,0,3.8227-1.778,3.8227-3.9116s-1.6891-3.8227-3.8227-3.8227c-2.0447,0-3.8227,1.6891-3.8227,3.8227,0,2.1336,1.778,3.9116,3.8227,3.9116Z" style="fill: #fff;"/>
  <path d="M388.2652,477.0765c2.0447,0,3.8227-1.778,3.8227-3.9116s-1.778-3.8227-3.8227-3.8227c-2.1336,0-3.9116,1.6891-3.9116,3.8227s1.778,3.9116,3.9116,3.9116Z" style="fill: #fff;"/>
  <path d="M388.2652,515.3925c2.0447,0,3.8227-1.6891,3.8227-3.8227s-1.778-3.9116-3.8227-3.9116c-2.1336,0-3.9116,1.778-3.9116,3.9116s1.778,3.8227,3.9116,3.8227Z" style="fill: #fff;"/>
  <path d="M411.8237,477.0765c2.1336,0,3.8227-1.778,3.8227-3.9116s-1.6891-3.8227-3.8227-3.8227-3.9116,1.6891-3.9116,3.8227,1.778,3.9116,3.9116,3.9116Z" style="fill: #fff;"/>
  <path d="M411.8237,515.3925c2.1336,0,3.8227-1.6891,3.8227-3.8227s-1.6891-3.9116-3.8227-3.9116-3.9116,1.778-3.9116,3.9116,1.778,3.8227,3.9116,3.8227Z" style="fill: #fff;"/>
  <path d="M371.1963,383.0201h-41.2497v49.4285c0,8.5344,9.2456,15.5575,20.6248,15.5575s20.6248-7.0231,20.6248-15.5575v-49.4285h0Z" style="fill: #004595;"/>
  <path d="M350.3937,416.7132c2.1336,0,3.9116-1.778,3.9116-3.9116s-1.778-3.8227-3.9116-3.8227-3.9116,1.6891-3.9116,3.8227,1.778,3.9116,3.9116,3.9116Z" style="fill: #fff;"/>
  <path d="M338.57,397.5108c2.1336,0,3.9116-1.6891,3.9116-3.8227s-1.778-3.9116-3.9116-3.9116-3.9116,1.778-3.9116,3.9116,1.778,3.8227,3.9116,3.8227Z" style="fill: #fff;"/>
  <path d="M338.57,435.7379c2.1336,0,3.9116-1.6891,3.9116-3.8227s-1.778-3.9116-3.9116-3.9116-3.9116,1.778-3.9116,3.9116,1.778,3.8227,3.9116,3.8227Z" style="fill: #fff;"/>
  <path d="M362.2174,397.5108c2.1336,0,3.9116-1.6891,3.9116-3.8227s-1.778-3.9116-3.9116-3.9116-3.9116,1.778-3.9116,3.9116,1.778,3.8227,3.9116,3.8227Z" style="fill: #fff;"/>
  <path d="M362.2174,435.7379c2.1336,0,3.9116-1.6891,3.9116-3.8227s-1.778-3.9116-3.9116-3.9116-3.9116,1.778-3.9116,3.9116,1.778,3.8227,3.9116,3.8227Z" style="fill: #fff;"/>
  <path d="M428.8036,383.0201h41.2497v49.4285c0,8.5344-9.2456,15.5575-20.6248,15.5575s-20.6248-7.0231-20.6248-15.5575v-49.4285Z" style="fill: #004595;"/>
  <path d="M449.6063,416.7132c2.1336,0,3.9116-1.778,3.9116-3.9116s-1.778-3.8227-3.9116-3.8227-3.9116,1.6891-3.9116,3.8227,1.778,3.9116,3.9116,3.9116Z" style="fill: #fff;"/>
  <path d="M461.43,397.5108c2.1336,0,3.9116-1.6891,3.9116-3.8227s-1.778-3.9116-3.9116-3.9116-3.9116,1.778-3.9116,3.9116,1.778,3.8227,3.9116,3.8227Z" style="fill: #fff;"/>
  <path d="M461.43,435.7379c2.1336,0,3.9116-1.6891,3.9116-3.8227s-1.778-3.9116-3.9116-3.9116-3.9116,1.778-3.9116,3.9116,1.778,3.8227,3.9116,3.8227Z" style="fill: #fff;"/>
  <path d="M437.7826,397.5108c2.1336,0,3.9116-1.6891,3.9116-3.8227s-1.778-3.9116-3.9116-3.9116-3.9116,1.778-3.9116,3.9116,1.778,3.8227,3.9116,3.8227Z" style="fill: #fff;"/>
  <path d="M437.7826,435.7379c2.1336,0,3.9116-1.6891,3.9116-3.8227s-1.778-3.9116-3.9116-3.9116-3.9116,1.778-3.9116,3.9116,1.778,3.8227,3.9116,3.8227Z" style="fill: #fff;"/>
  <path d="M399.5555,213.3985h-5.6896v11.6459h5.6896c2.7559,0,4.445-1.9558,4.445-5.8674,0-3.2004-1.0668-5.7785-4.445-5.7785h0ZM400,231.6231h-6.1341v14.0462h-6.223v-39.0272h12.7127c5.8674,0,9.6901,4.0894,9.6901,12.5349,0,7.112-2.2225,12.446-10.0457,12.446Z" style="fill: #d3c084;"/>
  <rect x="410.7569" y="234.6457" width="12.5349" height="14.3129"/>
  <rect x="414.0462" y="237.935" width="6.0452" height="7.7343" style="fill: #d3c084;"/>
  <polygon points="451.0287 254.3815 454.1402 240.3353 466.0528 243.0023 462.9413 257.0485 451.0287 254.3815"/>
  <polygon points="456.6294 244.2469 462.2301 245.4915 460.4521 253.1369 454.9403 251.8923 456.6294 244.2469" style="fill: #d3c084;"/>
  <polygon points="428.3591 249.2253 438.4049 204.8641 464.0081 210.6426 461.0744 223.711 447.4727 220.5994 446.9393 222.9998 458.8519 225.6668 455.9182 238.7351 444.0056 236.0681 440.4496 251.9812 428.3591 249.2253"/>
  <polygon points="440.8052 208.7757 460.0965 213.1318 458.6741 219.7994 445.0724 216.6878 443.0277 225.489 454.9403 228.156 453.429 234.8235 441.6053 232.1565 437.9604 248.0696 432.2708 246.825 440.8052 208.7757" style="fill: #d3c084;"/>
  <polygon points="366.3957 249.492 363.6398 235.4458 375.6413 233.0455 377.775 243.8913 378.3973 247.0917 366.3957 249.492"/>
  <polygon points="367.4625 238.0239 373.0632 236.8682 374.5745 244.6025 368.9738 245.6693 367.4625 238.0239" style="fill: #d3c084;"/>
  <polygon points="344.0818 255.0927 333.9472 210.8204 359.4615 204.953 362.573 217.9324 348.8824 221.0439 349.5047 223.4443 361.3284 220.6884 364.351 233.7567 352.4384 236.5126 356.1722 252.4257 344.0818 255.0927"/>
  <polygon points="337.8588 213.2207 357.0612 208.8646 358.5725 215.5321 344.9708 218.6436 347.0155 227.3559 358.9281 224.6 360.4394 231.2675 348.6157 234.0234 352.2606 249.9365 346.571 251.27 337.8588 213.2207" style="fill: #d3c084;"/>
  <path d="M420.5359,303.3655h-41.0719v49.5174c0,8.6233,9.2456,15.5575,20.5359,15.5575s20.5359-6.9342,20.5359-15.5575v-49.5174h0Z" style="fill: #004595;"/>
  <path d="M400,337.1476c2.1336,0,3.8227-1.6891,3.8227-3.8227s-1.6891-3.9116-3.8227-3.9116c-2.0447,0-3.8227,1.778-3.8227,3.9116s1.778,3.8227,3.8227,3.8227Z" style="fill: #fff;"/>
  <path d="M388.2652,317.8563c2.0447,0,3.8227-1.6891,3.8227-3.8227s-1.778-3.9116-3.8227-3.9116c-2.1336,0-3.9116,1.778-3.9116,3.9116s1.778,3.8227,3.9116,3.8227Z" style="fill: #fff;"/>
  <path d="M388.2652,356.1722c2.0447,0,3.8227-1.6891,3.8227-3.8227s-1.778-3.9116-3.8227-3.9116c-2.1336,0-3.9116,1.778-3.9116,3.9116s1.778,3.8227,3.9116,3.8227Z" style="fill: #fff;"/>
  <path d="M411.8237,317.8563c2.1336,0,3.8227-1.6891,3.8227-3.8227s-1.6891-3.9116-3.8227-3.9116-3.9116,1.778-3.9116,3.9116,1.778,3.8227,3.9116,3.8227Z" style="fill: #fff;"/>
  <path d="M411.8237,356.1722c2.1336,0,3.8227-1.6891,3.8227-3.8227s-1.6891-3.9116-3.8227-3.9116-3.9116,1.778-3.9116,3.9116,1.778,3.8227,3.9116,3.8227Z" style="fill: #fff;"/>
</svg>